%FSLAX33Y33*%
%MOMM*%
%AMRect-W10000000-H1000000-RO1.500*
21,1,10.,1.,0.,0.,90*%
%ADD10C,0.508*%
%ADD11Rect-W10000000-H1000000-RO1.500*%
%ADD12C,1.333333*%
D10*
%LNtop copper_traces*%
G01*
X115000Y0D02*
X108000Y7000D01*
X11000Y-3000D02*
X4000Y-3000D01*
X60000Y6000D02*
X14000Y6000D01*
X105000Y0D02*
X99000Y-6000D01*
X14000Y0D02*
X11000Y-3000D01*
X99000Y-6000D02*
X12000Y-6000D01*
X11000Y3000D02*
X4000Y3000D01*
X11000Y7000D02*
X4000Y7000D01*
X55000Y0D02*
X14000Y0D01*
X13000Y7000D02*
X11000Y5000D01*
X206000Y9000D02*
X4000Y9000D01*
X14000Y6000D02*
X11000Y3000D01*
X4000Y-7000D02*
X148000Y-7000D01*
X165000Y0D02*
X157000Y8000D01*
X12000Y-6000D02*
X11000Y-5000D01*
X148000Y-7000D02*
X155000Y0D01*
X4000Y-9000D02*
X196000Y-9000D01*
X108000Y7000D02*
X13000Y7000D01*
X65000Y0D02*
X60000Y6000D01*
X157000Y8000D02*
X12000Y8000D01*
X11000Y5000D02*
X4000Y5000D01*
X196000Y-9000D02*
X205000Y0D01*
X11000Y-5000D02*
X4000Y-5000D01*
X12000Y8000D02*
X11000Y7000D01*
X215000Y0D02*
X206000Y9000D01*
%LNtop copper component ce7f90d1507da94a*%
D11*
X105000Y0D03*
X115000Y0D03*
%LNtop copper component 918498804ff98d6b*%
D12*
X4000Y-3000D03*
X4000Y-5000D03*
X4000Y-7000D03*
X4000Y-9000D03*
%LNtop copper component f3567ee680ce1503*%
D11*
X155000Y0D03*
X165000Y0D03*
%LNtop copper component e3dbd819e68437a9*%
X205000Y0D03*
X215000Y0D03*
%LNtop copper component 4dc070da7d5b1317*%
X55000Y0D03*
X65000Y0D03*
%LNtop copper component 0db16b147599cd73*%
D12*
X4000Y9000D03*
X4000Y7000D03*
X4000Y5000D03*
X4000Y3000D03*
M02*