<?xml version="1.0" encoding="utf-8" standalone="no"?>
<!DOCTYPE svg PUBLIC "-//W3C//DTD SVG 1.1//EN"
  "http://www.w3.org/Graphics/SVG/1.1/DTD/svg11.dtd">
<!-- Created with matplotlib (http://matplotlib.org/) -->
<svg height="432pt" version="1.1" viewBox="0 0 576 432" width="576pt" xmlns="http://www.w3.org/2000/svg" xmlns:xlink="http://www.w3.org/1999/xlink">
 <defs>
  <style type="text/css">
*{stroke-linecap:butt;stroke-linejoin:round;stroke-miterlimit:100000;}
  </style>
 </defs>
 <g id="figure_1">
  <g id="patch_1">
   <path d="M 0 432 
L 576 432 
L 576 0 
L 0 0 
z
" style="fill:#ffffff;"/>
  </g>
  <g id="axes_1">
   <g id="patch_2">
    <path d="M 72 388.8 
L 518.4 388.8 
L 518.4 43.2 
L 72 43.2 
z
" style="fill:#ffffff;"/>
   </g>
   <g id="line2d_1">
    <path clip-path="url(#p0fca1e23a5)" d="M 72 370.490625 
L 72 68.175 
L 72 68.175 
L 72 68.175 
L 72 82.265625 
L 72.558 65.053125 
L 72.558 76.95 
L 72.558 75.009375 
L 73.116 67.66875 
L 73.116 73.9125 
L 73.116 70.70625 
L 73.674 82.6875 
L 73.674 67.584375 
L 73.674 81 
L 74.232 64.125 
L 74.232 80.578125 
L 74.232 76.78125 
L 74.79 66.065625 
L 74.79 75.346875 
L 74.79 67.415625 
L 75.348 72.309375 
L 75.348 69.778125 
L 75.348 71.128125 
L 75.348 71.128125 
L 75.348 77.625 
L 75.906 68.428125 
L 75.906 83.278125 
L 75.906 83.278125 
L 75.906 83.278125 
L 75.906 67.246875 
L 76.464 81.084375 
L 76.464 64.715625 
L 77.022 76.865625 
L 77.022 64.715625 
L 77.022 66.403125 
L 77.58 74.503125 
L 77.58 67.246875 
L 77.58 72.984375 
L 78.138 71.634375 
L 78.138 74.41875 
L 78.138 74.41875 
L 78.138 74.41875 
L 78.138 69.778125 
L 78.696 78.80625 
L 78.696 68.34375 
L 78.696 68.34375 
L 78.696 68.34375 
L 78.696 82.096875 
L 79.254 66.234375 
L 79.254 81.759375 
L 79.254 81.759375 
L 79.254 81.759375 
L 79.254 65.30625 
L 79.812 79.65 
L 79.812 65.559375 
L 79.812 65.559375 
L 79.812 65.559375 
L 79.812 79.734375 
L 79.812 79.734375 
L 79.812 79.734375 
L 79.812 64.546875 
L 80.37 77.371875 
L 80.37 64.378125 
L 80.37 75.684375 
L 80.928 65.896875 
L 80.928 76.528125 
L 80.928 74.41875 
L 81.486 67.246875 
L 81.486 73.490625 
L 81.486 68.934375 
L 82.044 71.971875 
L 82.044 68.596875 
L 82.044 68.596875 
L 82.044 68.596875 
L 82.044 72.140625 
L 82.602 71.128125 
L 82.602 73.06875 
L 82.602 73.06875 
L 82.602 73.06875 
L 82.602 70.2 
L 83.16 80.746875 
L 83.16 70.115625 
L 83.16 79.81875 
L 83.718 68.765625 
L 83.718 83.109375 
L 84.276 68.090625 
L 84.276 82.434375 
L 84.276 68.596875 
L 84.834 82.940625 
L 84.834 68.596875 
L 84.834 82.6875 
L 85.392 67.5 
L 85.392 83.446875 
L 85.392 82.940625 
L 85.95 68.175 
L 85.95 83.109375 
L 85.95 83.109375 
L 85.95 83.109375 
L 85.95 67.584375 
L 86.508 82.434375 
L 86.508 67.415625 
L 86.508 82.096875 
L 87.066 67.246875 
L 87.066 83.446875 
L 87.066 82.771875 
L 87.624 69.440625 
L 87.624 83.109375 
L 87.624 83.109375 
L 87.624 83.109375 
L 87.624 68.175 
L 88.182 82.771875 
L 88.182 68.596875 
L 88.182 68.596875 
L 88.182 68.596875 
L 88.182 82.771875 
L 88.74 68.596875 
L 88.74 76.528125 
L 88.74 69.525 
L 89.298 79.059375 
L 89.298 70.959375 
L 89.856 69.609375 
L 89.856 72.309375 
L 89.856 72.309375 
L 89.856 72.309375 
L 89.856 69.103125 
L 90.414 71.971875 
L 90.414 68.090625 
L 90.414 68.090625 
L 90.414 68.090625 
L 90.414 73.153125 
L 90.972 68.090625 
L 90.972 75.009375 
L 90.972 75.009375 
L 90.972 75.009375 
L 90.972 66.234375 
L 91.53 74.925 
L 91.53 64.884375 
L 91.53 64.884375 
L 91.53 64.884375 
L 91.53 76.10625 
L 91.53 76.10625 
L 91.53 76.10625 
L 91.53 64.884375 
L 92.088 78.3 
L 92.088 64.209375 
L 92.088 77.709375 
L 92.646 63.7875 
L 92.646 79.734375 
L 92.646 79.734375 
L 92.646 79.734375 
L 92.646 63.45 
L 93.204 78.975 
L 93.204 64.715625 
L 93.204 64.715625 
L 93.204 64.715625 
L 93.204 80.240625 
L 93.762 65.30625 
L 93.762 82.265625 
L 93.762 68.090625 
L 94.32 83.109375 
L 94.32 70.959375 
L 94.32 72.140625 
L 94.878 71.38125 
L 94.878 67.246875 
L 94.878 67.246875 
L 94.878 67.246875 
L 94.878 73.828125 
L 94.878 73.828125 
L 94.878 73.828125 
L 94.878 66.571875 
L 95.436 76.78125 
L 95.436 64.8 
L 95.436 76.528125 
L 95.994 64.209375 
L 95.994 78.46875 
L 95.994 78.46875 
L 95.994 78.46875 
L 95.994 63.534375 
L 96.552 79.65 
L 96.552 65.559375 
L 96.552 65.559375 
L 96.552 65.559375 
L 96.552 81.253125 
L 97.11 66.571875 
L 97.11 80.578125 
L 97.11 69.609375 
L 97.668 74.334375 
L 97.668 69.01875 
L 98.226 72.984375 
L 98.226 65.30625 
L 98.226 65.30625 
L 98.226 65.30625 
L 98.226 75.43125 
L 98.784 64.715625 
L 98.784 78.046875 
L 98.784 78.046875 
L 98.784 78.046875 
L 98.784 63.534375 
L 99.342 78.721875 
L 99.342 65.559375 
L 99.342 65.559375 
L 99.342 65.559375 
L 99.342 81.421875 
L 99.9 67.753125 
L 99.9 73.153125 
L 99.9 71.296875 
L 100.458 68.934375 
L 100.458 75.09375 
L 100.458 75.09375 
L 100.458 75.09375 
L 100.458 65.221875 
L 100.458 65.221875 
L 100.458 65.221875 
L 100.458 76.190625 
L 101.016 63.871875 
L 101.016 78.215625 
L 101.016 78.215625 
L 101.016 78.215625 
L 101.016 63.534375 
L 101.574 82.096875 
L 101.574 68.259375 
L 101.574 77.878125 
L 102.132 72.140625 
L 102.132 67.246875 
L 102.132 67.246875 
L 102.132 67.246875 
L 102.132 74.165625 
L 102.69 65.221875 
L 102.69 77.034375 
L 102.69 77.034375 
L 102.69 77.034375 
L 102.69 63.534375 
L 103.248 80.578125 
L 103.248 65.896875 
L 103.248 65.896875 
L 103.248 65.896875 
L 103.248 82.096875 
L 103.806 69.103125 
L 103.806 72.984375 
L 104.364 65.053125 
L 104.364 76.359375 
L 104.364 76.359375 
L 104.364 76.359375 
L 104.364 63.703125 
L 104.922 80.409375 
L 104.922 65.559375 
L 104.922 65.559375 
L 104.922 65.559375 
L 104.922 81.928125 
L 105.48 71.128125 
L 105.48 68.765625 
L 105.48 68.765625 
L 105.48 68.765625 
L 105.48 73.659375 
L 106.038 64.209375 
L 106.038 77.034375 
L 106.596 63.28125 
L 106.596 80.578125 
L 106.596 66.909375 
L 107.154 80.071875 
L 107.154 66.571875 
L 107.712 75.009375 
L 107.712 63.534375 
L 107.712 63.534375 
L 107.712 63.534375 
L 107.712 78.046875 
L 108.27 63.534375 
L 108.27 81.759375 
L 108.27 69.271875 
L 108.828 70.453125 
L 108.828 74.08125 
L 108.828 74.08125 
L 108.828 74.08125 
L 108.828 64.884375 
L 109.386 76.95 
L 109.386 63.028125 
L 109.386 63.028125 
L 109.386 63.028125 
L 109.386 79.14375 
L 109.944 65.30625 
L 109.944 81.759375 
L 109.944 69.609375 
L 110.502 68.259375 
L 110.502 75.009375 
L 110.502 75.009375 
L 110.502 75.009375 
L 110.502 63.871875 
L 111.06 77.371875 
L 111.06 64.378125 
L 111.06 64.378125 
L 111.06 64.378125 
L 111.06 81.253125 
L 111.618 68.259375 
L 111.618 73.996875 
L 112.176 64.378125 
L 112.176 78.215625 
L 112.176 78.215625 
L 112.176 78.215625 
L 112.176 63.534375 
L 112.734 82.096875 
L 112.734 67.921875 
L 113.292 76.021875 
L 113.292 63.534375 
L 113.85 78.553125 
L 113.85 65.98125 
L 113.85 77.878125 
L 114.408 70.959375 
L 114.408 65.053125 
L 114.408 65.053125 
L 114.408 65.053125 
L 114.408 76.865625 
L 114.966 62.4375 
L 114.966 81.084375 
L 114.966 68.259375 
L 115.524 67.921875 
L 115.524 73.996875 
L 115.524 73.996875 
L 115.524 73.996875 
L 115.524 64.040625 
L 116.082 79.903125 
L 116.082 65.053125 
L 116.082 65.053125 
L 116.082 65.053125 
L 116.082 81.253125 
L 116.64 72.309375 
L 116.64 65.053125 
L 116.64 65.053125 
L 116.64 65.053125 
L 116.64 76.696875 
L 117.198 63.196875 
L 117.198 80.746875 
L 117.756 66.31875 
L 117.756 75.346875 
L 118.314 62.184375 
L 118.314 80.409375 
L 118.314 66.571875 
L 118.872 69.609375 
L 118.872 73.490625 
L 118.872 73.490625 
L 118.872 73.490625 
L 118.872 64.040625 
L 119.43 80.409375 
L 119.43 65.475 
L 119.43 76.10625 
L 119.988 73.2375 
L 119.988 64.209375 
L 120.546 78.215625 
L 120.546 64.29375 
L 120.546 64.29375 
L 120.546 64.29375 
L 120.546 80.746875 
L 121.104 70.453125 
L 121.104 64.884375 
L 121.104 64.884375 
L 121.104 64.884375 
L 121.104 77.034375 
L 121.662 64.96875 
L 121.662 81.928125 
L 121.662 70.284375 
L 122.22 64.378125 
L 122.22 77.371875 
L 122.778 62.859375 
L 122.778 79.903125 
L 122.778 70.5375 
L 123.336 63.534375 
L 123.336 78.046875 
L 123.336 78.046875 
L 123.336 78.046875 
L 123.336 62.775 
L 123.894 78.13125 
L 123.894 64.884375 
L 124.452 79.059375 
L 124.452 64.125 
L 125.01 79.734375 
L 125.01 64.040625 
L 125.568 78.215625 
L 125.568 65.98125 
L 125.568 72.309375 
L 126.126 74.75625 
L 126.126 63.028125 
L 126.126 63.028125 
L 126.126 63.028125 
L 126.126 79.396875 
L 126.684 67.246875 
L 127.242 74.5875 
L 127.242 62.690625 
L 127.242 62.690625 
L 127.242 62.690625 
L 127.242 80.49375 
L 127.8 69.69375 
L 127.8 65.896875 
L 127.8 65.896875 
L 127.8 65.896875 
L 127.8 76.359375 
L 128.358 63.61875 
L 128.358 80.240625 
L 128.916 70.959375 
L 128.916 63.7875 
L 128.916 63.7875 
L 128.916 63.7875 
L 128.916 78.721875 
L 129.474 66.909375 
L 129.474 68.934375 
L 129.474 74.165625 
L 130.032 62.521875 
L 130.032 80.409375 
L 130.59 69.271875 
L 130.59 64.546875 
L 130.59 64.546875 
L 130.59 64.546875 
L 130.59 77.45625 
L 131.148 66.065625 
L 131.148 73.321875 
L 131.706 62.690625 
L 131.706 80.071875 
L 132.264 68.596875 
L 132.264 65.390625 
L 132.264 65.390625 
L 132.264 65.390625 
L 132.264 77.203125 
L 132.822 66.571875 
L 132.822 74.334375 
L 132.822 72.646875 
L 133.38 62.60625 
L 133.38 79.9875 
L 133.938 68.259375 
L 133.938 65.896875 
L 133.938 65.896875 
L 133.938 65.896875 
L 133.938 76.865625 
L 134.496 65.559375 
L 134.496 74.503125 
L 134.496 72.984375 
L 135.054 62.60625 
L 135.054 80.240625 
L 135.612 65.559375 
L 135.612 77.11875 
L 136.17 66.234375 
L 136.17 73.659375 
L 136.728 62.184375 
L 136.728 81.16875 
L 137.286 71.971875 
L 137.286 63.703125 
L 137.286 63.703125 
L 137.286 63.703125 
L 137.286 79.396875 
L 137.844 69.103125 
L 137.844 65.559375 
L 138.402 76.528125 
L 138.402 64.546875 
L 138.402 71.803125 
L 138.96 75.684375 
L 138.96 62.521875 
L 138.96 62.521875 
L 138.96 62.521875 
L 138.96 81.421875 
L 139.518 72.140625 
L 139.518 63.365625 
L 140.076 81.675 
L 140.076 64.8 
L 140.634 79.734375 
L 140.634 66.4875 
L 141.192 65.475 
L 141.192 77.203125 
L 141.192 77.203125 
L 141.192 77.203125 
L 141.192 63.871875 
L 141.75 68.175 
L 141.75 75.178125 
L 142.308 61.425 
L 142.308 76.696875 
L 142.308 72.478125 
L 142.866 62.859375 
L 142.866 81.253125 
L 143.424 70.621875 
L 143.424 63.534375 
L 143.424 63.534375 
L 143.424 63.534375 
L 143.424 80.071875 
L 143.982 70.284375 
L 143.982 64.378125 
L 143.982 64.378125 
L 143.982 64.378125 
L 143.982 78.80625 
L 144.54 65.559375 
L 145.098 79.734375 
L 145.098 66.234375 
L 145.098 67.246875 
L 145.656 77.45625 
L 145.656 64.4625 
L 146.214 67.66875 
L 146.214 76.10625 
L 146.214 76.10625 
L 146.214 76.10625 
L 146.214 63.703125 
L 146.772 68.090625 
L 146.772 75.76875 
L 147.33 65.728125 
L 147.33 74.671875 
L 147.888 63.534375 
L 147.888 72.984375 
L 148.446 75.515625 
L 148.446 62.859375 
L 148.446 62.859375 
L 148.446 62.859375 
L 148.446 76.359375 
L 149.004 74.840625 
L 149.004 62.353125 
L 149.562 71.971875 
L 149.562 74.08125 
L 149.562 74.08125 
L 149.562 74.08125 
L 149.562 62.184375 
L 150.12 73.9125 
L 150.678 64.378125 
L 150.678 74.334375 
L 150.678 73.490625 
L 151.236 63.028125 
L 151.236 74.334375 
L 151.794 75.684375 
L 151.794 62.859375 
L 151.794 74.165625 
L 152.352 75.009375 
L 152.352 63.028125 
L 152.91 68.934375 
L 152.91 75.684375 
L 153.468 63.196875 
L 153.468 74.41875 
L 154.026 64.546875 
L 154.026 69.778125 
L 154.584 74.41875 
L 154.584 63.871875 
L 154.584 69.69375 
L 155.142 77.034375 
L 155.142 64.63125 
L 155.7 66.15 
L 155.7 77.371875 
L 155.7 77.371875 
L 155.7 77.371875 
L 155.7 65.559375 
L 156.258 64.884375 
L 156.258 78.721875 
L 156.816 68.934375 
L 156.816 64.29375 
L 156.816 64.29375 
L 156.816 64.29375 
L 156.816 79.734375 
L 157.374 69.609375 
L 157.374 63.61875 
L 157.932 82.51875 
L 157.932 71.296875 
L 158.49 62.521875 
L 158.49 82.096875 
L 158.49 71.803125 
L 159.048 62.184375 
L 159.048 76.190625 
L 159.606 74.165625 
L 159.606 63.365625 
L 159.606 71.296875 
L 160.164 76.696875 
L 160.164 64.63125 
L 160.722 65.98125 
L 160.722 78.384375 
L 160.722 66.909375 
L 161.28 64.29375 
L 161.28 80.071875 
L 161.838 71.296875 
L 161.838 63.196875 
L 162.396 80.915625 
L 162.396 62.521875 
L 162.954 70.03125 
L 162.954 75.684375 
L 163.512 67.921875 
L 163.512 66.234375 
L 164.07 77.709375 
L 164.07 63.7875 
L 164.628 81.928125 
L 164.628 71.71875 
L 165.186 63.534375 
L 165.186 74.671875 
L 165.744 65.053125 
L 165.744 66.65625 
L 166.302 79.396875 
L 166.302 68.259375 
L 166.86 64.209375 
L 166.86 81.928125 
L 166.86 72.05625 
L 167.418 63.028125 
L 167.418 70.621875 
L 167.976 77.371875 
L 167.976 66.234375 
L 168.534 65.8125 
L 168.534 80.409375 
L 168.534 70.284375 
L 169.092 62.521875 
L 169.092 75.009375 
L 169.65 76.021875 
L 169.65 65.221875 
L 170.208 65.98125 
L 170.208 79.734375 
L 170.208 69.103125 
L 170.766 62.859375 
L 170.766 78.046875 
L 171.324 75.515625 
L 171.324 64.884375 
L 171.882 65.896875 
L 171.882 79.734375 
L 171.882 69.271875 
L 172.44 62.94375 
L 172.44 79.396875 
L 172.998 75.43125 
L 172.998 64.96875 
L 173.556 65.390625 
L 173.556 80.240625 
L 173.556 69.1875 
L 174.114 62.859375 
L 174.114 74.334375 
L 174.672 76.696875 
L 174.672 65.896875 
L 175.23 64.040625 
L 175.23 81.084375 
L 175.788 71.8875 
L 175.788 63.028125 
L 175.788 69.778125 
L 176.346 78.384375 
L 176.346 67.584375 
L 176.904 62.859375 
L 176.904 81.253125 
L 177.462 75.853125 
L 177.462 64.8 
L 177.462 65.559375 
L 178.02 80.071875 
L 178.02 69.35625 
L 178.578 62.353125 
L 178.578 72.309375 
L 179.136 77.540625 
L 179.136 66.99375 
L 179.694 64.125 
L 179.694 82.603125 
L 179.694 73.490625 
L 180.252 65.221875 
L 180.252 65.559375 
L 180.81 81.421875 
L 180.81 71.71875 
L 181.368 64.125 
L 181.368 67.33125 
L 181.926 79.14375 
L 181.926 63.196875 
L 182.484 71.128125 
L 182.484 76.528125 
L 183.042 67.921875 
L 183.042 63.534375 
L 183.6 75.346875 
L 184.158 67.584375 
L 184.158 63.871875 
L 184.158 63.871875 
L 184.158 63.871875 
L 184.158 82.265625 
L 184.716 73.659375 
L 184.716 64.546875 
L 185.274 64.546875 
L 185.274 81.16875 
L 185.832 73.828125 
L 185.832 64.209375 
L 187.506 65.64375 
L 187.506 75.515625 
L 187.506 72.140625 
L 188.064 70.875 
L 188.064 69.609375 
L 188.064 69.609375 
L 188.064 69.609375 
L 188.064 83.109375 
L 188.622 66.15 
L 188.622 82.096875 
L 188.622 82.096875 
L 188.622 82.096875 
L 188.622 64.29375 
L 188.622 78.721875 
L 189.18 64.63125 
L 189.18 76.696875 
L 189.18 73.2375 
L 189.738 68.175 
L 189.738 73.2375 
L 190.296 69.440625 
L 190.296 83.446875 
L 190.296 83.446875 
L 190.296 83.446875 
L 190.296 67.1625 
L 190.296 81.084375 
L 190.854 66.15 
L 190.854 80.240625 
L 190.854 80.240625 
L 190.854 80.240625 
L 190.854 64.546875 
L 191.412 76.865625 
L 191.412 64.715625 
L 191.412 66.571875 
L 191.97 74.503125 
L 191.97 68.175 
L 191.97 72.309375 
L 192.528 73.74375 
L 192.528 71.55 
L 192.528 71.55 
L 192.528 71.55 
L 192.528 77.540625 
L 192.528 77.540625 
L 192.528 77.540625 
L 192.528 68.765625 
L 193.086 83.278125 
L 193.086 67.1625 
L 193.086 81.084375 
L 193.644 64.4625 
L 193.644 80.578125 
L 193.644 80.578125 
L 193.644 80.578125 
L 193.644 64.209375 
L 193.644 78.384375 
L 194.202 65.221875 
L 194.202 77.878125 
L 194.202 77.878125 
L 194.202 77.878125 
L 194.202 64.96875 
L 194.76 75.853125 
L 194.76 65.221875 
L 194.76 67.078125 
L 195.318 75.684375 
L 195.318 67.584375 
L 195.318 72.984375 
L 195.876 70.284375 
L 195.876 72.478125 
L 195.876 70.621875 
L 196.434 70.959375 
L 196.434 70.875 
L 196.434 78.721875 
L 196.992 70.115625 
L 196.992 78.890625 
L 196.992 78.890625 
L 196.992 78.890625 
L 196.992 68.765625 
L 197.55 83.278125 
L 197.55 67.415625 
L 198.108 84.121875 
L 198.108 67.584375 
L 198.108 82.096875 
L 198.666 65.64375 
L 198.666 81.84375 
L 198.666 65.896875 
L 199.224 80.578125 
L 199.224 66.065625 
L 199.224 66.065625 
L 199.224 66.065625 
L 199.224 81.084375 
L 199.224 81.084375 
L 199.224 81.084375 
L 199.224 64.96875 
L 199.782 82.265625 
L 199.782 66.065625 
L 199.782 81.084375 
L 200.34 64.715625 
L 200.34 81.084375 
L 200.34 64.8 
L 200.898 80.409375 
L 200.898 65.896875 
L 200.898 65.896875 
L 200.898 65.896875 
L 200.898 80.746875 
L 200.898 80.746875 
L 200.898 80.746875 
L 200.898 65.221875 
L 201.456 82.434375 
L 201.456 66.571875 
L 201.456 81.421875 
L 202.014 67.921875 
L 202.014 82.603125 
L 202.014 82.603125 
L 202.014 82.603125 
L 202.014 66.825 
L 202.572 81.16875 
L 202.572 67.584375 
L 202.572 67.584375 
L 202.572 67.584375 
L 202.572 82.603125 
L 203.13 67.415625 
L 203.13 82.434375 
L 203.688 70.959375 
L 204.246 69.103125 
L 204.246 72.984375 
L 204.246 72.984375 
L 204.246 72.984375 
L 204.246 68.428125 
L 204.804 72.984375 
L 204.804 66.234375 
L 204.804 66.234375 
L 204.804 66.234375 
L 204.804 74.840625 
L 205.362 65.559375 
L 205.362 76.021875 
L 205.362 76.021875 
L 205.362 76.021875 
L 205.362 65.390625 
L 205.362 65.390625 
L 205.362 65.390625 
L 205.362 76.021875 
L 205.92 63.871875 
L 205.92 77.034375 
L 205.92 64.040625 
L 206.478 79.396875 
L 206.478 63.45 
L 206.478 63.45 
L 206.478 63.45 
L 206.478 79.734375 
L 207.036 67.1625 
L 207.036 82.265625 
L 207.036 82.265625 
L 207.036 82.265625 
L 207.036 66.825 
L 207.594 77.2875 
L 207.594 69.8625 
L 207.594 73.2375 
L 208.152 72.39375 
L 208.152 67.66875 
L 208.152 67.66875 
L 208.152 67.66875 
L 208.152 73.659375 
L 208.71 64.546875 
L 208.71 76.359375 
L 208.71 64.715625 
L 209.268 77.034375 
L 209.268 63.703125 
L 209.268 63.703125 
L 209.268 63.703125 
L 209.268 77.709375 
L 209.826 63.703125 
L 209.826 80.915625 
L 210.384 68.596875 
L 210.384 77.709375 
L 210.384 70.115625 
L 210.942 67.753125 
L 210.942 73.321875 
L 210.942 73.321875 
L 210.942 73.321875 
L 210.942 66.403125 
L 211.5 77.034375 
L 211.5 64.125 
L 211.5 64.125 
L 211.5 64.125 
L 211.5 77.203125 
L 212.058 63.534375 
L 212.058 79.3125 
L 212.058 64.546875 
L 212.616 83.109375 
L 212.616 68.934375 
L 212.616 76.021875 
L 213.174 72.815625 
L 213.174 67.1625 
L 213.174 67.1625 
L 213.174 67.1625 
L 213.174 74.334375 
L 213.732 65.221875 
L 213.732 77.034375 
L 213.732 77.034375 
L 213.732 77.034375 
L 213.732 63.61875 
L 214.29 80.240625 
L 214.29 64.884375 
L 214.29 64.884375 
L 214.29 64.884375 
L 214.29 81.16875 
L 214.848 69.609375 
L 214.848 72.478125 
L 214.848 71.634375 
L 215.406 66.571875 
L 215.406 75.2625 
L 215.406 75.2625 
L 215.406 75.2625 
L 215.406 64.546875 
L 215.964 78.721875 
L 215.964 63.028125 
L 215.964 63.028125 
L 215.964 63.028125 
L 215.964 79.734375 
L 216.522 67.921875 
L 216.522 79.228125 
L 216.522 70.284375 
L 217.08 67.584375 
L 217.08 74.503125 
L 217.08 74.503125 
L 217.08 74.503125 
L 217.08 64.8 
L 217.638 78.721875 
L 217.638 63.196875 
L 217.638 63.196875 
L 217.638 63.196875 
L 217.638 79.734375 
L 218.196 68.259375 
L 218.196 78.553125 
L 218.196 70.284375 
L 218.754 66.909375 
L 218.754 74.671875 
L 218.754 74.671875 
L 218.754 74.671875 
L 218.754 64.546875 
L 219.312 79.14375 
L 219.312 63.196875 
L 219.312 63.196875 
L 219.312 63.196875 
L 219.312 80.071875 
L 219.87 68.68125 
L 219.87 72.984375 
L 219.87 71.634375 
L 220.428 65.221875 
L 220.428 76.190625 
L 220.428 76.190625 
L 220.428 76.190625 
L 220.428 63.534375 
L 220.986 80.240625 
L 220.986 65.559375 
L 220.986 65.559375 
L 220.986 65.559375 
L 220.986 82.096875 
L 221.544 71.634375 
L 221.544 66.740625 
L 221.544 66.740625 
L 221.544 66.740625 
L 221.544 74.925 
L 222.102 63.28125 
L 222.102 78.721875 
L 222.66 64.209375 
L 222.66 81.84375 
L 222.66 69.440625 
L 223.218 69.103125 
L 223.218 73.659375 
L 223.218 73.659375 
L 223.218 73.659375 
L 223.218 64.63125 
L 223.776 76.275 
L 223.776 62.775 
L 223.776 62.775 
L 223.776 62.775 
L 223.776 80.071875 
L 224.334 66.571875 
L 224.334 72.646875 
L 224.892 65.475 
L 224.892 77.45625 
L 224.892 77.45625 
L 224.892 77.45625 
L 224.892 62.690625 
L 225.45 82.096875 
L 225.45 69.01875 
L 225.45 69.271875 
L 226.008 75.515625 
L 226.008 63.703125 
L 226.008 63.703125 
L 226.008 63.703125 
L 226.008 78.384375 
L 226.566 65.221875 
L 226.566 80.49375 
L 226.566 70.453125 
L 227.124 65.221875 
L 227.124 76.359375 
L 227.682 63.196875 
L 227.682 79.734375 
L 227.682 65.896875 
L 228.24 78.046875 
L 228.24 65.390625 
L 228.798 77.034375 
L 228.798 63.028125 
L 228.798 63.028125 
L 228.798 63.028125 
L 228.798 80.240625 
L 229.356 68.090625 
L 229.356 73.996875 
L 229.914 63.28125 
L 229.914 79.059375 
L 229.914 65.559375 
L 230.472 70.621875 
L 230.472 72.984375 
L 230.472 72.984375 
L 230.472 72.984375 
L 230.472 64.546875 
L 231.03 78.721875 
L 231.03 63.534375 
L 231.588 79.059375 
L 231.588 66.234375 
L 232.146 77.709375 
L 232.146 62.690625 
L 232.146 62.690625 
L 232.146 62.690625 
L 232.146 80.409375 
L 232.704 71.04375 
L 232.704 66.65625 
L 232.704 66.65625 
L 232.704 66.65625 
L 232.704 75.346875 
L 233.262 62.690625 
L 233.262 80.409375 
L 233.262 68.090625 
L 233.82 68.259375 
L 233.82 74.334375 
L 234.378 63.28125 
L 234.378 80.746875 
L 234.378 66.571875 
L 234.936 67.921875 
L 234.936 74.503125 
L 234.936 74.503125 
L 234.936 74.503125 
L 234.936 63.365625 
L 235.494 80.578125 
L 235.494 67.584375 
L 235.494 69.103125 
L 236.052 75.009375 
L 236.052 63.196875 
L 236.61 79.3125 
L 236.61 67.921875 
L 236.61 68.428125 
L 237.168 76.359375 
L 237.168 62.859375 
L 237.168 62.859375 
L 237.168 62.859375 
L 237.168 80.409375 
L 237.726 69.778125 
L 237.726 65.728125 
L 237.726 65.728125 
L 237.726 65.728125 
L 237.726 75.76875 
L 238.284 63.365625 
L 238.284 81.590625 
L 238.842 72.309375 
L 238.842 64.209375 
L 238.842 64.209375 
L 238.842 64.209375 
L 238.842 77.79375 
L 239.4 65.559375 
L 239.4 72.984375 
L 239.958 63.196875 
L 239.958 79.734375 
L 240.516 66.909375 
L 240.516 67.66875 
L 240.516 75.09375 
L 241.074 62.26875 
L 241.074 80.6625 
L 241.074 69.1875 
L 241.632 64.209375 
L 241.632 78.046875 
L 242.19 64.209375 
L 242.19 73.06875 
L 242.748 63.028125 
L 242.748 79.81875 
L 242.748 67.921875 
L 243.306 65.221875 
L 243.306 77.11875 
L 243.864 63.7875 
L 243.864 76.528125 
L 243.864 71.971875 
L 244.422 63.28125 
L 244.422 79.734375 
L 244.422 67.246875 
L 244.98 65.728125 
L 244.98 76.696875 
L 245.538 64.546875 
L 245.538 75.76875 
L 245.538 72.309375 
L 246.096 62.859375 
L 246.096 79.903125 
L 246.096 68.090625 
L 246.654 65.896875 
L 246.654 76.78125 
L 247.212 65.475 
L 247.212 73.996875 
L 247.212 72.984375 
L 247.77 62.521875 
L 247.77 80.746875 
L 247.77 68.934375 
L 248.328 64.546875 
L 248.328 78.215625 
L 248.886 67.584375 
L 248.886 68.00625 
L 248.886 75.346875 
L 249.444 63.28125 
L 249.444 78.553125 
L 250.002 74.165625 
L 250.002 63.028125 
L 250.002 63.028125 
L 250.002 63.028125 
L 250.002 80.409375 
L 250.56 70.284375 
L 250.56 64.546875 
L 250.56 64.546875 
L 250.56 64.546875 
L 250.56 78.384375 
L 251.118 66.234375 
L 251.118 67.753125 
L 251.676 77.203125 
L 251.676 63.534375 
L 251.676 76.190625 
L 252.234 73.828125 
L 252.234 62.690625 
L 252.792 82.434375 
L 252.792 63.703125 
L 253.35 81.084375 
L 253.35 68.934375 
L 253.908 65.221875 
L 253.908 79.059375 
L 253.908 66.234375 
L 254.466 65.053125 
L 254.466 77.79375 
L 255.024 64.125 
L 255.024 75.684375 
L 255.582 64.040625 
L 255.582 73.2375 
L 256.14 62.60625 
L 256.14 81.50625 
L 256.698 72.984375 
L 256.698 62.775 
L 256.698 62.775 
L 256.698 62.775 
L 256.698 80.83125 
L 257.256 69.8625 
L 257.256 63.95625 
L 257.814 82.434375 
L 257.814 64.884375 
L 258.372 79.903125 
L 258.372 67.246875 
L 258.93 65.221875 
L 258.93 78.384375 
L 258.93 65.8125 
L 259.488 65.221875 
L 259.488 78.046875 
L 260.046 69.440625 
L 260.046 66.234375 
L 260.046 66.234375 
L 260.046 66.234375 
L 260.046 77.371875 
L 260.604 66.065625 
L 260.604 66.825 
L 261.162 79.059375 
L 261.162 65.559375 
L 261.162 67.753125 
L 261.72 78.046875 
L 261.72 64.884375 
L 262.278 66.31875 
L 262.278 77.203125 
L 262.278 77.203125 
L 262.278 77.203125 
L 262.278 64.4625 
L 262.836 66.571875 
L 262.836 77.034375 
L 263.394 66.909375 
L 263.394 66.909375 
L 263.394 77.034375 
L 263.952 64.884375 
L 263.952 68.259375 
L 264.51 77.878125 
L 264.51 64.884375 
L 264.51 67.246875 
L 265.068 76.865625 
L 265.068 64.125 
L 265.626 66.403125 
L 265.626 77.034375 
L 265.626 77.034375 
L 265.626 77.034375 
L 265.626 64.125 
L 266.184 67.246875 
L 266.184 76.696875 
L 266.742 66.065625 
L 266.742 66.571875 
L 266.742 77.034375 
L 267.3 65.8125 
L 267.858 79.734375 
L 267.858 67.584375 
L 268.416 64.96875 
L 268.416 80.071875 
L 268.416 68.5125 
L 268.974 63.534375 
L 268.974 80.83125 
L 269.532 72.309375 
L 269.532 62.859375 
L 269.532 62.859375 
L 269.532 62.859375 
L 269.532 81.928125 
L 270.09 71.971875 
L 270.09 62.690625 
L 270.648 74.334375 
L 270.648 73.996875 
L 270.648 62.775 
L 271.206 107.409375 
L 271.764 124.284375 
L 271.764 133.059375 
L 272.322 141.75 
L 272.322 166.134375 
L 272.88 173.1375 
L 272.88 193.303125 
L 273.438 200.221875 
L 273.438 210.9375 
L 273.996 216.084375 
L 273.996 231.1875 
L 274.554 236.671875 
L 274.554 244.771875 
L 275.112 248.821875 
L 275.112 260.296875 
L 275.67 264.346875 
L 275.67 274.134375 
L 276.228 277.59375 
L 276.228 283.33125 
L 276.786 286.5375 
L 276.786 294.6375 
L 277.344 297.421875 
L 277.344 302.23125 
L 277.902 304.846875 
L 277.902 311.428125 
L 278.46 313.621875 
L 278.46 317.5875 
L 279.018 319.865625 
L 279.018 323.409375 
L 279.576 325.096875 
L 279.576 330.24375 
L 280.134 332.1 
L 280.134 334.96875 
L 280.692 336.403125 
L 280.692 340.790625 
L 281.25 342.309375 
L 281.25 344.75625 
L 281.808 345.9375 
L 281.808 349.565625 
L 282.366 350.746875 
L 282.366 352.85625 
L 282.924 354.121875 
L 282.924 355.978125 
L 283.482 356.821875 
L 283.482 359.60625 
L 284.04 360.534375 
L 284.04 362.1375 
L 284.598 363.065625 
L 284.598 364.5 
L 285.156 365.259375 
L 285.156 367.284375 
L 285.714 368.04375 
L 285.714 369.225 
L 286.272 369.984375 
L 286.272 371.08125 
L 286.83 371.5875 
L 286.83 373.190625 
L 287.388 373.78125 
L 287.388 374.709375 
L 287.946 375.215625 
L 287.946 376.059375 
L 288.504 376.48125 
L 288.504 377.6625 
L 289.062 378.084375 
L 289.062 378.759375 
L 289.62 379.18125 
L 289.62 379.771875 
L 290.178 380.109375 
L 290.178 380.7 
L 290.736 380.953125 
L 290.736 381.796875 
L 291.294 382.05 
L 291.294 382.55625 
L 291.852 382.809375 
L 291.852 383.23125 
L 292.41 383.484375 
L 292.41 383.821875 
L 292.968 383.990625 
L 292.968 384.4125 
L 293.526 384.496875 
L 293.526 385.003125 
L 294.084 385.171875 
L 294.084 385.340625 
L 294.084 385.340625 
L 294.084 385.340625 
L 294.084 384.328125 
L 294.642 384.496875 
L 294.642 384.834375 
L 295.2 385.003125 
L 295.2 385.340625 
L 295.758 383.653125 
L 295.758 383.90625 
L 295.758 384.159375 
L 296.316 384.328125 
L 296.316 384.75 
L 296.874 384.91875 
L 296.874 385.425 
L 297.432 383.653125 
L 297.432 383.821875 
L 297.432 384.075 
L 297.99 384.328125 
L 297.99 384.75 
L 298.548 384.91875 
L 298.548 385.25625 
L 299.106 383.990625 
L 299.106 384.159375 
L 299.106 384.4125 
L 299.664 384.58125 
L 299.664 385.003125 
L 300.222 385.171875 
L 300.222 385.340625 
L 300.222 385.340625 
L 300.222 385.340625 
L 300.222 384.075 
L 300.78 384.328125 
L 300.78 384.75 
L 301.338 384.91875 
L 301.338 385.25625 
L 301.896 384.075 
L 301.896 384.328125 
L 301.896 384.58125 
L 302.454 384.75 
L 302.454 385.0875 
L 303.012 385.25625 
L 303.012 383.7375 
L 303.012 384.24375 
L 303.57 384.496875 
L 303.57 384.834375 
L 304.128 385.0875 
L 304.128 385.25625 
L 304.128 385.25625 
L 304.128 385.25625 
L 304.128 384.665625 
L 304.686 384.834375 
L 304.686 385.25625 
L 305.244 385.171875 
L 305.244 384.4125 
L 305.244 384.58125 
L 305.802 384.834375 
L 305.802 385.171875 
L 306.36 385.425 
L 306.36 383.821875 
L 306.36 384.075 
L 306.918 384.328125 
L 306.918 384.75 
L 307.476 384.91875 
L 307.476 385.171875 
L 307.476 385.171875 
L 308.034 385.425 
L 308.034 383.7375 
L 308.034 383.990625 
L 308.592 384.24375 
L 308.592 384.665625 
L 309.15 384.834375 
L 309.15 385.25625 
L 309.708 385.425 
L 309.708 383.56875 
L 309.708 383.821875 
L 310.266 384.075 
L 310.266 384.496875 
L 310.824 384.75 
L 310.824 385.171875 
L 311.382 385.340625 
L 311.382 383.90625 
L 311.382 384.159375 
L 311.94 384.4125 
L 311.94 384.665625 
L 312.498 384.834375 
L 312.498 385.25625 
L 313.056 384.4125 
L 313.056 384.834375 
L 313.614 385.0875 
L 313.614 385.25625 
L 313.614 385.25625 
L 313.614 385.25625 
L 313.614 384.24375 
L 314.172 384.496875 
L 314.172 384.91875 
L 314.73 385.171875 
L 314.73 384.91875 
L 314.73 384.91875 
L 314.73 384.91875 
L 314.73 385.171875 
L 315.288 385.25625 
L 315.288 385.425 
L 315.288 385.425 
L 315.288 385.425 
L 315.288 383.653125 
L 315.846 383.990625 
L 315.846 384.4125 
L 316.404 384.665625 
L 316.404 384.91875 
L 316.962 385.0875 
L 316.962 385.340625 
L 316.962 385.340625 
L 316.962 385.340625 
L 316.962 383.56875 
L 317.52 383.90625 
L 317.52 384.328125 
L 318.078 384.58125 
L 318.078 385.003125 
L 318.636 385.25625 
L 318.636 385.425 
L 318.636 385.425 
L 318.636 385.425 
L 318.636 383.484375 
L 319.194 383.821875 
L 319.194 384.328125 
L 319.752 384.58125 
L 319.752 384.75 
L 320.31 385.003125 
L 320.31 385.171875 
L 320.31 385.171875 
L 320.31 385.171875 
L 320.31 383.653125 
L 320.868 383.990625 
L 320.868 384.496875 
L 321.426 384.75 
L 321.426 385.171875 
L 321.984 384.58125 
L 321.984 385.003125 
L 322.542 385.25625 
L 323.1 383.990625 
L 323.1 384.24375 
L 323.1 384.496875 
L 323.658 384.75 
L 323.658 385.171875 
L 324.216 385.425 
L 324.216 383.7375 
L 324.216 383.990625 
L 324.774 384.328125 
L 324.774 384.496875 
L 325.332 384.834375 
L 325.332 385.171875 
L 325.89 385.425 
L 325.89 383.484375 
L 325.89 383.821875 
L 326.448 384.075 
L 326.448 384.58125 
L 327.006 384.834375 
L 327.006 385.0875 
L 327.564 385.25625 
L 327.564 383.653125 
L 327.564 383.90625 
L 328.122 384.24375 
L 328.122 384.665625 
L 328.68 384.91875 
L 328.68 385.171875 
L 328.68 385.171875 
L 328.68 385.171875 
L 328.68 384.91875 
L 329.238 385.0875 
L 329.238 385.340625 
L 329.796 383.484375 
L 329.796 383.821875 
L 329.796 384.075 
L 330.354 384.328125 
L 330.354 384.834375 
L 330.912 385.0875 
L 330.912 385.25625 
L 331.47 383.56875 
L 331.47 383.821875 
L 331.47 384.075 
L 332.028 384.4125 
L 332.028 384.834375 
L 332.586 385.0875 
L 332.586 385.340625 
L 333.144 383.4 
L 333.144 383.7375 
L 333.144 383.990625 
L 333.702 384.24375 
L 333.702 384.75 
L 334.26 385.003125 
L 334.26 385.171875 
L 334.818 383.821875 
L 334.818 384.075 
L 334.818 384.328125 
L 335.376 384.58125 
L 335.376 385.0875 
L 335.934 385.25625 
L 335.934 384.24375 
L 336.492 384.58125 
L 336.492 385.003125 
L 337.05 385.25625 
L 337.05 385.171875 
L 337.608 384.91875 
L 337.608 385.340625 
L 338.166 383.56875 
L 338.166 383.90625 
L 338.166 384.159375 
L 338.724 384.496875 
L 338.724 384.665625 
L 339.282 384.91875 
L 339.282 385.340625 
L 339.84 383.484375 
L 339.84 383.821875 
L 340.398 384.075 
L 340.398 384.58125 
L 340.956 384.834375 
L 340.956 385.340625 
L 341.514 383.7375 
L 341.514 384.075 
L 342.072 384.328125 
L 342.072 384.834375 
L 342.63 385.0875 
L 342.63 384.834375 
L 343.188 385.0875 
L 343.188 385.340625 
L 344.304 384.834375 
L 344.862 385.003125 
L 344.862 385.340625 
L 344.862 385.340625 
L 344.862 385.340625 
L 344.862 383.7375 
L 345.42 383.990625 
L 345.42 384.328125 
L 345.978 384.496875 
L 345.978 385.0875 
L 346.536 385.25625 
L 346.536 384.496875 
L 346.536 384.834375 
L 347.094 385.003125 
L 347.094 385.340625 
L 347.652 385.25625 
L 347.652 383.56875 
L 347.652 383.990625 
L 348.21 384.24375 
L 348.21 384.58125 
L 348.768 384.75 
L 348.768 385.25625 
L 349.326 383.821875 
L 349.326 383.990625 
L 349.326 384.24375 
L 349.884 384.4125 
L 349.884 385.003125 
L 350.442 385.171875 
L 350.442 385.340625 
L 350.442 385.340625 
L 350.442 385.340625 
L 350.442 383.990625 
L 351 384.159375 
L 351 384.75 
L 351.558 385.0875 
L 351.558 385.340625 
L 352.116 383.7375 
L 352.116 383.990625 
L 352.116 384.159375 
L 352.674 384.4125 
L 352.674 384.75 
L 353.232 384.91875 
L 353.232 385.425 
L 353.79 383.484375 
L 353.79 383.7375 
L 353.79 383.990625 
L 354.348 384.159375 
L 354.348 384.75 
L 354.906 384.91875 
L 354.906 385.25625 
L 355.464 383.653125 
L 355.464 383.90625 
L 355.464 384.24375 
L 356.022 384.496875 
L 356.022 384.834375 
L 356.58 385.171875 
L 356.58 385.171875 
L 357.138 383.90625 
L 357.138 384.159375 
L 357.138 384.58125 
L 357.696 384.75 
L 357.696 385.0875 
L 358.254 385.25625 
L 358.254 385.425 
L 358.254 385.425 
L 358.254 385.425 
L 358.254 383.821875 
L 358.812 384.075 
L 358.812 384.665625 
L 359.37 384.834375 
L 359.37 385.171875 
L 359.928 385.171875 
L 359.928 385.25625 
L 359.928 384.496875 
L 360.486 384.665625 
L 360.486 385.25625 
L 361.044 384.75 
L 361.044 383.90625 
L 361.044 384.159375 
L 361.602 384.4125 
L 361.602 384.834375 
L 362.16 385.003125 
L 362.16 385.171875 
L 362.16 385.171875 
L 362.16 385.171875 
L 362.16 384.24375 
L 362.718 384.496875 
L 362.718 384.91875 
L 363.276 385.171875 
L 363.276 385.340625 
L 363.276 385.340625 
L 363.276 385.340625 
L 363.276 383.821875 
L 363.276 384.075 
L 363.834 384.328125 
L 363.834 384.75 
L 364.392 384.91875 
L 364.392 385.340625 
L 364.95 383.990625 
L 364.95 384.24375 
L 364.95 384.4125 
L 365.508 384.665625 
L 365.508 385.003125 
L 366.066 385.25625 
L 366.066 383.821875 
L 366.066 384.075 
L 366.624 384.328125 
L 366.624 384.91875 
L 367.182 385.0875 
L 367.182 385.340625 
L 367.182 385.340625 
L 367.182 385.340625 
L 367.182 383.990625 
L 367.74 384.24375 
L 367.74 384.665625 
L 368.298 384.834375 
L 368.298 385.25625 
L 368.856 383.56875 
L 368.856 383.90625 
L 368.856 384.159375 
L 369.414 384.4125 
L 369.414 384.834375 
L 369.972 385.003125 
L 369.972 385.171875 
L 369.972 385.171875 
L 369.972 385.171875 
L 369.972 384.91875 
L 370.53 385.171875 
L 370.53 385.509375 
L 371.088 383.653125 
L 371.088 383.821875 
L 371.088 384.075 
L 371.646 384.328125 
L 371.646 384.75 
L 372.204 385.003125 
L 372.204 385.340625 
L 372.762 383.90625 
L 372.762 384.159375 
L 372.762 384.328125 
L 373.32 384.58125 
L 373.32 385.003125 
L 373.878 385.171875 
L 373.878 384.328125 
L 373.878 384.496875 
L 374.436 384.75 
L 374.436 385.171875 
L 374.994 385.25625 
L 374.994 383.990625 
L 374.994 384.24375 
L 375.552 384.496875 
L 375.552 384.91875 
L 376.11 385.171875 
L 376.11 385.340625 
L 376.11 385.340625 
L 376.11 385.340625 
L 376.11 383.90625 
L 376.668 384.159375 
L 376.668 384.665625 
L 377.226 384.91875 
L 377.226 385.25625 
L 377.784 384.075 
L 377.784 384.328125 
L 377.784 384.58125 
L 378.342 384.834375 
L 378.342 385.171875 
L 378.9 385.425 
L 378.9 383.484375 
L 378.9 383.821875 
L 379.458 384.075 
L 379.458 384.496875 
L 380.016 384.75 
L 380.016 385.171875 
L 380.574 385.340625 
L 380.574 383.821875 
L 380.574 384.075 
L 381.132 384.328125 
L 381.132 384.75 
L 381.69 385.003125 
L 381.69 385.171875 
L 381.69 385.171875 
L 381.69 385.171875 
L 381.69 384.91875 
L 382.248 385.0875 
L 382.248 385.340625 
L 382.248 385.340625 
L 382.248 385.340625 
L 382.248 383.315625 
L 382.806 383.653125 
L 382.806 384.159375 
L 383.364 384.4125 
L 383.364 384.665625 
L 383.922 384.834375 
L 383.922 385.25625 
L 384.48 383.821875 
L 384.48 384.075 
L 384.48 384.328125 
L 385.038 384.58125 
L 385.038 385.003125 
L 385.596 385.171875 
L 385.596 384.24375 
L 385.596 384.496875 
L 386.154 384.665625 
L 386.154 385.0875 
L 386.712 384.24375 
L 386.712 384.75 
L 387.27 385.003125 
L 387.27 385.171875 
L 387.27 385.171875 
L 387.27 385.171875 
L 387.27 383.653125 
L 387.828 383.90625 
L 387.828 384.159375 
L 388.386 384.496875 
L 388.386 384.91875 
L 388.944 385.171875 
L 388.944 384.328125 
L 388.944 384.58125 
L 389.502 384.834375 
L 389.502 385.25625 
L 390.06 383.653125 
L 390.06 383.90625 
L 390.06 384.24375 
L 390.618 384.496875 
L 390.618 384.665625 
L 391.176 384.91875 
L 391.176 385.171875 
L 391.176 385.171875 
L 391.176 385.171875 
L 391.176 384.75 
L 391.734 385.003125 
L 391.734 385.171875 
L 391.734 385.171875 
L 391.734 385.171875 
L 391.734 384.665625 
L 392.292 383.90625 
L 392.292 384.4125 
L 392.85 384.665625 
L 392.85 385.171875 
L 393.408 384.75 
L 393.408 385.003125 
L 393.966 385.171875 
L 393.966 385.340625 
L 393.966 385.340625 
L 393.966 385.340625 
L 393.966 383.90625 
L 394.524 384.24375 
L 394.524 384.75 
L 395.082 384.91875 
L 395.082 385.171875 
L 395.64 384.328125 
L 395.64 384.834375 
L 396.198 385.0875 
L 396.198 385.25625 
L 396.198 385.25625 
L 396.198 385.25625 
L 396.198 383.821875 
L 396.756 384.159375 
L 396.756 384.665625 
L 397.314 384.834375 
L 397.314 385.0875 
L 397.872 385.340625 
L 397.872 383.990625 
L 397.872 384.24375 
L 398.43 384.58125 
L 398.43 385.003125 
L 398.988 385.25625 
L 398.988 383.821875 
L 398.988 384.075 
L 399.546 384.328125 
L 399.546 384.58125 
L 400.104 384.834375 
L 400.104 385.25625 
L 400.662 384.075 
L 400.662 384.328125 
L 400.662 384.58125 
L 401.22 384.834375 
L 401.22 385.0875 
L 401.778 385.25625 
L 401.778 383.821875 
L 401.778 384.075 
L 402.336 384.328125 
L 402.336 384.834375 
L 402.894 385.0875 
L 402.894 385.25625 
L 403.452 384.328125 
L 403.452 384.834375 
L 404.01 385.0875 
L 404.01 385.25625 
L 404.01 385.25625 
L 404.01 385.25625 
L 404.01 384.834375 
L 404.568 385.0875 
L 404.568 385.25625 
L 405.126 384.58125 
L 405.126 384.75 
L 405.126 385.003125 
L 405.684 385.25625 
L 405.684 383.484375 
L 406.242 383.821875 
L 406.242 384.4125 
L 406.8 384.665625 
L 406.8 385.171875 
L 407.358 385.25625 
L 407.358 383.7375 
L 407.916 384.075 
L 407.916 384.58125 
L 408.474 384.834375 
L 408.474 385.25625 
L 409.032 384.24375 
L 409.032 384.496875 
L 409.59 384.75 
L 409.59 385.171875 
L 410.148 385.425 
L 410.148 383.56875 
L 410.706 383.90625 
L 410.706 384.4125 
L 411.264 384.75 
L 411.264 385.003125 
L 411.822 385.171875 
L 411.822 385.425 
L 411.822 385.425 
L 411.822 385.425 
L 411.822 383.7375 
L 412.38 383.990625 
L 412.38 384.58125 
L 412.938 384.834375 
L 412.938 385.0875 
L 413.496 385.340625 
L 413.496 383.4 
L 413.496 383.7375 
L 414.054 384.075 
L 414.054 384.328125 
L 414.612 384.58125 
L 414.612 385.0875 
L 415.17 385.340625 
L 415.17 383.653125 
L 415.728 383.990625 
L 415.728 384.58125 
L 416.286 384.834375 
L 416.286 385.0875 
L 416.844 385.171875 
L 416.844 385.425 
L 416.844 385.425 
L 416.844 385.425 
L 416.844 383.7375 
L 417.402 384.075 
L 417.402 384.328125 
L 417.96 384.58125 
L 417.96 385.0875 
L 418.518 385.340625 
L 418.518 383.4 
L 419.076 383.7375 
L 419.076 384.328125 
L 419.634 384.58125 
L 419.634 384.834375 
L 420.192 385.0875 
L 420.192 385.340625 
L 420.192 385.340625 
L 420.192 385.340625 
L 420.192 383.821875 
L 420.75 384.159375 
L 420.75 384.4125 
L 421.308 384.665625 
L 421.308 385.171875 
L 421.866 384.58125 
L 421.866 384.834375 
L 422.424 385.0875 
L 422.424 385.25625 
L 422.424 385.25625 
L 422.424 385.25625 
L 422.424 383.4 
L 422.982 383.7375 
L 422.982 383.990625 
L 423.54 384.328125 
L 423.54 384.91875 
L 424.098 385.0875 
L 424.098 385.340625 
L 424.656 383.90625 
L 424.656 384.496875 
L 425.214 384.75 
L 425.214 385.003125 
L 425.772 385.25625 
L 425.772 384.4125 
L 425.772 384.75 
L 426.33 385.003125 
L 426.33 385.171875 
L 426.888 384.159375 
L 426.888 384.4125 
L 427.446 384.75 
L 427.446 385.171875 
L 428.004 385.171875 
L 428.004 384.665625 
L 428.562 385.003125 
L 428.562 385.25625 
L 428.562 385.25625 
L 428.562 385.25625 
L 428.562 384.24375 
L 429.12 384.496875 
L 429.12 384.834375 
L 429.678 385.0875 
L 429.678 384.496875 
L 429.678 384.834375 
L 430.236 385.0875 
L 430.236 384.496875 
L 430.794 384.834375 
L 430.794 385.0875 
L 431.352 384.75 
L 431.352 385.25625 
L 431.91 383.821875 
L 431.91 384.075 
L 432.468 384.4125 
L 432.468 385.003125 
L 433.026 385.171875 
L 433.026 384.328125 
L 433.584 384.665625 
L 433.584 384.91875 
L 434.142 385.171875 
L 434.142 384.075 
L 434.142 384.4125 
L 434.7 384.665625 
L 434.7 384.91875 
L 435.258 385.171875 
L 435.258 385.340625 
L 435.258 385.340625 
L 435.258 385.340625 
L 435.258 383.7375 
L 435.816 384.075 
L 435.816 384.4125 
L 436.374 384.665625 
L 436.374 384.91875 
L 436.932 385.171875 
L 436.932 385.171875 
L 436.932 384.665625 
L 437.49 384.91875 
L 437.49 385.171875 
L 438.048 384.665625 
L 438.048 384.91875 
L 438.606 385.25625 
L 438.606 384.665625 
L 438.606 384.91875 
L 439.164 385.171875 
L 439.164 385.340625 
L 439.722 383.653125 
L 439.722 383.90625 
L 440.28 384.24375 
L 440.28 384.834375 
L 440.838 385.0875 
L 440.838 385.340625 
L 441.396 383.484375 
L 441.396 383.821875 
L 441.954 384.159375 
L 441.954 384.75 
L 442.512 385.003125 
L 442.512 385.25625 
L 443.07 383.7375 
L 443.07 383.990625 
L 443.628 384.328125 
L 443.628 384.91875 
L 444.186 385.171875 
L 444.186 384.665625 
L 444.744 384.91875 
L 444.744 385.171875 
L 445.302 385.425 
L 445.302 383.56875 
L 445.302 383.90625 
L 445.86 384.24375 
L 445.86 384.58125 
L 446.418 384.834375 
L 446.418 385.0875 
L 446.976 385.340625 
L 446.976 383.90625 
L 447.534 384.24375 
L 447.534 384.834375 
L 448.092 385.0875 
L 448.092 384.496875 
L 448.65 384.75 
L 448.65 385.0875 
L 449.208 385.25625 
L 449.208 383.4 
L 449.208 383.653125 
L 449.766 383.990625 
L 449.766 384.328125 
L 450.324 384.665625 
L 450.324 384.91875 
L 450.882 385.171875 
L 450.882 383.7375 
L 451.44 384.075 
L 451.44 384.75 
L 451.998 385.003125 
L 451.998 385.25625 
L 452.556 384.075 
L 452.556 384.4125 
L 453.114 384.75 
L 453.114 385.003125 
L 453.672 385.25625 
L 453.672 383.484375 
L 453.672 383.821875 
L 454.23 384.159375 
L 454.23 384.496875 
L 454.788 384.75 
L 454.788 385.0875 
L 455.346 385.340625 
L 455.346 383.56875 
L 455.904 383.990625 
L 455.904 384.58125 
L 456.462 384.91875 
L 456.462 385.171875 
L 457.02 385.425 
L 457.02 383.56875 
L 457.578 383.90625 
L 457.578 384.24375 
L 458.136 384.58125 
L 458.136 385.171875 
L 458.694 385.340625 
L 458.694 383.990625 
L 459.252 384.328125 
L 459.252 384.665625 
L 459.81 384.91875 
L 459.81 385.171875 
L 460.368 384.58125 
L 460.368 384.834375 
L 460.926 385.171875 
L 460.926 385.425 
L 460.926 385.425 
L 460.926 385.425 
L 460.926 383.653125 
L 461.484 383.990625 
L 461.484 384.328125 
L 462.042 384.665625 
L 462.042 384.91875 
L 462.6 385.25625 
L 462.6 385.425 
L 463.158 383.7375 
L 463.158 384.075 
L 463.716 384.4125 
L 463.716 385.003125 
L 464.274 385.25625 
L 464.274 383.653125 
L 464.832 383.990625 
L 464.832 384.4125 
L 465.39 384.665625 
L 465.39 384.91875 
L 465.948 384.91875 
L 465.948 385.171875 
L 466.506 384.58125 
L 466.506 384.834375 
L 467.064 385.171875 
L 467.064 385.425 
L 467.064 385.425 
L 467.064 385.425 
L 467.064 383.821875 
L 467.622 384.159375 
L 467.622 384.496875 
L 468.18 384.75 
L 468.18 385.0875 
L 468.738 385.340625 
L 468.738 383.484375 
L 469.296 383.90625 
L 469.296 384.24375 
L 469.854 384.58125 
L 469.854 384.834375 
L 470.412 385.171875 
L 470.412 385.425 
L 470.412 385.425 
L 470.412 385.425 
L 470.412 383.821875 
L 470.97 384.159375 
L 470.97 384.159375 
" style="fill:none;opacity:0.6;stroke:#0000ff;stroke-linecap:square;stroke-width:2.0;"/>
   </g>
   <g id="line2d_2">
    <path clip-path="url(#p0fca1e23a5)" d="M 270.648 388.8 
L 270.648 43.2 
" style="fill:none;stroke:#ff0000;stroke-linecap:square;"/>
   </g>
   <g id="line2d_3">
    <defs>
     <path d="M 0 3 
C 0.795609 3 1.55874 2.683901 2.12132 2.12132 
C 2.683901 1.55874 3 0.795609 3 0 
C 3 -0.795609 2.683901 -1.55874 2.12132 -2.12132 
C 1.55874 -2.683901 0.795609 -3 0 -3 
C -0.795609 -3 -1.55874 -2.683901 -2.12132 -2.12132 
C -2.683901 -1.55874 -3 -0.795609 -3 0 
C -3 0.795609 -2.683901 1.55874 -2.12132 2.12132 
C -1.55874 2.683901 -0.795609 3 0 3 
z
" id="m41f120d14d" style="stroke:#000000;stroke-width:0.5;"/>
    </defs>
    <g clip-path="url(#p0fca1e23a5)">
     <use style="fill:#ff0000;opacity:0.6;stroke:#000000;stroke-width:0.5;" x="274.554" xlink:href="#m41f120d14d" y="244.771875"/>
    </g>
   </g>
   <g id="line2d_4">
    <path clip-path="url(#p0fca1e23a5)" d="M 292.968 388.8 
L 292.968 43.2 
" style="fill:none;stroke:#ff0000;stroke-linecap:square;"/>
   </g>
   <g id="patch_3">
    <path d="M 72 43.2 
L 518.4 43.2 
" style="fill:none;stroke:#000000;stroke-linecap:square;stroke-linejoin:miter;"/>
   </g>
   <g id="patch_4">
    <path d="M 72 388.8 
L 518.4 388.8 
" style="fill:none;stroke:#000000;stroke-linecap:square;stroke-linejoin:miter;"/>
   </g>
   <g id="patch_5">
    <path d="M 518.4 388.8 
L 518.4 43.2 
" style="fill:none;stroke:#000000;stroke-linecap:square;stroke-linejoin:miter;"/>
   </g>
   <g id="patch_6">
    <path d="M 72 388.8 
L 72 43.2 
" style="fill:none;stroke:#000000;stroke-linecap:square;stroke-linejoin:miter;"/>
   </g>
   <g id="matplotlib.axis_1">
    <g id="xtick_1">
     <g id="line2d_5">
      <defs>
       <path d="M 0 0 
L 0 -4 
" id="me5ad8eb2a6" style="stroke:#000000;stroke-width:0.5;"/>
      </defs>
      <g>
       <use style="stroke:#000000;stroke-width:0.5;" x="72.0" xlink:href="#me5ad8eb2a6" y="388.8"/>
      </g>
     </g>
     <g id="line2d_6">
      <defs>
       <path d="M 0 0 
L 0 4 
" id="mf4323a6f1c" style="stroke:#000000;stroke-width:0.5;"/>
      </defs>
      <g>
       <use style="stroke:#000000;stroke-width:0.5;" x="72.0" xlink:href="#mf4323a6f1c" y="43.2"/>
      </g>
     </g>
     <g id="text_1">
      <!-- 0.0 -->
      <defs>
       <path d="M 10.6875 12.40625 
L 21 12.40625 
L 21 0 
L 10.6875 0 
z
" id="BitstreamVeraSans-Roman-2e"/>
       <path d="M 31.78125 66.40625 
Q 24.171875 66.40625 20.328125 58.90625 
Q 16.5 51.421875 16.5 36.375 
Q 16.5 21.390625 20.328125 13.890625 
Q 24.171875 6.390625 31.78125 6.390625 
Q 39.453125 6.390625 43.28125 13.890625 
Q 47.125 21.390625 47.125 36.375 
Q 47.125 51.421875 43.28125 58.90625 
Q 39.453125 66.40625 31.78125 66.40625 
M 31.78125 74.21875 
Q 44.046875 74.21875 50.515625 64.515625 
Q 56.984375 54.828125 56.984375 36.375 
Q 56.984375 17.96875 50.515625 8.265625 
Q 44.046875 -1.421875 31.78125 -1.421875 
Q 19.53125 -1.421875 13.0625 8.265625 
Q 6.59375 17.96875 6.59375 36.375 
Q 6.59375 54.828125 13.0625 64.515625 
Q 19.53125 74.21875 31.78125 74.21875 
" id="BitstreamVeraSans-Roman-30"/>
      </defs>
      <g transform="translate(62.458125 401.918125)scale(0.12 -0.12)">
       <use xlink:href="#BitstreamVeraSans-Roman-30"/>
       <use x="63.623046875" xlink:href="#BitstreamVeraSans-Roman-2e"/>
       <use x="95.41015625" xlink:href="#BitstreamVeraSans-Roman-30"/>
      </g>
     </g>
    </g>
    <g id="xtick_2">
     <g id="line2d_7">
      <g>
       <use style="stroke:#000000;stroke-width:0.5;" x="127.8" xlink:href="#me5ad8eb2a6" y="388.8"/>
      </g>
     </g>
     <g id="line2d_8">
      <g>
       <use style="stroke:#000000;stroke-width:0.5;" x="127.8" xlink:href="#mf4323a6f1c" y="43.2"/>
      </g>
     </g>
     <g id="text_2">
      <!-- 0.1 -->
      <defs>
       <path d="M 12.40625 8.296875 
L 28.515625 8.296875 
L 28.515625 63.921875 
L 10.984375 60.40625 
L 10.984375 69.390625 
L 28.421875 72.90625 
L 38.28125 72.90625 
L 38.28125 8.296875 
L 54.390625 8.296875 
L 54.390625 0 
L 12.40625 0 
z
" id="BitstreamVeraSans-Roman-31"/>
      </defs>
      <g transform="translate(118.258125 401.918125)scale(0.12 -0.12)">
       <use xlink:href="#BitstreamVeraSans-Roman-30"/>
       <use x="63.623046875" xlink:href="#BitstreamVeraSans-Roman-2e"/>
       <use x="95.41015625" xlink:href="#BitstreamVeraSans-Roman-31"/>
      </g>
     </g>
    </g>
    <g id="xtick_3">
     <g id="line2d_9">
      <g>
       <use style="stroke:#000000;stroke-width:0.5;" x="183.6" xlink:href="#me5ad8eb2a6" y="388.8"/>
      </g>
     </g>
     <g id="line2d_10">
      <g>
       <use style="stroke:#000000;stroke-width:0.5;" x="183.6" xlink:href="#mf4323a6f1c" y="43.2"/>
      </g>
     </g>
     <g id="text_3">
      <!-- 0.2 -->
      <defs>
       <path d="M 19.1875 8.296875 
L 53.609375 8.296875 
L 53.609375 0 
L 7.328125 0 
L 7.328125 8.296875 
Q 12.9375 14.109375 22.625 23.890625 
Q 32.328125 33.6875 34.8125 36.53125 
Q 39.546875 41.84375 41.421875 45.53125 
Q 43.3125 49.21875 43.3125 52.78125 
Q 43.3125 58.59375 39.234375 62.25 
Q 35.15625 65.921875 28.609375 65.921875 
Q 23.96875 65.921875 18.8125 64.3125 
Q 13.671875 62.703125 7.8125 59.421875 
L 7.8125 69.390625 
Q 13.765625 71.78125 18.9375 73 
Q 24.125 74.21875 28.421875 74.21875 
Q 39.75 74.21875 46.484375 68.546875 
Q 53.21875 62.890625 53.21875 53.421875 
Q 53.21875 48.921875 51.53125 44.890625 
Q 49.859375 40.875 45.40625 35.40625 
Q 44.1875 33.984375 37.640625 27.21875 
Q 31.109375 20.453125 19.1875 8.296875 
" id="BitstreamVeraSans-Roman-32"/>
      </defs>
      <g transform="translate(174.058125 401.918125)scale(0.12 -0.12)">
       <use xlink:href="#BitstreamVeraSans-Roman-30"/>
       <use x="63.623046875" xlink:href="#BitstreamVeraSans-Roman-2e"/>
       <use x="95.41015625" xlink:href="#BitstreamVeraSans-Roman-32"/>
      </g>
     </g>
    </g>
    <g id="xtick_4">
     <g id="line2d_11">
      <g>
       <use style="stroke:#000000;stroke-width:0.5;" x="239.4" xlink:href="#me5ad8eb2a6" y="388.8"/>
      </g>
     </g>
     <g id="line2d_12">
      <g>
       <use style="stroke:#000000;stroke-width:0.5;" x="239.4" xlink:href="#mf4323a6f1c" y="43.2"/>
      </g>
     </g>
     <g id="text_4">
      <!-- 0.3 -->
      <defs>
       <path d="M 40.578125 39.3125 
Q 47.65625 37.796875 51.625 33 
Q 55.609375 28.21875 55.609375 21.1875 
Q 55.609375 10.40625 48.1875 4.484375 
Q 40.765625 -1.421875 27.09375 -1.421875 
Q 22.515625 -1.421875 17.65625 -0.515625 
Q 12.796875 0.390625 7.625 2.203125 
L 7.625 11.71875 
Q 11.71875 9.328125 16.59375 8.109375 
Q 21.484375 6.890625 26.8125 6.890625 
Q 36.078125 6.890625 40.9375 10.546875 
Q 45.796875 14.203125 45.796875 21.1875 
Q 45.796875 27.640625 41.28125 31.265625 
Q 36.765625 34.90625 28.71875 34.90625 
L 20.21875 34.90625 
L 20.21875 43.015625 
L 29.109375 43.015625 
Q 36.375 43.015625 40.234375 45.921875 
Q 44.09375 48.828125 44.09375 54.296875 
Q 44.09375 59.90625 40.109375 62.90625 
Q 36.140625 65.921875 28.71875 65.921875 
Q 24.65625 65.921875 20.015625 65.03125 
Q 15.375 64.15625 9.8125 62.3125 
L 9.8125 71.09375 
Q 15.4375 72.65625 20.34375 73.4375 
Q 25.25 74.21875 29.59375 74.21875 
Q 40.828125 74.21875 47.359375 69.109375 
Q 53.90625 64.015625 53.90625 55.328125 
Q 53.90625 49.265625 50.4375 45.09375 
Q 46.96875 40.921875 40.578125 39.3125 
" id="BitstreamVeraSans-Roman-33"/>
      </defs>
      <g transform="translate(229.858125 401.918125)scale(0.12 -0.12)">
       <use xlink:href="#BitstreamVeraSans-Roman-30"/>
       <use x="63.623046875" xlink:href="#BitstreamVeraSans-Roman-2e"/>
       <use x="95.41015625" xlink:href="#BitstreamVeraSans-Roman-33"/>
      </g>
     </g>
    </g>
    <g id="xtick_5">
     <g id="line2d_13">
      <g>
       <use style="stroke:#000000;stroke-width:0.5;" x="295.2" xlink:href="#me5ad8eb2a6" y="388.8"/>
      </g>
     </g>
     <g id="line2d_14">
      <g>
       <use style="stroke:#000000;stroke-width:0.5;" x="295.2" xlink:href="#mf4323a6f1c" y="43.2"/>
      </g>
     </g>
     <g id="text_5">
      <!-- 0.4 -->
      <defs>
       <path d="M 37.796875 64.3125 
L 12.890625 25.390625 
L 37.796875 25.390625 
z
M 35.203125 72.90625 
L 47.609375 72.90625 
L 47.609375 25.390625 
L 58.015625 25.390625 
L 58.015625 17.1875 
L 47.609375 17.1875 
L 47.609375 0 
L 37.796875 0 
L 37.796875 17.1875 
L 4.890625 17.1875 
L 4.890625 26.703125 
z
" id="BitstreamVeraSans-Roman-34"/>
      </defs>
      <g transform="translate(285.658125 401.918125)scale(0.12 -0.12)">
       <use xlink:href="#BitstreamVeraSans-Roman-30"/>
       <use x="63.623046875" xlink:href="#BitstreamVeraSans-Roman-2e"/>
       <use x="95.41015625" xlink:href="#BitstreamVeraSans-Roman-34"/>
      </g>
     </g>
    </g>
    <g id="xtick_6">
     <g id="line2d_15">
      <g>
       <use style="stroke:#000000;stroke-width:0.5;" x="351.0" xlink:href="#me5ad8eb2a6" y="388.8"/>
      </g>
     </g>
     <g id="line2d_16">
      <g>
       <use style="stroke:#000000;stroke-width:0.5;" x="351.0" xlink:href="#mf4323a6f1c" y="43.2"/>
      </g>
     </g>
     <g id="text_6">
      <!-- 0.5 -->
      <defs>
       <path d="M 10.796875 72.90625 
L 49.515625 72.90625 
L 49.515625 64.59375 
L 19.828125 64.59375 
L 19.828125 46.734375 
Q 21.96875 47.46875 24.109375 47.828125 
Q 26.265625 48.1875 28.421875 48.1875 
Q 40.625 48.1875 47.75 41.5 
Q 54.890625 34.8125 54.890625 23.390625 
Q 54.890625 11.625 47.5625 5.09375 
Q 40.234375 -1.421875 26.90625 -1.421875 
Q 22.3125 -1.421875 17.546875 -0.640625 
Q 12.796875 0.140625 7.71875 1.703125 
L 7.71875 11.625 
Q 12.109375 9.234375 16.796875 8.0625 
Q 21.484375 6.890625 26.703125 6.890625 
Q 35.15625 6.890625 40.078125 11.328125 
Q 45.015625 15.765625 45.015625 23.390625 
Q 45.015625 31 40.078125 35.4375 
Q 35.15625 39.890625 26.703125 39.890625 
Q 22.75 39.890625 18.8125 39.015625 
Q 14.890625 38.140625 10.796875 36.28125 
z
" id="BitstreamVeraSans-Roman-35"/>
      </defs>
      <g transform="translate(341.458125 401.918125)scale(0.12 -0.12)">
       <use xlink:href="#BitstreamVeraSans-Roman-30"/>
       <use x="63.623046875" xlink:href="#BitstreamVeraSans-Roman-2e"/>
       <use x="95.41015625" xlink:href="#BitstreamVeraSans-Roman-35"/>
      </g>
     </g>
    </g>
    <g id="xtick_7">
     <g id="line2d_17">
      <g>
       <use style="stroke:#000000;stroke-width:0.5;" x="406.8" xlink:href="#me5ad8eb2a6" y="388.8"/>
      </g>
     </g>
     <g id="line2d_18">
      <g>
       <use style="stroke:#000000;stroke-width:0.5;" x="406.8" xlink:href="#mf4323a6f1c" y="43.2"/>
      </g>
     </g>
     <g id="text_7">
      <!-- 0.6 -->
      <defs>
       <path d="M 33.015625 40.375 
Q 26.375 40.375 22.484375 35.828125 
Q 18.609375 31.296875 18.609375 23.390625 
Q 18.609375 15.53125 22.484375 10.953125 
Q 26.375 6.390625 33.015625 6.390625 
Q 39.65625 6.390625 43.53125 10.953125 
Q 47.40625 15.53125 47.40625 23.390625 
Q 47.40625 31.296875 43.53125 35.828125 
Q 39.65625 40.375 33.015625 40.375 
M 52.59375 71.296875 
L 52.59375 62.3125 
Q 48.875 64.0625 45.09375 64.984375 
Q 41.3125 65.921875 37.59375 65.921875 
Q 27.828125 65.921875 22.671875 59.328125 
Q 17.53125 52.734375 16.796875 39.40625 
Q 19.671875 43.65625 24.015625 45.921875 
Q 28.375 48.1875 33.59375 48.1875 
Q 44.578125 48.1875 50.953125 41.515625 
Q 57.328125 34.859375 57.328125 23.390625 
Q 57.328125 12.15625 50.6875 5.359375 
Q 44.046875 -1.421875 33.015625 -1.421875 
Q 20.359375 -1.421875 13.671875 8.265625 
Q 6.984375 17.96875 6.984375 36.375 
Q 6.984375 53.65625 15.1875 63.9375 
Q 23.390625 74.21875 37.203125 74.21875 
Q 40.921875 74.21875 44.703125 73.484375 
Q 48.484375 72.75 52.59375 71.296875 
" id="BitstreamVeraSans-Roman-36"/>
      </defs>
      <g transform="translate(397.258125 401.918125)scale(0.12 -0.12)">
       <use xlink:href="#BitstreamVeraSans-Roman-30"/>
       <use x="63.623046875" xlink:href="#BitstreamVeraSans-Roman-2e"/>
       <use x="95.41015625" xlink:href="#BitstreamVeraSans-Roman-36"/>
      </g>
     </g>
    </g>
    <g id="xtick_8">
     <g id="line2d_19">
      <g>
       <use style="stroke:#000000;stroke-width:0.5;" x="462.6" xlink:href="#me5ad8eb2a6" y="388.8"/>
      </g>
     </g>
     <g id="line2d_20">
      <g>
       <use style="stroke:#000000;stroke-width:0.5;" x="462.6" xlink:href="#mf4323a6f1c" y="43.2"/>
      </g>
     </g>
     <g id="text_8">
      <!-- 0.7 -->
      <defs>
       <path d="M 8.203125 72.90625 
L 55.078125 72.90625 
L 55.078125 68.703125 
L 28.609375 0 
L 18.3125 0 
L 43.21875 64.59375 
L 8.203125 64.59375 
z
" id="BitstreamVeraSans-Roman-37"/>
      </defs>
      <g transform="translate(453.058125 401.918125)scale(0.12 -0.12)">
       <use xlink:href="#BitstreamVeraSans-Roman-30"/>
       <use x="63.623046875" xlink:href="#BitstreamVeraSans-Roman-2e"/>
       <use x="95.41015625" xlink:href="#BitstreamVeraSans-Roman-37"/>
      </g>
     </g>
    </g>
    <g id="xtick_9">
     <g id="line2d_21">
      <g>
       <use style="stroke:#000000;stroke-width:0.5;" x="518.4" xlink:href="#me5ad8eb2a6" y="388.8"/>
      </g>
     </g>
     <g id="line2d_22">
      <g>
       <use style="stroke:#000000;stroke-width:0.5;" x="518.4" xlink:href="#mf4323a6f1c" y="43.2"/>
      </g>
     </g>
     <g id="text_9">
      <!-- 0.8 -->
      <defs>
       <path d="M 31.78125 34.625 
Q 24.75 34.625 20.71875 30.859375 
Q 16.703125 27.09375 16.703125 20.515625 
Q 16.703125 13.921875 20.71875 10.15625 
Q 24.75 6.390625 31.78125 6.390625 
Q 38.8125 6.390625 42.859375 10.171875 
Q 46.921875 13.96875 46.921875 20.515625 
Q 46.921875 27.09375 42.890625 30.859375 
Q 38.875 34.625 31.78125 34.625 
M 21.921875 38.8125 
Q 15.578125 40.375 12.03125 44.71875 
Q 8.5 49.078125 8.5 55.328125 
Q 8.5 64.0625 14.71875 69.140625 
Q 20.953125 74.21875 31.78125 74.21875 
Q 42.671875 74.21875 48.875 69.140625 
Q 55.078125 64.0625 55.078125 55.328125 
Q 55.078125 49.078125 51.53125 44.71875 
Q 48 40.375 41.703125 38.8125 
Q 48.828125 37.15625 52.796875 32.3125 
Q 56.78125 27.484375 56.78125 20.515625 
Q 56.78125 9.90625 50.3125 4.234375 
Q 43.84375 -1.421875 31.78125 -1.421875 
Q 19.734375 -1.421875 13.25 4.234375 
Q 6.78125 9.90625 6.78125 20.515625 
Q 6.78125 27.484375 10.78125 32.3125 
Q 14.796875 37.15625 21.921875 38.8125 
M 18.3125 54.390625 
Q 18.3125 48.734375 21.84375 45.5625 
Q 25.390625 42.390625 31.78125 42.390625 
Q 38.140625 42.390625 41.71875 45.5625 
Q 45.3125 48.734375 45.3125 54.390625 
Q 45.3125 60.0625 41.71875 63.234375 
Q 38.140625 66.40625 31.78125 66.40625 
Q 25.390625 66.40625 21.84375 63.234375 
Q 18.3125 60.0625 18.3125 54.390625 
" id="BitstreamVeraSans-Roman-38"/>
      </defs>
      <g transform="translate(508.858125 401.918125)scale(0.12 -0.12)">
       <use xlink:href="#BitstreamVeraSans-Roman-30"/>
       <use x="63.623046875" xlink:href="#BitstreamVeraSans-Roman-2e"/>
       <use x="95.41015625" xlink:href="#BitstreamVeraSans-Roman-38"/>
      </g>
     </g>
    </g>
    <g id="text_10">
     <!-- t[s] -->
     <defs>
      <path d="M 44.28125 53.078125 
L 44.28125 44.578125 
Q 40.484375 46.53125 36.375 47.5 
Q 32.28125 48.484375 27.875 48.484375 
Q 21.1875 48.484375 17.84375 46.4375 
Q 14.5 44.390625 14.5 40.28125 
Q 14.5 37.15625 16.890625 35.375 
Q 19.28125 33.59375 26.515625 31.984375 
L 29.59375 31.296875 
Q 39.15625 29.25 43.1875 25.515625 
Q 47.21875 21.78125 47.21875 15.09375 
Q 47.21875 7.46875 41.1875 3.015625 
Q 35.15625 -1.421875 24.609375 -1.421875 
Q 20.21875 -1.421875 15.453125 -0.5625 
Q 10.6875 0.296875 5.421875 2 
L 5.421875 11.28125 
Q 10.40625 8.6875 15.234375 7.390625 
Q 20.0625 6.109375 24.8125 6.109375 
Q 31.15625 6.109375 34.5625 8.28125 
Q 37.984375 10.453125 37.984375 14.40625 
Q 37.984375 18.0625 35.515625 20.015625 
Q 33.0625 21.96875 24.703125 23.78125 
L 21.578125 24.515625 
Q 13.234375 26.265625 9.515625 29.90625 
Q 5.8125 33.546875 5.8125 39.890625 
Q 5.8125 47.609375 11.28125 51.796875 
Q 16.75 56 26.8125 56 
Q 31.78125 56 36.171875 55.265625 
Q 40.578125 54.546875 44.28125 53.078125 
" id="BitstreamVeraSans-Roman-73"/>
      <path d="M 30.421875 75.984375 
L 30.421875 -13.1875 
L 9.71875 -13.1875 
L 9.71875 -6.203125 
L 21.390625 -6.203125 
L 21.390625 69 
L 9.71875 69 
L 9.71875 75.984375 
z
" id="BitstreamVeraSans-Roman-5d"/>
      <path d="M 18.3125 70.21875 
L 18.3125 54.6875 
L 36.8125 54.6875 
L 36.8125 47.703125 
L 18.3125 47.703125 
L 18.3125 18.015625 
Q 18.3125 11.328125 20.140625 9.421875 
Q 21.96875 7.515625 27.59375 7.515625 
L 36.8125 7.515625 
L 36.8125 0 
L 27.59375 0 
Q 17.1875 0 13.234375 3.875 
Q 9.28125 7.765625 9.28125 18.015625 
L 9.28125 47.703125 
L 2.6875 47.703125 
L 2.6875 54.6875 
L 9.28125 54.6875 
L 9.28125 70.21875 
z
" id="BitstreamVeraSans-Roman-74"/>
      <path d="M 8.59375 75.984375 
L 29.296875 75.984375 
L 29.296875 69 
L 17.578125 69 
L 17.578125 -6.203125 
L 29.296875 -6.203125 
L 29.296875 -13.1875 
L 8.59375 -13.1875 
z
" id="BitstreamVeraSans-Roman-5b"/>
     </defs>
     <g transform="translate(285.0403125 418.531875)scale(0.12 -0.12)">
      <use xlink:href="#BitstreamVeraSans-Roman-74"/>
      <use x="39.208984375" xlink:href="#BitstreamVeraSans-Roman-5b"/>
      <use x="78.22265625" xlink:href="#BitstreamVeraSans-Roman-73"/>
      <use x="130.322265625" xlink:href="#BitstreamVeraSans-Roman-5d"/>
     </g>
    </g>
   </g>
   <g id="matplotlib.axis_2">
    <g id="ytick_1">
     <g id="line2d_23">
      <defs>
       <path d="M 0 0 
L 4 0 
" id="mf45880718f" style="stroke:#000000;stroke-width:0.5;"/>
      </defs>
      <g>
       <use style="stroke:#000000;stroke-width:0.5;" x="72.0" xlink:href="#mf45880718f" y="388.8"/>
      </g>
     </g>
     <g id="line2d_24">
      <defs>
       <path d="M 0 0 
L -4 0 
" id="mc99de87c20" style="stroke:#000000;stroke-width:0.5;"/>
      </defs>
      <g>
       <use style="stroke:#000000;stroke-width:0.5;" x="518.4" xlink:href="#mc99de87c20" y="388.8"/>
      </g>
     </g>
     <g id="text_11">
      <!-- 0.0 -->
      <g transform="translate(48.91625 392.11125)scale(0.12 -0.12)">
       <use xlink:href="#BitstreamVeraSans-Roman-30"/>
       <use x="63.623046875" xlink:href="#BitstreamVeraSans-Roman-2e"/>
       <use x="95.41015625" xlink:href="#BitstreamVeraSans-Roman-30"/>
      </g>
     </g>
    </g>
    <g id="ytick_2">
     <g id="line2d_25">
      <g>
       <use style="stroke:#000000;stroke-width:0.5;" x="72.0" xlink:href="#mf45880718f" y="319.68"/>
      </g>
     </g>
     <g id="line2d_26">
      <g>
       <use style="stroke:#000000;stroke-width:0.5;" x="518.4" xlink:href="#mc99de87c20" y="319.68"/>
      </g>
     </g>
     <g id="text_12">
      <!-- 0.2 -->
      <g transform="translate(48.91625 322.99125)scale(0.12 -0.12)">
       <use xlink:href="#BitstreamVeraSans-Roman-30"/>
       <use x="63.623046875" xlink:href="#BitstreamVeraSans-Roman-2e"/>
       <use x="95.41015625" xlink:href="#BitstreamVeraSans-Roman-32"/>
      </g>
     </g>
    </g>
    <g id="ytick_3">
     <g id="line2d_27">
      <g>
       <use style="stroke:#000000;stroke-width:0.5;" x="72.0" xlink:href="#mf45880718f" y="250.56"/>
      </g>
     </g>
     <g id="line2d_28">
      <g>
       <use style="stroke:#000000;stroke-width:0.5;" x="518.4" xlink:href="#mc99de87c20" y="250.56"/>
      </g>
     </g>
     <g id="text_13">
      <!-- 0.4 -->
      <g transform="translate(48.91625 253.87125)scale(0.12 -0.12)">
       <use xlink:href="#BitstreamVeraSans-Roman-30"/>
       <use x="63.623046875" xlink:href="#BitstreamVeraSans-Roman-2e"/>
       <use x="95.41015625" xlink:href="#BitstreamVeraSans-Roman-34"/>
      </g>
     </g>
    </g>
    <g id="ytick_4">
     <g id="line2d_29">
      <g>
       <use style="stroke:#000000;stroke-width:0.5;" x="72.0" xlink:href="#mf45880718f" y="181.44"/>
      </g>
     </g>
     <g id="line2d_30">
      <g>
       <use style="stroke:#000000;stroke-width:0.5;" x="518.4" xlink:href="#mc99de87c20" y="181.44"/>
      </g>
     </g>
     <g id="text_14">
      <!-- 0.6 -->
      <g transform="translate(48.91625 184.75125)scale(0.12 -0.12)">
       <use xlink:href="#BitstreamVeraSans-Roman-30"/>
       <use x="63.623046875" xlink:href="#BitstreamVeraSans-Roman-2e"/>
       <use x="95.41015625" xlink:href="#BitstreamVeraSans-Roman-36"/>
      </g>
     </g>
    </g>
    <g id="ytick_5">
     <g id="line2d_31">
      <g>
       <use style="stroke:#000000;stroke-width:0.5;" x="72.0" xlink:href="#mf45880718f" y="112.32"/>
      </g>
     </g>
     <g id="line2d_32">
      <g>
       <use style="stroke:#000000;stroke-width:0.5;" x="518.4" xlink:href="#mc99de87c20" y="112.32"/>
      </g>
     </g>
     <g id="text_15">
      <!-- 0.8 -->
      <g transform="translate(48.91625 115.63125)scale(0.12 -0.12)">
       <use xlink:href="#BitstreamVeraSans-Roman-30"/>
       <use x="63.623046875" xlink:href="#BitstreamVeraSans-Roman-2e"/>
       <use x="95.41015625" xlink:href="#BitstreamVeraSans-Roman-38"/>
      </g>
     </g>
    </g>
    <g id="ytick_6">
     <g id="line2d_33">
      <g>
       <use style="stroke:#000000;stroke-width:0.5;" x="72.0" xlink:href="#mf45880718f" y="43.2"/>
      </g>
     </g>
     <g id="line2d_34">
      <g>
       <use style="stroke:#000000;stroke-width:0.5;" x="518.4" xlink:href="#mc99de87c20" y="43.2"/>
      </g>
     </g>
     <g id="text_16">
      <!-- 1.0 -->
      <g transform="translate(48.91625 46.51125)scale(0.12 -0.12)">
       <use xlink:href="#BitstreamVeraSans-Roman-31"/>
       <use x="63.623046875" xlink:href="#BitstreamVeraSans-Roman-2e"/>
       <use x="95.41015625" xlink:href="#BitstreamVeraSans-Roman-30"/>
      </g>
     </g>
    </g>
    <g id="text_17">
     <!-- U[V] -->
     <defs>
      <path d="M 28.609375 0 
L 0.78125 72.90625 
L 11.078125 72.90625 
L 34.1875 11.53125 
L 57.328125 72.90625 
L 67.578125 72.90625 
L 39.796875 0 
z
" id="BitstreamVeraSans-Roman-56"/>
      <path d="M 8.6875 72.90625 
L 18.609375 72.90625 
L 18.609375 28.609375 
Q 18.609375 16.890625 22.84375 11.734375 
Q 27.09375 6.59375 36.625 6.59375 
Q 46.09375 6.59375 50.34375 11.734375 
Q 54.59375 16.890625 54.59375 28.609375 
L 54.59375 72.90625 
L 64.5 72.90625 
L 64.5 27.390625 
Q 64.5 13.140625 57.4375 5.859375 
Q 50.390625 -1.421875 36.625 -1.421875 
Q 22.796875 -1.421875 15.734375 5.859375 
Q 8.6875 13.140625 8.6875 27.390625 
z
" id="BitstreamVeraSans-Roman-55"/>
     </defs>
     <g transform="translate(41.420625 229.1775)rotate(-90.0)scale(0.12 -0.12)">
      <use xlink:href="#BitstreamVeraSans-Roman-55"/>
      <use x="73.193359375" xlink:href="#BitstreamVeraSans-Roman-5b"/>
      <use x="112.20703125" xlink:href="#BitstreamVeraSans-Roman-56"/>
      <use x="180.615234375" xlink:href="#BitstreamVeraSans-Roman-5d"/>
     </g>
    </g>
   </g>
   <g id="text_18">
    <!-- 0.04s -->
    <g transform="translate(305.244 319.68)scale(0.12 -0.12)">
     <use xlink:href="#BitstreamVeraSans-Roman-30"/>
     <use x="63.623046875" xlink:href="#BitstreamVeraSans-Roman-2e"/>
     <use x="95.41015625" xlink:href="#BitstreamVeraSans-Roman-30"/>
     <use x="159.033203125" xlink:href="#BitstreamVeraSans-Roman-34"/>
     <use x="222.65625" xlink:href="#BitstreamVeraSans-Roman-73"/>
    </g>
   </g>
   <g id="text_19">
    <!-- log_12052016_1.txt -->
    <defs>
     <path d="M 50.984375 -16.609375 
L 50.984375 -23.578125 
L -0.984375 -23.578125 
L -0.984375 -16.609375 
z
" id="BitstreamVeraSans-Roman-5f"/>
     <path d="M 9.421875 75.984375 
L 18.40625 75.984375 
L 18.40625 0 
L 9.421875 0 
z
" id="BitstreamVeraSans-Roman-6c"/>
     <path d="M 30.609375 48.390625 
Q 23.390625 48.390625 19.1875 42.75 
Q 14.984375 37.109375 14.984375 27.296875 
Q 14.984375 17.484375 19.15625 11.84375 
Q 23.34375 6.203125 30.609375 6.203125 
Q 37.796875 6.203125 41.984375 11.859375 
Q 46.1875 17.53125 46.1875 27.296875 
Q 46.1875 37.015625 41.984375 42.703125 
Q 37.796875 48.390625 30.609375 48.390625 
M 30.609375 56 
Q 42.328125 56 49.015625 48.375 
Q 55.71875 40.765625 55.71875 27.296875 
Q 55.71875 13.875 49.015625 6.21875 
Q 42.328125 -1.421875 30.609375 -1.421875 
Q 18.84375 -1.421875 12.171875 6.21875 
Q 5.515625 13.875 5.515625 27.296875 
Q 5.515625 40.765625 12.171875 48.375 
Q 18.84375 56 30.609375 56 
" id="BitstreamVeraSans-Roman-6f"/>
     <path d="M 54.890625 54.6875 
L 35.109375 28.078125 
L 55.90625 0 
L 45.3125 0 
L 29.390625 21.484375 
L 13.484375 0 
L 2.875 0 
L 24.125 28.609375 
L 4.6875 54.6875 
L 15.28125 54.6875 
L 29.78125 35.203125 
L 44.28125 54.6875 
z
" id="BitstreamVeraSans-Roman-78"/>
     <path d="M 45.40625 27.984375 
Q 45.40625 37.75 41.375 43.109375 
Q 37.359375 48.484375 30.078125 48.484375 
Q 22.859375 48.484375 18.828125 43.109375 
Q 14.796875 37.75 14.796875 27.984375 
Q 14.796875 18.265625 18.828125 12.890625 
Q 22.859375 7.515625 30.078125 7.515625 
Q 37.359375 7.515625 41.375 12.890625 
Q 45.40625 18.265625 45.40625 27.984375 
M 54.390625 6.78125 
Q 54.390625 -7.171875 48.1875 -13.984375 
Q 42 -20.796875 29.203125 -20.796875 
Q 24.46875 -20.796875 20.265625 -20.09375 
Q 16.0625 -19.390625 12.109375 -17.921875 
L 12.109375 -9.1875 
Q 16.0625 -11.328125 19.921875 -12.34375 
Q 23.78125 -13.375 27.78125 -13.375 
Q 36.625 -13.375 41.015625 -8.765625 
Q 45.40625 -4.15625 45.40625 5.171875 
L 45.40625 9.625 
Q 42.625 4.78125 38.28125 2.390625 
Q 33.9375 0 27.875 0 
Q 17.828125 0 11.671875 7.65625 
Q 5.515625 15.328125 5.515625 27.984375 
Q 5.515625 40.671875 11.671875 48.328125 
Q 17.828125 56 27.875 56 
Q 33.9375 56 38.28125 53.609375 
Q 42.625 51.21875 45.40625 46.390625 
L 45.40625 54.6875 
L 54.390625 54.6875 
z
" id="BitstreamVeraSans-Roman-67"/>
    </defs>
    <g transform="translate(223.599375 38.2)scale(0.144 -0.144)">
     <use xlink:href="#BitstreamVeraSans-Roman-6c"/>
     <use x="27.783203125" xlink:href="#BitstreamVeraSans-Roman-6f"/>
     <use x="88.96484375" xlink:href="#BitstreamVeraSans-Roman-67"/>
     <use x="152.44140625" xlink:href="#BitstreamVeraSans-Roman-5f"/>
     <use x="202.44140625" xlink:href="#BitstreamVeraSans-Roman-31"/>
     <use x="266.064453125" xlink:href="#BitstreamVeraSans-Roman-32"/>
     <use x="329.6875" xlink:href="#BitstreamVeraSans-Roman-30"/>
     <use x="393.310546875" xlink:href="#BitstreamVeraSans-Roman-35"/>
     <use x="456.93359375" xlink:href="#BitstreamVeraSans-Roman-32"/>
     <use x="520.556640625" xlink:href="#BitstreamVeraSans-Roman-30"/>
     <use x="584.1796875" xlink:href="#BitstreamVeraSans-Roman-31"/>
     <use x="647.802734375" xlink:href="#BitstreamVeraSans-Roman-36"/>
     <use x="711.42578125" xlink:href="#BitstreamVeraSans-Roman-5f"/>
     <use x="761.42578125" xlink:href="#BitstreamVeraSans-Roman-31"/>
     <use x="825.048828125" xlink:href="#BitstreamVeraSans-Roman-2e"/>
     <use x="856.8359375" xlink:href="#BitstreamVeraSans-Roman-74"/>
     <use x="896.044921875" xlink:href="#BitstreamVeraSans-Roman-78"/>
     <use x="955.224609375" xlink:href="#BitstreamVeraSans-Roman-74"/>
    </g>
   </g>
  </g>
 </g>
 <defs>
  <clipPath id="p0fca1e23a5">
   <rect height="345.6" width="446.4" x="72.0" y="43.2"/>
  </clipPath>
 </defs>
</svg>
