<?xml version="1.0" encoding="utf-8" standalone="no"?>
<!DOCTYPE svg PUBLIC "-//W3C//DTD SVG 1.1//EN"
  "http://www.w3.org/Graphics/SVG/1.1/DTD/svg11.dtd">
<!-- Created with matplotlib (http://matplotlib.org/) -->
<svg height="432pt" version="1.1" viewBox="0 0 576 432" width="576pt" xmlns="http://www.w3.org/2000/svg" xmlns:xlink="http://www.w3.org/1999/xlink">
 <defs>
  <style type="text/css">
*{stroke-linecap:butt;stroke-linejoin:round;stroke-miterlimit:100000;}
  </style>
 </defs>
 <g id="figure_1">
  <g id="patch_1">
   <path d="M 0 432 
L 576 432 
L 576 0 
L 0 0 
z
" style="fill:#ffffff;"/>
  </g>
  <g id="axes_1">
   <g id="patch_2">
    <path d="M 72 388.8 
L 518.4 388.8 
L 518.4 43.2 
L 72 43.2 
z
" style="fill:#ffffff;"/>
   </g>
   <g id="line2d_1">
    <path clip-path="url(#p3cc50aeae1)" d="M 72 388.63125 
L 72.558 62.184375 
L 72.558 388.8 
L 72.558 388.8 
L 72.558 388.8 
L 72.558 62.015625 
L 72.558 62.015625 
L 72.558 62.015625 
L 72.558 388.8 
L 73.116 62.26875 
L 73.116 388.8 
L 73.116 62.4375 
L 73.674 388.8 
L 73.674 62.184375 
L 73.674 62.184375 
L 73.674 62.184375 
L 73.674 388.8 
L 74.232 62.015625 
L 74.232 388.8 
L 74.232 388.8 
L 74.79 388.8 
L 74.79 62.26875 
L 74.79 62.26875 
L 74.79 62.26875 
L 74.79 388.8 
L 74.79 388.8 
L 74.79 388.8 
L 74.79 62.184375 
L 75.348 388.8 
L 75.348 62.353125 
L 75.348 62.353125 
L 75.348 62.353125 
L 75.348 388.8 
L 75.906 62.184375 
L 75.906 388.8 
L 75.906 388.8 
L 75.906 388.8 
L 75.906 62.015625 
L 76.464 388.8 
L 76.464 62.94375 
L 76.464 62.94375 
L 76.464 62.94375 
L 76.464 388.8 
L 77.022 62.015625 
L 77.022 388.8 
L 77.022 388.8 
L 77.022 388.8 
L 77.022 61.93125 
L 77.022 61.93125 
L 77.022 61.93125 
L 77.022 388.8 
L 77.58 388.8 
L 77.58 62.60625 
L 77.58 62.60625 
L 77.58 62.60625 
L 77.58 388.8 
L 77.58 388.8 
L 77.58 388.8 
L 77.58 62.26875 
L 78.138 388.8 
L 78.138 62.521875 
L 78.138 62.521875 
L 78.138 62.521875 
L 78.138 388.8 
L 78.696 62.26875 
L 78.696 388.8 
L 78.696 226.884375 
L 79.254 388.8 
L 79.254 62.184375 
L 79.254 62.184375 
L 79.254 62.184375 
L 79.254 388.8 
L 79.812 62.184375 
L 79.812 388.8 
L 79.812 388.8 
L 79.812 388.8 
L 79.812 62.184375 
L 79.812 62.184375 
L 79.812 62.184375 
L 79.812 388.8 
L 80.37 62.184375 
L 80.37 388.8 
L 80.37 388.8 
L 80.37 388.8 
L 80.37 62.184375 
L 80.928 388.8 
L 80.928 388.8 
L 80.928 80.240625 
L 80.928 80.240625 
L 80.928 80.240625 
L 80.928 388.8 
L 81.486 62.184375 
L 81.486 388.8 
L 81.486 388.8 
L 81.486 388.8 
L 81.486 62.015625 
L 82.044 388.8 
L 82.044 62.184375 
L 82.044 62.184375 
L 82.044 62.184375 
L 82.044 388.8 
L 82.044 388.8 
L 82.044 388.8 
L 82.044 62.184375 
L 82.602 388.8 
L 82.602 62.184375 
L 82.602 62.184375 
L 82.602 62.184375 
L 82.602 388.8 
L 83.16 62.521875 
L 83.16 388.8 
L 83.16 380.3625 
L 83.718 62.4375 
L 83.718 388.8 
L 83.718 388.8 
L 83.718 388.8 
L 83.718 61.846875 
L 83.718 61.846875 
L 83.718 61.846875 
L 83.718 388.8 
L 84.276 62.184375 
L 84.276 388.8 
L 84.276 388.8 
L 84.276 388.8 
L 84.276 62.184375 
L 84.834 388.8 
L 84.834 61.509375 
L 84.834 61.509375 
L 84.834 61.509375 
L 84.834 388.8 
L 84.834 62.184375 
L 85.392 388.8 
L 85.392 61.93125 
L 85.392 61.93125 
L 85.392 61.93125 
L 85.392 388.8 
L 85.95 62.184375 
L 85.95 388.8 
L 85.95 388.8 
L 85.95 388.8 
L 85.95 62.015625 
L 86.508 388.8 
L 86.508 62.26875 
L 86.508 62.26875 
L 86.508 62.26875 
L 86.508 388.8 
L 86.508 388.8 
L 86.508 388.8 
L 86.508 62.184375 
L 87.066 388.8 
L 87.066 62.184375 
L 87.066 62.184375 
L 87.066 62.184375 
L 87.066 388.8 
L 87.624 62.184375 
L 87.624 388.8 
L 87.624 388.8 
L 87.624 388.8 
L 87.624 62.184375 
L 88.182 388.8 
L 88.182 62.353125 
L 88.182 62.353125 
L 88.182 62.353125 
L 88.182 388.8 
L 88.74 62.521875 
L 88.74 388.8 
L 88.74 388.8 
L 88.74 388.8 
L 88.74 62.184375 
L 88.74 62.184375 
L 88.74 62.184375 
L 88.74 388.8 
L 89.298 344.334375 
L 89.298 388.8 
L 89.298 388.8 
L 89.298 388.8 
L 89.298 64.040625 
L 89.856 388.8 
L 89.856 61.846875 
L 89.856 61.846875 
L 89.856 61.846875 
L 89.856 388.8 
L 90.414 80.15625 
L 90.414 388.8 
L 90.414 388.8 
L 90.414 388.8 
L 90.414 62.184375 
L 90.972 388.8 
L 90.972 62.184375 
L 90.972 62.184375 
L 90.972 62.184375 
L 90.972 388.8 
L 91.53 62.184375 
L 91.53 388.8 
L 91.53 388.8 
L 91.53 388.8 
L 91.53 61.846875 
L 91.53 61.846875 
L 91.53 61.846875 
L 91.53 388.8 
L 92.088 62.184375 
L 92.088 388.8 
L 92.088 388.8 
L 92.088 388.8 
L 92.088 61.846875 
L 92.646 388.8 
L 92.646 62.184375 
L 92.646 62.184375 
L 92.646 62.184375 
L 92.646 388.8 
L 93.204 62.184375 
L 93.204 388.8 
L 93.204 388.8 
L 93.204 388.8 
L 93.204 61.93125 
L 93.762 388.8 
L 93.762 61.7625 
L 93.762 61.7625 
L 93.762 61.7625 
L 93.762 388.8 
L 94.32 62.015625 
L 94.32 388.8 
L 94.32 62.184375 
L 94.878 388.8 
L 94.878 62.1 
L 94.878 62.1 
L 94.878 62.1 
L 94.878 388.8 
L 95.436 61.846875 
L 95.436 388.8 
L 95.436 388.8 
L 95.994 61.93125 
L 95.994 388.8 
L 95.994 62.184375 
L 96.552 388.8 
L 96.552 61.846875 
L 96.552 61.846875 
L 96.552 61.846875 
L 96.552 388.8 
L 97.11 61.846875 
L 97.11 388.8 
L 97.11 183.684375 
L 97.668 388.8 
L 97.668 62.015625 
L 98.226 388.8 
L 98.226 62.184375 
L 98.226 62.184375 
L 98.226 62.184375 
L 98.226 388.8 
L 98.784 62.015625 
L 98.784 388.8 
L 98.784 388.8 
L 98.784 388.8 
L 98.784 62.015625 
L 99.342 388.8 
L 99.342 62.184375 
L 99.342 62.184375 
L 99.342 62.184375 
L 99.342 388.8 
L 99.9 62.184375 
L 99.9 388.8 
L 99.9 388.8 
L 99.9 388.8 
L 99.9 61.93125 
L 100.458 388.8 
L 100.458 62.353125 
L 100.458 62.353125 
L 100.458 62.353125 
L 100.458 388.8 
L 101.016 181.659375 
L 101.016 62.184375 
L 101.016 62.184375 
L 101.016 62.184375 
L 101.016 388.8 
L 101.574 62.184375 
L 101.574 388.8 
L 101.574 388.8 
L 101.574 388.8 
L 101.574 61.846875 
L 102.132 388.8 
L 102.132 62.184375 
L 102.132 62.184375 
L 102.132 62.184375 
L 102.132 388.8 
L 102.69 61.93125 
L 102.69 388.8 
L 102.69 388.8 
L 102.69 388.8 
L 102.69 61.7625 
L 103.248 388.8 
L 103.248 61.59375 
L 103.248 61.59375 
L 103.248 61.59375 
L 103.248 388.8 
L 103.806 324.084375 
L 103.806 62.184375 
L 103.806 62.184375 
L 103.806 62.184375 
L 103.806 388.8 
L 104.364 62.184375 
L 104.364 388.8 
L 104.364 388.8 
L 104.364 388.8 
L 104.364 62.184375 
L 104.922 388.8 
L 104.922 62.184375 
L 104.922 62.184375 
L 104.922 62.184375 
L 104.922 388.8 
L 105.48 61.93125 
L 105.48 388.8 
L 105.48 101.503125 
L 106.038 388.8 
L 106.038 62.184375 
L 106.596 388.8 
L 106.596 62.015625 
L 106.596 62.015625 
L 106.596 62.015625 
L 106.596 388.8 
L 107.154 61.846875 
L 107.154 388.8 
L 107.154 61.93125 
L 107.712 388.8 
L 107.712 63.028125 
L 108.27 388.8 
L 108.27 62.184375 
L 108.27 62.184375 
L 108.27 62.184375 
L 108.27 388.8 
L 108.828 61.7625 
L 108.828 388.8 
L 108.828 61.846875 
L 109.386 388.8 
L 109.386 73.153125 
L 109.386 371.5875 
L 109.944 388.8 
L 109.944 62.184375 
L 109.944 62.184375 
L 109.944 62.184375 
L 109.944 388.8 
L 110.502 62.184375 
L 110.502 388.8 
L 111.06 62.184375 
L 111.06 388.8 
L 111.06 388.8 
L 111.06 388.8 
L 111.06 61.846875 
L 111.618 388.8 
L 111.618 388.8 
L 111.618 62.353125 
L 112.176 388.8 
L 112.176 62.015625 
L 112.176 62.015625 
L 112.176 62.015625 
L 112.176 388.8 
L 112.734 61.93125 
L 112.734 388.8 
L 112.734 388.8 
L 112.734 388.8 
L 112.734 61.7625 
L 113.292 388.8 
L 113.292 62.015625 
L 113.85 388.8 
L 113.85 61.846875 
L 113.85 61.846875 
L 113.85 61.846875 
L 113.85 388.8 
L 114.408 62.184375 
L 114.408 388.8 
L 114.408 291.853125 
L 114.966 62.184375 
L 114.966 388.8 
L 115.524 62.184375 
L 115.524 388.8 
L 115.524 388.8 
L 115.524 388.8 
L 115.524 62.015625 
L 116.082 388.8 
L 116.082 62.184375 
L 116.64 388.8 
L 116.64 62.184375 
L 116.64 62.184375 
L 116.64 62.184375 
L 116.64 388.8 
L 117.198 61.846875 
L 117.198 388.8 
L 117.198 217.434375 
L 117.756 61.59375 
L 117.756 388.8 
L 118.314 61.93125 
L 118.314 388.8 
L 118.314 388.8 
L 118.314 388.8 
L 118.314 61.93125 
L 118.872 388.8 
L 118.872 62.184375 
L 119.43 388.8 
L 119.43 62.015625 
L 119.43 62.015625 
L 119.43 62.015625 
L 119.43 388.8 
L 119.988 61.93125 
L 119.988 388.8 
L 120.546 62.184375 
L 120.546 388.8 
L 121.104 61.846875 
L 121.104 388.8 
L 121.104 347.11875 
L 121.662 62.184375 
L 121.662 388.8 
L 121.662 388.8 
L 121.662 388.8 
L 121.662 62.184375 
L 122.22 388.8 
L 122.22 62.184375 
L 122.22 368.296875 
L 122.778 388.8 
L 122.778 62.184375 
L 123.336 388.8 
L 123.336 61.7625 
L 123.336 61.7625 
L 123.336 61.7625 
L 123.336 388.8 
L 123.894 388.8 
L 123.894 62.184375 
L 123.894 62.184375 
L 123.894 62.184375 
L 123.894 388.8 
L 124.452 62.184375 
L 124.452 388.8 
L 124.452 388.8 
L 124.452 388.8 
L 124.452 61.846875 
L 125.01 62.26875 
L 125.01 388.8 
L 125.568 62.184375 
L 125.568 388.8 
L 125.568 388.8 
L 125.568 388.8 
L 125.568 62.184375 
L 126.126 388.8 
L 126.126 62.015625 
L 126.684 388.8 
L 126.684 62.184375 
L 127.242 388.8 
L 127.242 388.8 
L 127.242 62.184375 
L 127.8 388.8 
L 127.8 62.015625 
L 127.8 62.015625 
L 127.8 62.015625 
L 127.8 388.8 
L 128.358 388.8 
L 128.358 62.184375 
L 128.358 62.184375 
L 128.358 62.184375 
L 128.358 388.8 
L 128.916 62.184375 
L 128.916 388.8 
L 129.474 388.8 
L 129.474 61.93125 
L 129.474 61.93125 
L 129.474 61.93125 
L 129.474 388.8 
L 130.032 62.184375 
L 130.032 388.8 
L 130.032 388.8 
L 130.59 62.184375 
L 130.59 388.8 
L 131.148 62.184375 
L 131.148 388.8 
L 131.148 388.8 
L 131.706 62.184375 
L 131.706 388.8 
L 131.706 388.8 
L 131.706 388.8 
L 131.706 62.015625 
L 132.264 388.8 
L 132.822 62.184375 
L 132.822 388.8 
L 132.822 388.8 
L 132.822 388.8 
L 132.822 62.184375 
L 133.38 159.384375 
L 133.38 388.8 
L 133.938 61.846875 
L 133.938 388.8 
L 133.938 212.540625 
L 134.496 62.184375 
L 134.496 388.8 
L 134.496 388.8 
L 134.496 388.8 
L 134.496 61.846875 
L 135.054 388.8 
L 135.054 388.8 
L 135.612 62.184375 
L 135.612 388.8 
L 135.612 388.8 
L 135.612 388.8 
L 135.612 62.184375 
L 136.17 388.8 
L 136.17 62.184375 
L 136.728 388.8 
L 136.728 178.5375 
L 137.286 62.184375 
L 137.286 388.8 
L 137.286 388.8 
L 137.286 388.8 
L 137.286 62.184375 
L 137.844 388.8 
L 137.844 388.8 
L 138.402 62.184375 
L 138.402 388.8 
L 138.402 388.8 
L 138.402 388.8 
L 138.402 62.184375 
L 138.96 62.184375 
L 138.96 388.8 
L 138.96 388.8 
L 138.96 388.8 
L 138.96 61.7625 
L 139.518 388.8 
L 139.518 388.8 
L 140.076 62.184375 
L 140.076 388.8 
L 140.076 388.8 
L 140.076 388.8 
L 140.076 62.184375 
L 140.634 62.26875 
L 140.634 388.8 
L 141.192 62.184375 
L 141.192 388.8 
L 141.192 388.8 
L 141.75 62.775 
L 141.75 388.8 
L 142.308 62.184375 
L 142.308 62.184375 
L 142.308 388.8 
L 142.866 62.184375 
L 142.866 388.8 
L 143.424 388.8 
L 143.424 62.184375 
L 143.424 62.184375 
L 143.424 62.184375 
L 143.424 388.8 
L 143.982 225.703125 
L 143.982 61.93125 
L 144.54 388.8 
L 144.54 61.846875 
L 144.54 61.846875 
L 145.098 388.8 
L 145.098 62.184375 
L 145.098 62.184375 
L 145.098 62.184375 
L 145.098 388.8 
L 145.656 388.8 
L 145.656 62.184375 
L 146.214 388.8 
L 146.214 388.8 
L 146.214 62.015625 
L 146.772 388.8 
L 146.772 62.184375 
L 147.33 62.184375 
L 147.33 388.8 
L 147.33 388.8 
L 147.33 388.8 
L 147.33 62.184375 
L 147.888 62.353125 
L 147.888 388.8 
L 148.446 62.184375 
L 148.446 388.8 
L 148.446 388.8 
L 149.004 62.184375 
L 149.004 388.8 
L 149.562 388.8 
L 149.562 61.93125 
L 149.562 61.93125 
L 149.562 61.93125 
L 149.562 388.8 
L 150.12 388.8 
L 150.12 62.184375 
L 150.678 388.8 
L 150.678 62.184375 
L 150.678 62.184375 
L 151.236 388.8 
L 151.236 62.184375 
L 151.794 388.8 
L 152.352 62.015625 
L 152.352 388.8 
L 152.352 388.8 
L 152.91 62.1 
L 152.91 388.8 
L 153.468 388.8 
L 153.468 62.184375 
L 153.468 62.184375 
L 153.468 62.184375 
L 153.468 388.8 
L 154.026 388.8 
L 154.026 62.184375 
L 154.584 388.8 
L 154.584 388.8 
L 154.584 62.184375 
L 155.142 388.8 
L 155.142 172.125 
L 155.7 62.184375 
L 155.7 388.8 
L 155.7 388.8 
L 155.7 388.8 
L 155.7 61.846875 
L 156.258 62.184375 
L 156.258 388.8 
L 156.816 62.184375 
L 156.816 62.184375 
L 157.374 388.8 
L 157.374 62.184375 
L 157.374 62.184375 
L 157.932 388.8 
L 157.932 62.184375 
L 158.49 62.015625 
L 158.49 388.8 
L 158.49 62.184375 
L 159.048 62.4375 
L 159.048 388.8 
L 159.606 62.184375 
L 159.606 62.184375 
L 160.164 388.8 
L 160.164 61.93125 
L 160.722 388.8 
L 160.722 281.475 
L 161.28 62.184375 
L 161.28 388.8 
L 161.28 388.8 
L 161.838 62.015625 
L 161.838 388.8 
L 162.396 388.8 
L 162.396 62.015625 
L 162.954 388.8 
L 162.954 388.8 
L 162.954 62.184375 
L 163.512 388.8 
L 163.512 388.8 
L 164.07 62.184375 
L 164.07 388.8 
L 164.07 388.8 
L 164.628 62.353125 
L 164.628 388.8 
L 165.186 388.8 
L 165.186 62.26875 
L 165.744 388.8 
L 165.744 388.8 
L 165.744 62.184375 
L 166.302 62.521875 
L 166.302 388.8 
L 166.86 61.509375 
L 166.86 62.184375 
L 167.418 388.8 
L 167.418 61.846875 
L 167.418 62.353125 
L 167.976 388.8 
L 167.976 359.859375 
L 168.534 62.184375 
L 168.534 388.8 
L 169.092 388.8 
L 169.092 62.184375 
L 169.092 62.184375 
L 169.092 62.184375 
L 169.092 388.8 
L 169.65 388.8 
L 169.65 62.184375 
L 170.208 388.8 
L 170.208 388.8 
L 170.208 62.353125 
L 170.766 62.015625 
L 170.766 388.8 
L 171.324 131.9625 
L 171.324 62.184375 
L 171.882 388.8 
L 171.882 388.8 
L 172.44 62.184375 
L 172.44 388.8 
L 172.44 388.8 
L 172.998 62.184375 
L 172.998 388.8 
L 173.556 388.8 
L 173.556 62.184375 
L 174.114 86.90625 
L 174.114 388.8 
L 174.114 388.8 
L 174.114 388.8 
L 174.114 62.184375 
L 174.672 62.353125 
L 174.672 388.8 
L 175.23 388.8 
L 175.23 62.184375 
L 175.788 388.8 
L 175.788 388.8 
L 175.788 62.015625 
L 176.346 62.184375 
L 176.346 388.8 
L 176.904 388.8 
L 176.904 62.184375 
L 177.462 388.8 
L 177.462 388.8 
L 178.02 62.015625 
L 178.02 388.8 
L 178.578 62.015625 
L 178.578 62.184375 
L 179.136 388.8 
L 179.136 388.8 
L 179.694 62.184375 
L 179.694 388.8 
L 179.694 388.8 
L 180.252 62.184375 
L 180.252 62.184375 
L 180.81 388.8 
L 180.81 388.8 
L 181.368 62.1 
L 181.368 388.8 
L 181.926 388.8 
L 181.926 62.184375 
L 181.926 62.184375 
L 182.484 388.8 
L 182.484 388.8 
L 183.042 62.184375 
L 183.042 388.8 
L 183.6 388.8 
L 183.6 62.184375 
L 184.158 62.184375 
L 184.158 388.8 
L 184.158 388.8 
L 184.716 62.184375 
L 184.716 388.8 
L 185.274 388.8 
L 185.274 62.184375 
L 185.832 62.353125 
L 185.832 388.8 
L 186.39 388.8 
L 186.39 62.184375 
L 186.948 388.8 
L 186.948 144.871875 
L 187.506 62.184375 
L 187.506 388.8 
L 188.064 388.8 
L 188.064 62.184375 
L 188.622 62.60625 
L 188.622 388.8 
L 189.18 388.8 
L 189.18 62.184375 
L 189.738 83.784375 
L 189.738 388.8 
L 189.738 355.134375 
L 190.296 62.184375 
L 190.296 388.8 
L 190.854 388.8 
L 190.854 62.353125 
L 191.412 62.353125 
L 191.412 388.8 
L 191.97 388.8 
L 191.97 62.184375 
L 192.528 62.184375 
L 192.528 388.8 
L 192.528 388.8 
L 193.086 62.184375 
L 193.086 62.184375 
L 193.644 388.8 
L 193.644 388.8 
L 194.202 62.184375 
L 194.202 363.740625 
L 194.76 388.8 
L 194.76 62.184375 
L 195.318 62.1 
L 195.318 388.8 
L 195.876 62.015625 
L 195.876 62.184375 
L 196.434 388.8 
L 196.434 388.8 
L 196.992 61.93125 
L 196.992 62.184375 
L 197.55 388.8 
L 197.55 388.8 
L 198.108 62.184375 
L 198.666 388.8 
L 198.666 388.8 
L 198.666 62.184375 
L 199.224 62.184375 
L 199.224 388.8 
L 199.782 388.8 
L 199.782 62.184375 
L 200.34 62.184375 
L 200.34 388.8 
L 200.898 388.8 
L 200.898 62.015625 
L 201.456 62.775 
L 201.456 388.8 
L 202.014 388.8 
L 202.014 62.015625 
L 202.572 62.184375 
L 202.572 388.8 
L 202.572 388.8 
L 203.13 62.184375 
L 203.688 388.8 
L 203.688 388.8 
L 204.246 62.184375 
L 204.246 62.184375 
L 204.804 388.8 
L 204.804 388.8 
L 205.362 128.671875 
L 205.362 62.184375 
L 205.92 388.8 
L 206.478 388.8 
L 206.478 62.184375 
L 207.036 316.06875 
L 207.036 388.8 
L 207.594 388.8 
L 207.594 62.184375 
L 207.594 62.184375 
L 208.152 388.8 
L 208.152 388.8 
L 208.71 62.353125 
L 208.71 62.521875 
L 209.268 388.8 
L 209.268 388.8 
L 209.826 62.184375 
L 210.384 293.203125 
L 210.384 388.8 
L 210.942 388.8 
L 210.942 62.015625 
L 211.5 62.184375 
L 211.5 388.8 
L 212.058 388.8 
L 212.058 62.184375 
L 212.616 62.26875 
L 212.616 388.8 
L 213.174 388.8 
L 213.174 268.228125 
L 213.732 62.184375 
L 213.732 62.26875 
L 214.29 388.8 
L 214.29 388.8 
L 214.29 62.353125 
L 214.848 62.521875 
L 214.848 388.8 
L 215.406 388.8 
L 215.406 275.146875 
L 215.964 62.184375 
L 216.522 388.8 
L 216.522 388.8 
L 217.08 62.1 
L 217.08 62.184375 
L 217.638 166.978125 
L 217.638 388.8 
L 218.196 388.8 
L 218.196 62.184375 
L 218.754 62.521875 
L 218.754 388.8 
L 219.312 388.8 
L 219.312 318.09375 
L 219.87 62.1 
L 220.428 388.8 
L 220.428 388.8 
L 220.986 62.184375 
L 221.544 62.184375 
L 221.544 388.8 
L 222.102 388.8 
L 222.102 62.184375 
L 222.66 62.184375 
L 222.66 388.8 
L 223.218 388.8 
L 223.218 388.8 
L 223.776 62.184375 
L 224.334 388.8 
L 224.334 388.8 
L 224.892 388.8 
L 224.892 62.184375 
L 225.45 62.690625 
L 225.45 388.8 
L 226.008 388.8 
L 226.008 388.8 
L 226.566 62.353125 
L 227.124 388.8 
L 227.682 172.040625 
L 227.682 62.184375 
L 228.24 61.425 
L 228.24 388.8 
L 228.798 388.8 
L 228.798 68.00625 
L 229.356 62.184375 
L 229.356 62.184375 
L 229.914 388.8 
L 229.914 388.8 
L 230.472 62.1 
L 231.03 62.184375 
L 231.03 388.8 
L 231.588 388.8 
L 231.588 135.759375 
L 232.146 62.184375 
L 232.146 62.184375 
L 232.704 388.8 
L 232.704 388.8 
L 233.262 130.359375 
L 233.262 62.353125 
L 233.82 62.184375 
L 233.82 388.8 
L 234.378 388.8 
L 234.378 388.8 
L 234.936 62.184375 
L 234.936 62.26875 
L 235.494 388.8 
L 235.494 388.8 
L 236.052 388.8 
L 236.052 62.184375 
L 236.61 62.184375 
L 236.61 388.8 
L 237.168 388.8 
L 237.168 388.8 
L 237.726 62.184375 
L 237.726 62.184375 
L 238.284 388.8 
L 238.284 388.8 
L 238.842 388.8 
L 238.842 62.184375 
L 239.4 62.184375 
L 239.4 388.8 
L 239.958 388.8 
L 239.958 388.8 
L 240.516 62.184375 
L 240.516 62.184375 
L 241.074 388.8 
L 241.632 388.8 
L 241.632 62.184375 
L 242.19 62.26875 
L 242.19 62.184375 
L 242.748 388.8 
L 242.748 388.8 
L 243.306 388.8 
L 243.306 62.184375 
L 243.864 62.184375 
L 243.864 62.1 
L 244.422 388.8 
L 244.422 388.8 
L 244.98 388.8 
L 244.98 62.26875 
L 245.538 62.1 
L 246.096 388.8 
L 246.096 388.8 
L 246.654 388.8 
L 246.654 62.184375 
L 247.212 62.184375 
L 247.212 62.184375 
L 247.77 388.8 
L 247.77 388.8 
L 248.328 388.8 
L 248.328 62.184375 
L 248.886 62.015625 
L 249.444 62.184375 
L 249.444 388.8 
L 250.56 388.8 
L 251.676 62.184375 
L 251.676 376.903125 
L 252.234 388.8 
L 252.234 62.1 
L 252.234 62.1 
L 252.234 62.1 
L 252.234 388.8 
L 252.234 62.184375 
L 252.792 388.8 
L 252.792 62.184375 
L 252.792 62.184375 
L 252.792 62.184375 
L 252.792 388.8 
L 253.35 376.48125 
L 253.35 149.85 
L 253.35 149.85 
L 253.35 149.85 
L 253.35 388.8 
L 253.35 388.8 
L 253.35 388.8 
L 253.35 62.015625 
L 253.908 388.8 
L 253.908 62.015625 
L 253.908 62.015625 
L 253.908 62.015625 
L 253.908 388.8 
L 253.908 62.26875 
L 254.466 388.8 
L 254.466 379.18125 
L 254.466 62.184375 
L 255.024 388.8 
L 255.024 62.353125 
L 255.024 62.353125 
L 255.024 62.353125 
L 255.024 388.8 
L 255.024 388.8 
L 255.024 388.8 
L 255.024 62.1 
L 255.582 388.8 
L 255.582 62.26875 
L 255.582 62.26875 
L 255.582 62.26875 
L 255.582 388.8 
L 256.14 181.575 
L 256.14 388.8 
L 256.14 388.8 
L 256.14 388.8 
L 256.14 61.93125 
L 256.698 388.8 
L 256.698 62.015625 
L 256.698 62.015625 
L 256.698 62.015625 
L 256.698 388.8 
L 257.256 62.353125 
L 257.256 388.8 
L 257.256 388.8 
L 257.256 388.8 
L 257.256 62.1 
L 257.256 62.1 
L 257.256 62.1 
L 257.256 388.8 
L 257.814 374.203125 
L 257.814 346.865625 
L 257.814 346.865625 
L 257.814 346.865625 
L 257.814 388.8 
L 257.814 388.8 
L 257.814 388.8 
L 257.814 62.184375 
L 258.372 388.8 
L 258.372 62.015625 
L 258.372 62.015625 
L 258.372 62.015625 
L 258.372 388.8 
L 258.93 62.184375 
L 258.93 388.8 
L 258.93 388.8 
L 258.93 388.8 
L 258.93 62.184375 
L 258.93 62.184375 
L 258.93 62.184375 
L 258.93 388.8 
L 259.488 93.740625 
L 259.488 388.8 
L 259.488 388.8 
L 260.046 62.184375 
L 260.046 388.8 
L 260.046 388.8 
L 260.046 388.8 
L 260.046 62.184375 
L 260.046 62.184375 
L 260.046 62.184375 
L 260.046 388.8 
L 260.604 62.521875 
L 260.604 388.8 
L 260.604 388.8 
L 260.604 388.8 
L 260.604 61.93125 
L 261.162 388.8 
L 261.162 62.184375 
L 261.162 62.184375 
L 261.162 62.184375 
L 261.162 388.8 
L 261.72 62.184375 
L 261.72 388.8 
L 261.72 226.8 
L 262.278 388.8 
L 262.278 61.509375 
L 262.278 61.509375 
L 262.278 61.509375 
L 262.278 388.8 
L 262.836 61.846875 
L 262.836 388.8 
L 262.836 388.8 
L 263.394 61.509375 
L 263.394 388.8 
L 263.394 62.184375 
L 263.952 388.8 
L 263.952 62.015625 
L 263.952 62.015625 
L 263.952 62.015625 
L 263.952 388.8 
L 264.51 62.184375 
L 264.51 388.8 
L 264.51 388.8 
L 264.51 388.8 
L 264.51 62.184375 
L 264.51 62.184375 
L 264.51 62.184375 
L 264.51 388.8 
L 265.068 62.184375 
L 265.068 388.8 
L 265.068 367.959375 
L 265.626 197.26875 
L 265.626 365.765625 
L 265.626 205.36875 
L 266.184 388.8 
L 266.184 153.984375 
L 266.184 153.984375 
L 266.184 153.984375 
L 266.184 388.8 
L 266.184 388.8 
L 266.184 388.8 
L 266.184 61.846875 
L 266.742 388.8 
L 266.742 62.184375 
L 266.742 62.184375 
L 266.742 62.184375 
L 266.742 388.8 
L 267.3 62.184375 
L 267.3 388.8 
L 267.3 388.8 
L 267.3 388.8 
L 267.3 62.015625 
L 267.858 388.8 
L 267.858 62.015625 
L 267.858 62.015625 
L 267.858 62.015625 
L 267.858 388.8 
L 267.858 388.8 
L 267.858 388.8 
L 267.858 62.015625 
L 268.416 388.8 
L 268.416 61.93125 
L 268.416 61.93125 
L 268.416 61.93125 
L 268.416 388.8 
L 268.974 61.846875 
L 268.974 388.8 
L 268.974 62.184375 
L 269.532 388.8 
L 269.532 62.184375 
L 269.532 62.184375 
L 269.532 62.184375 
L 269.532 388.8 
L 270.09 62.184375 
L 270.09 388.8 
L 270.09 388.8 
L 270.09 388.8 
L 270.09 61.93125 
L 270.09 61.93125 
L 270.09 61.93125 
L 270.09 388.8 
L 270.648 62.184375 
L 270.648 388.8 
L 270.648 388.8 
L 270.648 388.8 
L 270.648 61.846875 
L 271.206 388.8 
L 271.206 62.184375 
L 271.206 62.184375 
L 271.206 62.184375 
L 271.206 388.8 
L 271.764 62.015625 
L 271.764 388.8 
L 271.764 388.8 
L 271.764 388.8 
L 271.764 61.93125 
L 272.322 388.8 
L 272.322 61.59375 
L 272.322 61.59375 
L 272.322 61.59375 
L 272.322 388.8 
L 272.88 61.846875 
L 272.88 388.8 
L 272.88 388.8 
L 272.88 388.8 
L 272.88 61.846875 
L 273.438 388.8 
L 273.438 62.184375 
L 273.438 62.184375 
L 273.438 62.184375 
L 273.438 388.8 
L 273.438 388.8 
L 273.438 388.8 
L 273.438 62.184375 
L 273.996 388.8 
L 273.996 168.496875 
L 273.996 168.496875 
L 273.996 168.496875 
L 273.996 388.8 
L 274.554 388.8 
L 274.554 371.165625 
L 274.554 371.165625 
L 274.554 371.165625 
L 274.554 388.8 
L 275.112 371.25 
L 275.112 388.8 
L 275.112 388.8 
L 275.112 388.8 
L 275.112 62.690625 
L 275.67 388.8 
L 275.67 61.846875 
L 275.67 61.846875 
L 275.67 61.846875 
L 275.67 388.8 
L 276.228 61.846875 
L 276.228 388.8 
L 276.228 388.8 
L 276.228 388.8 
L 276.228 61.846875 
L 276.786 388.8 
L 276.786 61.846875 
L 276.786 61.846875 
L 276.786 61.846875 
L 276.786 388.8 
L 277.344 62.184375 
L 277.344 388.8 
L 277.344 388.8 
L 277.344 388.8 
L 277.344 61.846875 
L 277.902 388.8 
L 277.902 61.678125 
L 277.902 61.678125 
L 277.902 61.678125 
L 277.902 388.8 
L 278.46 61.846875 
L 278.46 388.8 
L 278.46 61.93125 
L 279.018 388.8 
L 279.018 317.25 
L 279.018 317.25 
L 279.018 317.25 
L 279.018 388.8 
L 279.576 62.184375 
L 279.576 388.8 
L 279.576 388.8 
L 279.576 388.8 
L 279.576 61.7625 
L 280.134 388.8 
L 280.134 62.184375 
L 280.134 62.184375 
L 280.134 62.184375 
L 280.134 388.8 
L 280.692 62.184375 
L 280.692 388.8 
L 280.692 388.8 
L 280.692 388.8 
L 280.692 62.015625 
L 281.25 388.8 
L 281.25 62.184375 
L 281.25 62.184375 
L 281.25 62.184375 
L 281.25 388.8 
L 281.808 201.234375 
L 281.808 388.8 
L 282.366 62.184375 
L 282.366 388.8 
L 282.366 388.8 
L 282.366 388.8 
L 282.366 62.184375 
L 282.924 388.8 
L 282.924 61.846875 
L 282.924 61.846875 
L 282.924 61.846875 
L 282.924 388.8 
L 283.482 62.015625 
L 283.482 388.8 
L 283.482 388.8 
L 283.482 388.8 
L 283.482 61.846875 
L 284.04 388.8 
L 284.04 80.071875 
L 284.04 80.071875 
L 284.04 80.071875 
L 284.04 388.8 
L 284.598 388.8 
L 284.598 62.184375 
L 284.598 62.184375 
L 284.598 62.184375 
L 284.598 388.8 
L 285.156 62.015625 
L 285.156 388.8 
L 285.714 383.90625 
L 285.714 388.8 
L 286.272 383.821875 
L 286.272 388.8 
L 286.272 387.45 
L 286.83 387.61875 
L 286.83 388.8 
L 286.83 388.8 
L 286.83 388.8 
L 286.83 385.0875 
L 286.83 385.0875 
L 286.83 385.0875 
L 286.83 388.8 
L 287.388 383.821875 
L 287.388 388.8 
L 287.388 388.8 
L 287.946 388.8 
L 287.946 385.93125 
L 287.946 385.93125 
L 287.946 385.93125 
L 287.946 388.8 
L 287.946 388.8 
L 287.946 388.8 
L 287.946 383.821875 
L 288.504 388.8 
L 288.504 384.24375 
L 288.504 384.24375 
L 288.504 384.24375 
L 288.504 388.8 
L 289.062 388.8 
L 289.062 387.7875 
L 289.062 387.7875 
L 289.062 387.7875 
L 289.062 388.8 
L 289.062 388.8 
L 289.062 388.8 
L 289.062 384.665625 
L 289.62 388.8 
L 289.62 383.90625 
L 289.62 383.90625 
L 289.62 383.90625 
L 289.62 388.8 
L 290.178 386.1 
L 290.178 388.8 
L 290.178 386.4375 
L 290.736 388.8 
L 290.736 385.171875 
L 290.736 385.171875 
L 290.736 385.171875 
L 290.736 388.8 
L 290.736 388.8 
L 290.736 388.8 
L 290.736 383.90625 
L 291.294 388.8 
L 291.294 386.26875 
L 291.294 386.26875 
L 291.294 386.26875 
L 291.294 388.8 
L 291.852 388.8 
L 291.852 387.196875 
L 291.852 387.196875 
L 291.852 387.196875 
L 291.852 388.8 
L 291.852 388.8 
L 291.852 388.8 
L 291.852 384.665625 
L 292.41 388.8 
L 292.41 383.990625 
L 292.41 383.990625 
L 292.41 383.990625 
L 292.41 388.8 
L 292.41 384.834375 
L 292.968 388.8 
L 292.968 387.365625 
L 292.968 388.546875 
L 293.526 388.8 
L 293.526 386.60625 
L 293.526 386.60625 
L 293.526 386.60625 
L 293.526 388.8 
L 293.526 388.8 
L 293.526 388.8 
L 293.526 384.4125 
L 294.084 388.8 
L 294.084 383.90625 
L 294.084 383.90625 
L 294.084 383.90625 
L 294.084 388.8 
L 294.642 385.340625 
L 294.642 388.8 
L 294.642 388.8 
L 295.2 388.8 
L 295.2 386.859375 
L 295.2 386.859375 
L 295.2 386.859375 
L 295.2 388.8 
L 295.758 384.75 
L 295.758 388.8 
L 295.758 388.8 
L 295.758 388.8 
L 295.758 384.24375 
L 295.758 384.24375 
L 295.758 384.24375 
L 295.758 388.8 
L 296.316 383.90625 
L 296.316 388.8 
L 296.316 385.678125 
L 296.874 388.8 
L 296.874 387.028125 
L 296.874 387.028125 
L 296.874 387.028125 
L 296.874 388.8 
L 296.874 388.8 
L 297.432 387.534375 
L 297.432 388.8 
L 297.432 388.8 
L 297.432 388.8 
L 297.432 385.340625 
L 297.99 388.8 
L 297.99 384.75 
L 297.99 384.75 
L 297.99 384.75 
L 297.99 388.8 
L 298.548 383.90625 
L 298.548 388.8 
L 298.548 388.8 
L 298.548 388.8 
L 298.548 383.821875 
L 298.548 383.821875 
L 298.548 383.821875 
L 298.548 388.8 
L 299.106 384.496875 
L 299.106 388.8 
L 299.106 386.859375 
L 299.664 388.8 
L 299.664 387.45 
L 299.664 388.715625 
L 299.664 388.715625 
L 299.664 388.8 
L 300.222 387.534375 
L 300.222 388.8 
L 300.222 388.8 
L 300.222 388.8 
L 300.222 385.59375 
L 300.78 388.8 
L 300.78 385.25625 
L 300.78 385.25625 
L 300.78 385.25625 
L 300.78 388.8 
L 301.338 384.24375 
L 301.338 388.8 
L 301.338 388.8 
L 301.338 388.8 
L 301.338 384.159375 
L 301.338 384.159375 
L 301.338 384.159375 
L 301.338 388.8 
L 301.896 383.821875 
L 301.896 388.8 
L 301.896 383.990625 
L 302.454 388.8 
L 302.454 384.159375 
L 302.454 384.159375 
L 302.454 384.159375 
L 302.454 388.8 
L 303.012 386.4375 
L 303.012 388.8 
L 303.012 388.8 
L 303.57 388.209375 
L 303.57 388.8 
L 303.57 388.378125 
L 304.128 387.95625 
L 304.128 388.4625 
L 304.128 388.4625 
L 304.128 388.4625 
L 304.128 387.95625 
L 304.686 388.8 
L 304.686 387.95625 
L 304.686 387.95625 
L 304.686 387.95625 
L 304.686 388.8 
L 304.686 388.8 
L 304.686 388.8 
L 304.686 386.690625 
L 305.244 388.8 
L 305.244 386.26875 
L 305.244 386.26875 
L 305.244 386.26875 
L 305.244 388.8 
L 305.802 385.25625 
L 305.802 388.8 
L 305.802 385.340625 
L 306.36 388.8 
L 306.36 385.509375 
L 306.36 385.509375 
L 306.36 385.509375 
L 306.36 388.8 
L 306.36 388.8 
L 306.36 388.8 
L 306.36 384.834375 
L 306.918 388.8 
L 306.918 385.003125 
L 306.918 385.003125 
L 306.918 385.003125 
L 306.918 388.8 
L 307.476 384.91875 
L 307.476 388.8 
L 307.476 388.8 
L 307.476 388.8 
L 307.476 384.834375 
L 308.034 388.8 
L 308.034 384.58125 
L 308.034 384.58125 
L 308.034 384.58125 
L 308.034 388.8 
L 308.592 384.24375 
L 308.592 388.8 
L 308.592 384.496875 
L 309.15 388.8 
L 309.15 384.834375 
L 309.15 384.834375 
L 309.15 384.834375 
L 309.15 388.8 
L 309.15 388.8 
L 309.15 388.8 
L 309.15 384.4125 
L 309.708 388.8 
L 309.708 384.75 
L 309.708 384.75 
L 309.708 384.75 
L 309.708 388.8 
L 310.266 385.003125 
L 310.266 388.8 
L 310.266 388.8 
L 310.266 388.8 
L 310.266 384.665625 
L 310.824 388.8 
L 310.824 385.0875 
L 310.824 385.0875 
L 310.824 385.0875 
L 310.824 388.8 
L 311.382 384.834375 
L 311.382 388.8 
L 311.382 385.509375 
L 311.94 388.8 
L 311.94 386.353125 
L 311.94 386.353125 
L 311.94 386.353125 
L 311.94 388.8 
L 311.94 388.8 
L 311.94 388.8 
L 311.94 386.1 
L 312.498 388.8 
L 312.498 387.028125 
L 312.498 387.028125 
L 312.498 387.028125 
L 312.498 388.8 
L 313.056 388.125 
L 313.056 388.8 
L 313.056 388.8 
L 313.056 388.8 
L 313.056 387.95625 
L 313.614 388.209375 
L 313.614 388.8 
L 313.614 388.378125 
L 314.172 388.715625 
L 314.172 388.040625 
L 314.172 388.040625 
L 314.172 388.040625 
L 314.172 388.8 
L 314.73 388.125 
L 314.73 388.8 
L 314.73 388.8 
L 314.73 388.8 
L 314.73 386.859375 
L 315.288 388.8 
L 315.288 384.496875 
L 315.288 384.496875 
L 315.288 384.496875 
L 315.288 388.8 
L 315.846 384.328125 
L 315.846 388.8 
L 315.846 388.8 
L 315.846 388.8 
L 315.846 383.90625 
L 316.404 388.8 
L 316.404 384.159375 
L 316.404 384.159375 
L 316.404 384.159375 
L 316.404 388.8 
L 316.404 388.8 
L 316.404 388.8 
L 316.404 384.159375 
L 316.962 388.8 
L 316.962 384.91875 
L 316.962 384.91875 
L 316.962 384.91875 
L 316.962 388.8 
L 317.52 386.353125 
L 317.52 388.8 
L 317.52 386.859375 
L 318.078 388.378125 
L 318.078 388.8 
L 318.078 388.8 
L 318.078 388.8 
L 318.078 387.95625 
L 318.636 388.8 
L 318.636 386.184375 
L 318.636 386.184375 
L 318.636 386.184375 
L 318.636 388.8 
L 319.194 384.075 
L 319.194 388.8 
L 319.194 388.8 
L 319.194 388.8 
L 319.194 383.90625 
L 319.752 388.8 
L 319.752 384.075 
L 319.752 384.075 
L 319.752 384.075 
L 319.752 388.8 
L 320.31 385.0875 
L 320.31 388.8 
L 320.31 385.678125 
L 320.868 388.8 
L 320.868 387.871875 
L 320.868 388.546875 
L 321.426 388.8 
L 321.426 386.521875 
L 321.426 386.521875 
L 321.426 386.521875 
L 321.426 388.8 
L 321.984 383.821875 
L 321.984 388.8 
L 321.984 384.075 
L 322.542 388.8 
L 322.542 385.509375 
L 322.542 385.509375 
L 322.542 385.509375 
L 322.542 388.8 
L 323.1 387.95625 
L 323.1 388.8 
L 323.658 386.1 
L 323.658 388.8 
L 323.658 388.8 
L 323.658 388.8 
L 323.658 384.159375 
L 324.216 388.8 
L 324.216 383.990625 
L 324.216 383.990625 
L 324.216 383.990625 
L 324.216 388.8 
L 324.774 385.0875 
L 324.774 388.8 
L 324.774 386.184375 
L 325.332 388.8 
L 325.332 388.8 
L 325.89 387.365625 
L 325.89 388.8 
L 325.89 388.8 
L 325.89 388.8 
L 325.89 384.075 
L 326.448 388.8 
L 326.448 384.159375 
L 326.448 384.159375 
L 326.448 384.159375 
L 326.448 388.8 
L 327.006 384.91875 
L 327.006 388.8 
L 327.006 387.703125 
L 327.564 388.378125 
L 327.564 388.8 
L 327.564 388.8 
L 327.564 388.8 
L 327.564 385.0875 
L 328.122 388.8 
L 328.122 383.90625 
L 328.122 383.90625 
L 328.122 383.90625 
L 328.122 388.8 
L 328.68 384.159375 
L 328.68 388.8 
L 328.68 385.171875 
L 329.238 388.8 
L 329.238 387.871875 
L 329.238 388.125 
L 329.796 388.8 
L 329.796 384.328125 
L 329.796 384.328125 
L 329.796 384.328125 
L 329.796 388.8 
L 330.354 383.90625 
L 330.354 388.8 
L 330.354 384.91875 
L 330.912 388.8 
L 330.912 388.125 
L 330.912 387.871875 
L 331.47 388.8 
L 331.47 383.990625 
L 331.47 383.990625 
L 331.47 383.990625 
L 331.47 388.8 
L 332.028 384.4125 
L 332.028 388.8 
L 332.586 385.846875 
L 332.586 388.8 
L 333.144 386.1 
L 333.144 388.8 
L 333.144 388.8 
L 333.144 388.8 
L 333.144 383.821875 
L 333.702 388.8 
L 333.702 384.75 
L 333.702 384.75 
L 333.702 384.75 
L 333.702 388.8 
L 334.26 387.871875 
L 334.26 387.871875 
L 334.26 388.8 
L 334.818 383.990625 
L 334.818 388.8 
L 334.818 384.159375 
L 335.376 388.8 
L 335.376 387.028125 
L 335.934 388.4625 
L 335.934 388.8 
L 335.934 388.8 
L 335.934 388.8 
L 335.934 384.075 
L 336.492 388.8 
L 336.492 384.496875 
L 336.492 384.496875 
L 336.492 384.496875 
L 336.492 388.8 
L 337.05 387.703125 
L 337.05 387.871875 
L 337.05 388.8 
L 337.608 383.90625 
L 337.608 388.8 
L 337.608 384.496875 
L 338.166 388.8 
L 338.166 388.209375 
L 338.724 387.534375 
L 338.724 388.8 
L 338.724 388.8 
L 338.724 388.8 
L 338.724 383.821875 
L 339.282 388.8 
L 339.282 385.171875 
L 339.282 385.171875 
L 339.282 385.171875 
L 339.282 388.8 
L 339.84 388.8 
L 339.84 386.353125 
L 339.84 386.353125 
L 339.84 386.353125 
L 339.84 388.8 
L 340.398 383.990625 
L 340.398 388.8 
L 340.398 385.93125 
L 340.956 388.040625 
L 340.956 388.8 
L 341.514 384.075 
L 341.514 388.8 
L 341.514 384.91875 
L 342.072 388.8 
L 342.072 388.8 
L 342.072 386.184375 
L 342.63 388.8 
L 342.63 384.159375 
L 342.63 384.159375 
L 342.63 384.159375 
L 342.63 388.8 
L 343.188 388.040625 
L 343.188 387.196875 
L 343.746 388.8 
L 343.746 383.7375 
L 343.746 383.7375 
L 343.746 383.7375 
L 343.746 388.8 
L 344.304 386.26875 
L 344.304 388.8 
L 344.304 388.8 
L 344.862 383.821875 
L 344.862 388.8 
L 345.42 384.834375 
L 345.42 388.8 
L 345.42 388.8 
L 345.978 383.990625 
L 345.978 388.8 
L 345.978 384.58125 
L 346.536 388.8 
L 346.536 388.8 
L 346.536 385.7625 
L 347.094 388.8 
L 347.094 384.496875 
L 347.652 388.8 
L 347.652 388.8 
L 347.652 385.93125 
L 348.21 388.8 
L 348.21 384.496875 
L 348.21 384.496875 
L 348.21 384.496875 
L 348.21 388.8 
L 348.768 388.8 
L 348.768 384.496875 
L 349.326 388.8 
L 349.326 384.91875 
L 349.326 384.91875 
L 349.326 384.91875 
L 349.326 388.8 
L 349.884 388.8 
L 349.884 383.990625 
L 349.884 383.990625 
L 349.884 383.990625 
L 349.884 388.8 
L 350.442 385.59375 
L 350.442 388.8 
L 351 388.8 
L 351 383.990625 
L 351 383.990625 
L 351 383.990625 
L 351 388.8 
L 351.558 385.846875 
L 351.558 388.8 
L 351.558 388.8 
L 352.116 383.821875 
L 352.116 388.8 
L 352.674 387.196875 
L 352.674 387.534375 
L 352.674 388.8 
L 353.232 384.159375 
L 353.232 388.8 
L 353.79 387.95625 
L 353.79 384.4125 
L 353.79 384.4125 
L 353.79 384.4125 
L 353.79 388.8 
L 354.348 385.340625 
L 354.348 388.8 
L 354.348 388.8 
L 354.906 383.821875 
L 354.906 388.8 
L 355.464 386.26875 
L 355.464 388.8 
L 356.022 384.159375 
L 356.022 388.8 
L 356.022 388.209375 
L 356.58 384.24375 
L 356.58 388.8 
L 357.138 385.7625 
L 357.138 388.8 
L 357.696 384.075 
L 357.696 388.8 
L 358.254 388.8 
L 358.254 384.4125 
L 358.254 384.4125 
L 358.254 384.4125 
L 358.254 388.8 
L 358.812 385.846875 
L 358.812 388.29375 
L 359.37 388.8 
L 359.37 383.90625 
L 359.37 383.90625 
L 359.37 383.90625 
L 359.37 388.8 
L 359.928 388.715625 
L 359.928 385.678125 
L 359.928 385.678125 
L 359.928 385.678125 
L 359.928 388.8 
L 360.486 385.678125 
L 360.486 388.63125 
L 361.044 388.8 
L 361.044 384.075 
L 361.044 384.075 
L 361.044 384.075 
L 361.044 388.8 
L 361.602 388.8 
L 361.602 384.075 
L 362.16 388.8 
L 362.16 387.028125 
L 362.16 387.028125 
L 362.718 388.8 
L 362.718 384.91875 
L 363.276 388.040625 
L 363.276 388.8 
L 363.276 388.8 
L 363.276 388.8 
L 363.276 383.990625 
L 363.834 388.8 
L 363.834 388.8 
L 364.392 383.821875 
L 364.392 388.8 
L 364.392 387.028125 
L 364.95 385.0875 
L 364.95 388.8 
L 365.508 385.846875 
L 365.508 388.8 
L 366.066 384.496875 
L 366.066 388.8 
L 366.624 388.8 
L 366.624 383.990625 
L 366.624 383.990625 
L 366.624 383.990625 
L 366.624 388.8 
L 367.182 388.8 
L 367.182 383.990625 
L 367.74 388.8 
L 367.74 386.353125 
L 368.298 388.8 
L 368.298 385.846875 
L 368.856 386.60625 
L 368.856 388.8 
L 368.856 388.8 
L 368.856 388.8 
L 368.856 384.834375 
L 369.414 387.871875 
L 369.414 388.8 
L 369.972 384.75 
L 369.972 388.8 
L 369.972 388.8 
L 370.53 384.159375 
L 370.53 388.8 
L 371.088 388.8 
L 371.088 383.90625 
L 371.088 383.90625 
L 371.088 383.90625 
L 371.088 388.8 
L 371.646 388.8 
L 371.646 383.990625 
L 372.204 388.8 
L 372.204 388.715625 
L 372.762 384.24375 
L 372.762 388.8 
L 372.762 387.1125 
L 373.32 384.24375 
L 373.32 388.8 
L 373.878 386.353125 
L 373.878 386.60625 
L 373.878 388.8 
L 374.436 386.26875 
L 374.436 387.1125 
L 374.994 388.8 
L 374.994 385.7625 
L 374.994 387.61875 
L 375.552 388.8 
L 375.552 385.509375 
L 376.11 386.690625 
L 376.11 388.8 
L 376.11 388.8 
L 376.11 388.8 
L 376.11 385.25625 
L 376.668 387.1125 
L 376.668 388.8 
L 377.226 385.93125 
L 377.226 387.365625 
L 377.784 388.8 
L 377.784 385.59375 
L 377.784 387.534375 
L 378.342 388.8 
L 378.342 385.7625 
L 378.9 386.353125 
L 378.9 388.8 
L 378.9 388.8 
L 378.9 388.8 
L 378.9 385.7625 
L 379.458 386.184375 
L 379.458 388.8 
L 380.016 387.28125 
L 380.016 385.846875 
L 380.574 388.8 
L 380.574 384.496875 
L 381.132 388.8 
L 381.132 388.209375 
L 381.69 383.990625 
L 381.69 388.8 
L 382.248 388.8 
L 382.248 383.990625 
L 382.248 383.990625 
L 382.248 383.990625 
L 382.248 388.8 
L 382.806 388.8 
L 382.806 383.90625 
L 383.364 388.8 
L 383.364 388.8 
L 383.364 383.90625 
L 383.922 388.8 
L 383.922 388.8 
L 384.48 384.496875 
L 384.48 388.8 
L 385.038 388.8 
L 385.038 385.003125 
L 385.038 388.040625 
L 385.596 388.8 
L 385.596 385.846875 
L 386.154 385.509375 
L 386.154 388.8 
L 386.712 388.546875 
L 386.712 384.075 
L 386.712 384.075 
L 386.712 384.075 
L 386.712 388.8 
L 387.27 388.8 
L 387.27 383.821875 
L 387.828 388.8 
L 387.828 388.8 
L 388.386 384.4125 
L 388.386 388.8 
L 388.386 388.8 
L 388.944 385.425 
L 388.944 387.28125 
L 389.502 388.8 
L 389.502 387.1125 
L 390.06 383.990625 
L 390.06 388.8 
L 390.06 388.8 
L 390.618 383.821875 
L 390.618 388.8 
L 391.176 388.8 
L 391.176 384.4125 
L 391.734 387.703125 
L 391.734 388.8 
L 391.734 388.8 
L 391.734 388.8 
L 391.734 385.678125 
L 392.292 386.521875 
L 392.292 388.8 
L 392.85 388.378125 
L 392.85 384.159375 
L 393.408 388.8 
L 393.408 388.8 
L 393.966 383.990625 
L 393.966 388.8 
L 393.966 388.8 
L 394.524 385.0875 
L 394.524 387.61875 
L 395.082 388.8 
L 395.082 387.365625 
L 395.64 383.90625 
L 395.64 388.8 
L 395.64 388.8 
L 396.198 384.24375 
L 396.198 388.8 
L 396.756 388.8 
L 396.756 385.93125 
L 397.314 384.328125 
L 397.314 388.8 
L 397.872 388.8 
L 397.872 383.90625 
L 397.872 383.90625 
L 397.872 383.90625 
L 397.872 388.8 
L 398.43 388.8 
L 398.43 385.25625 
L 398.988 385.171875 
L 398.988 388.8 
L 399.546 388.8 
L 399.546 383.90625 
L 400.104 388.8 
L 400.104 388.8 
L 400.104 384.834375 
L 400.662 386.184375 
L 400.662 388.8 
L 401.22 388.8 
L 401.22 383.821875 
L 401.778 388.8 
L 401.778 388.8 
L 402.336 385.93125 
L 402.336 386.184375 
L 402.336 388.8 
L 402.894 388.8 
L 402.894 383.990625 
L 403.452 388.8 
L 403.452 388.8 
L 404.01 386.859375 
L 404.01 384.328125 
L 404.568 388.8 
L 404.568 388.8 
L 404.568 384.24375 
L 405.126 387.871875 
L 405.126 388.8 
L 405.684 388.378125 
L 405.684 383.821875 
L 406.242 388.8 
L 406.242 388.8 
L 406.8 385.59375 
L 406.8 388.8 
L 407.358 388.8 
L 407.358 384.159375 
L 407.916 387.61875 
L 407.916 388.8 
L 408.474 388.8 
L 408.474 383.821875 
L 409.032 388.8 
L 409.032 388.8 
L 409.59 386.94375 
L 409.59 383.990625 
L 410.148 388.8 
L 410.148 388.8 
L 410.148 384.496875 
L 410.706 386.1 
L 410.706 388.8 
L 411.264 388.8 
L 411.264 384.159375 
L 411.822 387.196875 
L 412.938 388.8 
L 412.938 385.003125 
L 413.496 388.8 
L 413.496 388.29375 
L 413.496 386.60625 
L 414.054 388.8 
L 414.054 384.665625 
L 414.054 384.665625 
L 414.054 384.665625 
L 414.054 388.8 
L 414.054 388.8 
L 414.054 388.8 
L 414.054 383.990625 
L 414.612 388.8 
L 414.612 387.196875 
L 414.612 388.125 
L 414.612 388.125 
L 414.612 388.8 
L 415.17 385.425 
L 415.17 388.8 
L 415.17 388.8 
L 415.17 388.8 
L 415.17 383.821875 
L 415.728 388.8 
L 415.728 384.159375 
L 415.728 384.159375 
L 415.728 384.159375 
L 415.728 388.8 
L 415.728 388.209375 
L 416.286 387.028125 
L 416.286 388.8 
L 416.286 388.8 
L 416.286 388.8 
L 416.286 384.665625 
L 416.286 384.665625 
L 416.286 384.665625 
L 416.286 388.8 
L 416.844 383.90625 
L 416.844 388.8 
L 416.844 386.184375 
L 417.402 388.8 
L 417.402 388.29375 
L 417.402 387.28125 
L 417.402 387.28125 
L 417.402 387.28125 
L 417.402 388.8 
L 417.96 384.665625 
L 417.96 388.8 
L 417.96 388.8 
L 417.96 388.8 
L 417.96 384.075 
L 417.96 384.075 
L 417.96 384.075 
L 417.96 388.8 
L 418.518 384.159375 
L 418.518 388.8 
L 418.518 387.95625 
L 419.076 387.7875 
L 419.076 388.8 
L 419.076 388.8 
L 419.076 388.8 
L 419.076 385.340625 
L 419.076 385.340625 
L 419.076 385.340625 
L 419.076 388.8 
L 419.634 384.4125 
L 419.634 388.8 
L 419.634 388.8 
L 419.634 388.8 
L 419.634 383.821875 
L 420.192 388.8 
L 420.192 384.328125 
L 420.192 384.328125 
L 420.192 384.328125 
L 420.192 388.8 
L 420.192 388.040625 
L 420.75 388.8 
L 420.75 388.8 
L 420.75 385.93125 
L 421.308 388.8 
L 421.308 384.834375 
L 421.308 384.834375 
L 421.308 384.834375 
L 421.308 388.8 
L 421.308 388.8 
L 421.308 388.8 
L 421.308 383.90625 
L 421.866 388.8 
L 421.866 383.821875 
L 421.866 383.821875 
L 421.866 383.821875 
L 421.866 388.8 
L 422.424 386.1 
L 422.424 388.8 
L 422.424 388.125 
L 422.982 388.8 
L 422.982 386.94375 
L 422.982 386.94375 
L 422.982 386.94375 
L 422.982 388.8 
L 423.54 385.003125 
L 423.54 388.8 
L 423.54 388.8 
L 423.54 388.8 
L 423.54 384.4125 
L 423.54 384.4125 
L 423.54 384.4125 
L 423.54 388.8 
L 424.098 384.075 
L 424.098 388.8 
L 424.098 388.8 
L 424.098 388.8 
L 424.098 383.90625 
L 424.656 388.8 
L 424.656 384.24375 
L 424.656 384.24375 
L 424.656 384.24375 
L 424.656 388.8 
L 425.214 386.859375 
L 425.214 388.8 
L 425.214 388.8 
L 425.772 387.871875 
L 425.772 388.8 
L 426.33 387.534375 
L 426.33 388.8 
L 426.33 388.8 
L 426.33 388.8 
L 426.33 385.678125 
L 426.888 388.8 
L 426.888 385.425 
L 426.888 385.425 
L 426.888 385.425 
L 426.888 388.8 
L 426.888 388.8 
L 426.888 388.8 
L 426.888 384.496875 
L 427.446 388.8 
L 427.446 384.328125 
L 427.446 384.328125 
L 427.446 384.328125 
L 427.446 388.8 
L 428.004 384.075 
L 428.004 388.8 
L 428.004 388.8 
L 428.004 388.8 
L 428.004 383.90625 
L 428.562 388.8 
L 428.562 383.821875 
L 428.562 383.821875 
L 428.562 383.821875 
L 428.562 388.8 
L 428.562 383.990625 
L 429.12 388.8 
L 429.12 383.990625 
L 429.12 383.990625 
L 429.12 383.990625 
L 429.12 388.8 
L 429.678 383.990625 
L 429.678 388.8 
L 429.678 384.159375 
L 430.236 388.8 
L 430.236 384.24375 
L 430.236 384.24375 
L 430.236 384.24375 
L 430.236 388.8 
L 430.794 385.678125 
L 430.794 388.8 
L 430.794 388.8 
L 430.794 388.8 
L 430.794 384.328125 
L 430.794 384.328125 
L 430.794 384.328125 
L 430.794 388.8 
L 431.352 384.075 
L 431.352 388.8 
L 431.352 384.4125 
L 431.91 388.8 
L 431.91 384.075 
L 431.91 384.075 
L 431.91 384.075 
L 431.91 388.8 
L 432.468 383.990625 
L 432.468 388.8 
L 432.468 384.159375 
L 433.026 388.8 
L 433.026 384.24375 
L 433.026 384.24375 
L 433.026 384.24375 
L 433.026 388.8 
L 433.026 385.25625 
L 433.584 388.8 
L 433.584 384.24375 
L 433.584 384.24375 
L 433.584 384.24375 
L 433.584 388.8 
L 434.142 383.90625 
L 434.142 388.8 
L 434.142 383.990625 
L 434.7 388.8 
L 434.7 383.821875 
L 434.7 383.821875 
L 434.7 383.821875 
L 434.7 388.8 
L 435.258 383.90625 
L 435.258 388.8 
L 435.258 388.8 
L 435.258 388.8 
L 435.258 383.90625 
L 435.816 388.8 
L 435.816 384.075 
L 435.816 384.075 
L 435.816 384.075 
L 435.816 388.8 
L 436.374 384.075 
L 436.374 388.8 
L 436.374 388.8 
L 436.932 384.75 
L 436.932 388.8 
L 436.932 384.91875 
L 437.49 388.8 
L 437.49 385.846875 
L 437.49 385.846875 
L 437.49 385.846875 
L 437.49 388.8 
L 438.048 387.365625 
L 438.048 388.8 
L 438.048 387.61875 
L 438.606 388.040625 
L 438.606 388.8 
L 438.606 388.8 
L 438.606 388.8 
L 438.606 387.871875 
L 439.164 388.8 
L 439.164 386.26875 
L 439.164 386.26875 
L 439.164 386.26875 
L 439.164 388.8 
L 439.722 384.075 
L 439.722 388.8 
L 439.722 388.8 
L 439.722 388.8 
L 439.722 383.90625 
L 440.28 388.8 
L 440.28 383.90625 
L 440.28 383.90625 
L 440.28 383.90625 
L 440.28 388.8 
L 440.838 384.4125 
L 440.838 388.8 
L 440.838 384.665625 
L 441.396 388.8 
L 441.396 385.7625 
L 441.396 385.7625 
L 441.396 385.7625 
L 441.396 388.8 
L 441.954 387.45 
L 441.954 388.8 
L 441.954 388.63125 
L 442.512 387.365625 
L 442.512 388.8 
L 442.512 388.8 
L 442.512 388.8 
L 442.512 386.775 
L 443.07 388.8 
L 443.07 384.4125 
L 443.07 384.4125 
L 443.07 384.4125 
L 443.07 388.8 
L 443.628 383.990625 
L 443.628 388.8 
L 443.628 388.8 
L 443.628 388.8 
L 443.628 383.653125 
L 444.186 388.8 
L 444.186 384.075 
L 444.186 384.075 
L 444.186 384.075 
L 444.186 388.8 
L 444.744 384.496875 
L 444.744 388.8 
L 444.744 386.26875 
L 445.302 388.8 
L 445.302 388.4625 
L 445.302 388.040625 
L 445.86 388.8 
L 445.86 385.93125 
L 445.86 385.93125 
L 445.86 385.93125 
L 445.86 388.8 
L 446.418 384.159375 
L 446.418 388.8 
L 446.418 388.8 
L 446.418 388.8 
L 446.418 383.90625 
L 446.976 388.8 
L 446.976 384.496875 
L 446.976 384.496875 
L 446.976 384.496875 
L 446.976 388.8 
L 447.534 385.509375 
L 447.534 388.8 
L 447.534 387.61875 
L 448.092 388.4625 
L 448.092 388.8 
L 448.092 388.8 
L 448.092 388.8 
L 448.092 386.775 
L 448.65 388.8 
L 448.65 384.159375 
L 448.65 384.159375 
L 448.65 384.159375 
L 448.65 388.8 
L 449.208 383.90625 
L 449.208 388.8 
L 449.208 384.24375 
L 449.766 388.8 
L 449.766 385.425 
L 449.766 385.425 
L 449.766 385.425 
L 449.766 388.8 
L 450.324 386.94375 
L 450.324 388.8 
L 450.324 388.8 
L 450.882 387.196875 
L 450.882 388.8 
L 450.882 388.8 
L 450.882 388.8 
L 450.882 384.075 
L 451.44 388.8 
L 451.44 384.159375 
L 451.44 384.159375 
L 451.44 384.159375 
L 451.44 388.8 
L 451.998 386.353125 
L 451.998 388.8 
L 451.998 388.4625 
L 452.556 386.4375 
L 452.556 388.8 
L 452.556 388.8 
L 452.556 388.8 
L 452.556 384.075 
L 453.114 388.8 
L 453.114 384.4125 
L 453.114 384.4125 
L 453.114 384.4125 
L 453.114 388.8 
L 453.672 387.028125 
L 453.672 388.8 
L 453.672 388.8 
L 454.23 384.496875 
L 454.23 388.8 
L 454.23 388.8 
L 454.23 388.8 
L 454.23 383.821875 
L 454.788 388.8 
L 454.788 385.0875 
L 455.346 388.8 
L 455.346 388.4625 
L 455.346 387.45 
L 455.904 388.8 
L 455.904 383.90625 
L 455.904 383.90625 
L 455.904 383.90625 
L 455.904 388.8 
L 456.462 384.58125 
L 456.462 388.8 
L 456.462 386.60625 
L 457.02 387.7875 
L 457.02 388.8 
L 457.02 388.8 
L 457.02 388.8 
L 457.02 384.328125 
L 457.578 388.8 
L 457.578 384.24375 
L 457.578 384.24375 
L 457.578 384.24375 
L 457.578 388.8 
L 458.136 387.196875 
L 458.136 388.378125 
L 458.694 388.8 
L 458.694 384.24375 
L 458.694 384.24375 
L 458.694 384.24375 
L 458.694 388.8 
L 459.252 384.328125 
L 459.252 388.8 
L 459.252 386.353125 
L 459.81 387.7875 
L 459.81 388.8 
L 459.81 388.8 
L 459.81 388.8 
L 459.81 384.328125 
L 460.368 388.8 
L 460.368 384.58125 
L 460.368 384.58125 
L 460.368 384.58125 
L 460.368 388.8 
L 460.926 388.378125 
L 460.926 387.28125 
L 461.484 388.8 
L 461.484 383.90625 
L 461.484 383.90625 
L 461.484 383.90625 
L 461.484 388.8 
L 462.042 385.678125 
L 462.042 388.8 
L 462.042 388.8 
L 462.6 384.4125 
L 462.6 388.8 
L 462.6 388.8 
L 462.6 388.8 
L 462.6 383.990625 
L 463.158 388.8 
L 463.158 387.028125 
L 463.716 388.209375 
L 463.716 388.8 
L 463.716 388.8 
L 463.716 388.8 
L 463.716 383.90625 
L 464.274 388.8 
L 464.274 385.171875 
L 464.274 385.171875 
L 464.274 385.171875 
L 464.274 388.8 
L 464.832 388.8 
L 464.832 384.665625 
L 464.832 384.665625 
L 464.832 384.665625 
L 464.832 388.8 
L 465.39 384.496875 
L 465.39 388.8 
L 465.948 388.63125 
L 465.948 386.690625 
L 465.948 386.690625 
L 465.948 386.690625 
L 465.948 388.8 
L 466.506 383.90625 
L 466.506 388.8 
L 466.506 386.26875 
L 467.064 387.365625 
L 467.064 388.8 
L 467.064 388.8 
L 467.064 388.8 
L 467.064 383.821875 
L 467.622 388.8 
L 467.622 385.509375 
L 468.18 388.209375 
L 468.18 388.8 
L 468.18 388.8 
L 468.18 388.8 
L 468.18 384.075 
L 468.738 388.8 
L 468.738 385.425 
L 468.738 385.425 
L 468.738 385.425 
L 468.738 388.8 
L 469.296 388.8 
L 469.296 383.990625 
L 469.854 388.8 
L 469.854 385.171875 
L 469.854 385.171875 
L 469.854 385.171875 
L 469.854 388.8 
L 470.412 388.8 
L 470.412 383.990625 
L 470.412 383.990625 
L 470.412 383.990625 
L 470.412 388.8 
L 470.97 385.678125 
L 470.97 388.8 
L 471.528 388.8 
L 471.528 383.90625 
L 471.528 383.90625 
L 471.528 383.90625 
L 471.528 388.8 
L 472.086 386.26875 
L 472.086 388.8 
L 472.644 383.90625 
L 472.644 388.8 
L 473.202 386.94375 
L 473.202 388.8 
L 473.76 383.990625 
L 473.76 388.8 
L 473.76 387.028125 
L 474.318 386.353125 
L 474.318 388.8 
L 474.876 384.58125 
L 474.876 388.8 
L 474.876 388.8 
L 475.434 384.075 
L 475.434 388.8 
L 475.434 384.834375 
L 475.992 388.8 
L 475.992 388.8 
L 476.55 383.821875 
L 476.55 388.8 
L 476.55 386.015625 
L 477.108 387.028125 
L 477.108 388.8 
L 477.666 384.328125 
L 477.666 388.8 
L 477.666 388.715625 
L 478.224 383.990625 
L 478.224 388.8 
L 478.224 385.171875 
L 478.782 388.8 
L 478.782 388.8 
L 479.34 383.821875 
L 479.34 388.8 
L 479.34 386.859375 
L 479.898 386.184375 
L 479.898 388.8 
L 480.456 385.003125 
L 480.456 388.8 
L 480.456 388.8 
L 481.014 383.90625 
L 481.014 388.8 
L 481.014 387.871875 
L 481.572 386.521875 
L 481.572 388.8 
L 482.13 385.003125 
L 482.13 388.8 
L 482.13 388.8 
L 482.688 383.90625 
L 482.688 383.90625 
" style="fill:none;opacity:0.6;stroke:#0000ff;stroke-linecap:square;stroke-width:2.0;"/>
   </g>
   <g id="line2d_2">
    <path clip-path="url(#p3cc50aeae1)" d="M 285.156 388.8 
L 285.156 43.2 
" style="fill:none;stroke:#ff0000;stroke-linecap:square;"/>
   </g>
   <g id="patch_3">
    <path d="M 72 43.2 
L 518.4 43.2 
" style="fill:none;stroke:#000000;stroke-linecap:square;stroke-linejoin:miter;"/>
   </g>
   <g id="patch_4">
    <path d="M 72 388.8 
L 72 43.2 
" style="fill:none;stroke:#000000;stroke-linecap:square;stroke-linejoin:miter;"/>
   </g>
   <g id="patch_5">
    <path d="M 518.4 388.8 
L 518.4 43.2 
" style="fill:none;stroke:#000000;stroke-linecap:square;stroke-linejoin:miter;"/>
   </g>
   <g id="patch_6">
    <path d="M 72 388.8 
L 518.4 388.8 
" style="fill:none;stroke:#000000;stroke-linecap:square;stroke-linejoin:miter;"/>
   </g>
   <g id="matplotlib.axis_1">
    <g id="xtick_1">
     <g id="line2d_3">
      <defs>
       <path d="M 0 0 
L 0 -4 
" id="m8bd755d0da" style="stroke:#000000;stroke-width:0.5;"/>
      </defs>
      <g>
       <use style="stroke:#000000;stroke-width:0.5;" x="72.0" xlink:href="#m8bd755d0da" y="388.8"/>
      </g>
     </g>
     <g id="line2d_4">
      <defs>
       <path d="M 0 0 
L 0 4 
" id="m341af0adfe" style="stroke:#000000;stroke-width:0.5;"/>
      </defs>
      <g>
       <use style="stroke:#000000;stroke-width:0.5;" x="72.0" xlink:href="#m341af0adfe" y="43.2"/>
      </g>
     </g>
     <g id="text_1">
      <!-- 0.0 -->
      <defs>
       <path d="M 10.6875 12.40625 
L 21 12.40625 
L 21 0 
L 10.6875 0 
z
" id="BitstreamVeraSans-Roman-2e"/>
       <path d="M 31.78125 66.40625 
Q 24.171875 66.40625 20.328125 58.90625 
Q 16.5 51.421875 16.5 36.375 
Q 16.5 21.390625 20.328125 13.890625 
Q 24.171875 6.390625 31.78125 6.390625 
Q 39.453125 6.390625 43.28125 13.890625 
Q 47.125 21.390625 47.125 36.375 
Q 47.125 51.421875 43.28125 58.90625 
Q 39.453125 66.40625 31.78125 66.40625 
M 31.78125 74.21875 
Q 44.046875 74.21875 50.515625 64.515625 
Q 56.984375 54.828125 56.984375 36.375 
Q 56.984375 17.96875 50.515625 8.265625 
Q 44.046875 -1.421875 31.78125 -1.421875 
Q 19.53125 -1.421875 13.0625 8.265625 
Q 6.59375 17.96875 6.59375 36.375 
Q 6.59375 54.828125 13.0625 64.515625 
Q 19.53125 74.21875 31.78125 74.21875 
" id="BitstreamVeraSans-Roman-30"/>
      </defs>
      <g transform="translate(62.458125 401.918125)scale(0.12 -0.12)">
       <use xlink:href="#BitstreamVeraSans-Roman-30"/>
       <use x="63.623046875" xlink:href="#BitstreamVeraSans-Roman-2e"/>
       <use x="95.41015625" xlink:href="#BitstreamVeraSans-Roman-30"/>
      </g>
     </g>
    </g>
    <g id="xtick_2">
     <g id="line2d_5">
      <g>
       <use style="stroke:#000000;stroke-width:0.5;" x="127.8" xlink:href="#m8bd755d0da" y="388.8"/>
      </g>
     </g>
     <g id="line2d_6">
      <g>
       <use style="stroke:#000000;stroke-width:0.5;" x="127.8" xlink:href="#m341af0adfe" y="43.2"/>
      </g>
     </g>
     <g id="text_2">
      <!-- 0.1 -->
      <defs>
       <path d="M 12.40625 8.296875 
L 28.515625 8.296875 
L 28.515625 63.921875 
L 10.984375 60.40625 
L 10.984375 69.390625 
L 28.421875 72.90625 
L 38.28125 72.90625 
L 38.28125 8.296875 
L 54.390625 8.296875 
L 54.390625 0 
L 12.40625 0 
z
" id="BitstreamVeraSans-Roman-31"/>
      </defs>
      <g transform="translate(118.258125 401.918125)scale(0.12 -0.12)">
       <use xlink:href="#BitstreamVeraSans-Roman-30"/>
       <use x="63.623046875" xlink:href="#BitstreamVeraSans-Roman-2e"/>
       <use x="95.41015625" xlink:href="#BitstreamVeraSans-Roman-31"/>
      </g>
     </g>
    </g>
    <g id="xtick_3">
     <g id="line2d_7">
      <g>
       <use style="stroke:#000000;stroke-width:0.5;" x="183.6" xlink:href="#m8bd755d0da" y="388.8"/>
      </g>
     </g>
     <g id="line2d_8">
      <g>
       <use style="stroke:#000000;stroke-width:0.5;" x="183.6" xlink:href="#m341af0adfe" y="43.2"/>
      </g>
     </g>
     <g id="text_3">
      <!-- 0.2 -->
      <defs>
       <path d="M 19.1875 8.296875 
L 53.609375 8.296875 
L 53.609375 0 
L 7.328125 0 
L 7.328125 8.296875 
Q 12.9375 14.109375 22.625 23.890625 
Q 32.328125 33.6875 34.8125 36.53125 
Q 39.546875 41.84375 41.421875 45.53125 
Q 43.3125 49.21875 43.3125 52.78125 
Q 43.3125 58.59375 39.234375 62.25 
Q 35.15625 65.921875 28.609375 65.921875 
Q 23.96875 65.921875 18.8125 64.3125 
Q 13.671875 62.703125 7.8125 59.421875 
L 7.8125 69.390625 
Q 13.765625 71.78125 18.9375 73 
Q 24.125 74.21875 28.421875 74.21875 
Q 39.75 74.21875 46.484375 68.546875 
Q 53.21875 62.890625 53.21875 53.421875 
Q 53.21875 48.921875 51.53125 44.890625 
Q 49.859375 40.875 45.40625 35.40625 
Q 44.1875 33.984375 37.640625 27.21875 
Q 31.109375 20.453125 19.1875 8.296875 
" id="BitstreamVeraSans-Roman-32"/>
      </defs>
      <g transform="translate(174.058125 401.918125)scale(0.12 -0.12)">
       <use xlink:href="#BitstreamVeraSans-Roman-30"/>
       <use x="63.623046875" xlink:href="#BitstreamVeraSans-Roman-2e"/>
       <use x="95.41015625" xlink:href="#BitstreamVeraSans-Roman-32"/>
      </g>
     </g>
    </g>
    <g id="xtick_4">
     <g id="line2d_9">
      <g>
       <use style="stroke:#000000;stroke-width:0.5;" x="239.4" xlink:href="#m8bd755d0da" y="388.8"/>
      </g>
     </g>
     <g id="line2d_10">
      <g>
       <use style="stroke:#000000;stroke-width:0.5;" x="239.4" xlink:href="#m341af0adfe" y="43.2"/>
      </g>
     </g>
     <g id="text_4">
      <!-- 0.3 -->
      <defs>
       <path d="M 40.578125 39.3125 
Q 47.65625 37.796875 51.625 33 
Q 55.609375 28.21875 55.609375 21.1875 
Q 55.609375 10.40625 48.1875 4.484375 
Q 40.765625 -1.421875 27.09375 -1.421875 
Q 22.515625 -1.421875 17.65625 -0.515625 
Q 12.796875 0.390625 7.625 2.203125 
L 7.625 11.71875 
Q 11.71875 9.328125 16.59375 8.109375 
Q 21.484375 6.890625 26.8125 6.890625 
Q 36.078125 6.890625 40.9375 10.546875 
Q 45.796875 14.203125 45.796875 21.1875 
Q 45.796875 27.640625 41.28125 31.265625 
Q 36.765625 34.90625 28.71875 34.90625 
L 20.21875 34.90625 
L 20.21875 43.015625 
L 29.109375 43.015625 
Q 36.375 43.015625 40.234375 45.921875 
Q 44.09375 48.828125 44.09375 54.296875 
Q 44.09375 59.90625 40.109375 62.90625 
Q 36.140625 65.921875 28.71875 65.921875 
Q 24.65625 65.921875 20.015625 65.03125 
Q 15.375 64.15625 9.8125 62.3125 
L 9.8125 71.09375 
Q 15.4375 72.65625 20.34375 73.4375 
Q 25.25 74.21875 29.59375 74.21875 
Q 40.828125 74.21875 47.359375 69.109375 
Q 53.90625 64.015625 53.90625 55.328125 
Q 53.90625 49.265625 50.4375 45.09375 
Q 46.96875 40.921875 40.578125 39.3125 
" id="BitstreamVeraSans-Roman-33"/>
      </defs>
      <g transform="translate(229.858125 401.918125)scale(0.12 -0.12)">
       <use xlink:href="#BitstreamVeraSans-Roman-30"/>
       <use x="63.623046875" xlink:href="#BitstreamVeraSans-Roman-2e"/>
       <use x="95.41015625" xlink:href="#BitstreamVeraSans-Roman-33"/>
      </g>
     </g>
    </g>
    <g id="xtick_5">
     <g id="line2d_11">
      <g>
       <use style="stroke:#000000;stroke-width:0.5;" x="295.2" xlink:href="#m8bd755d0da" y="388.8"/>
      </g>
     </g>
     <g id="line2d_12">
      <g>
       <use style="stroke:#000000;stroke-width:0.5;" x="295.2" xlink:href="#m341af0adfe" y="43.2"/>
      </g>
     </g>
     <g id="text_5">
      <!-- 0.4 -->
      <defs>
       <path d="M 37.796875 64.3125 
L 12.890625 25.390625 
L 37.796875 25.390625 
z
M 35.203125 72.90625 
L 47.609375 72.90625 
L 47.609375 25.390625 
L 58.015625 25.390625 
L 58.015625 17.1875 
L 47.609375 17.1875 
L 47.609375 0 
L 37.796875 0 
L 37.796875 17.1875 
L 4.890625 17.1875 
L 4.890625 26.703125 
z
" id="BitstreamVeraSans-Roman-34"/>
      </defs>
      <g transform="translate(285.658125 401.918125)scale(0.12 -0.12)">
       <use xlink:href="#BitstreamVeraSans-Roman-30"/>
       <use x="63.623046875" xlink:href="#BitstreamVeraSans-Roman-2e"/>
       <use x="95.41015625" xlink:href="#BitstreamVeraSans-Roman-34"/>
      </g>
     </g>
    </g>
    <g id="xtick_6">
     <g id="line2d_13">
      <g>
       <use style="stroke:#000000;stroke-width:0.5;" x="351.0" xlink:href="#m8bd755d0da" y="388.8"/>
      </g>
     </g>
     <g id="line2d_14">
      <g>
       <use style="stroke:#000000;stroke-width:0.5;" x="351.0" xlink:href="#m341af0adfe" y="43.2"/>
      </g>
     </g>
     <g id="text_6">
      <!-- 0.5 -->
      <defs>
       <path d="M 10.796875 72.90625 
L 49.515625 72.90625 
L 49.515625 64.59375 
L 19.828125 64.59375 
L 19.828125 46.734375 
Q 21.96875 47.46875 24.109375 47.828125 
Q 26.265625 48.1875 28.421875 48.1875 
Q 40.625 48.1875 47.75 41.5 
Q 54.890625 34.8125 54.890625 23.390625 
Q 54.890625 11.625 47.5625 5.09375 
Q 40.234375 -1.421875 26.90625 -1.421875 
Q 22.3125 -1.421875 17.546875 -0.640625 
Q 12.796875 0.140625 7.71875 1.703125 
L 7.71875 11.625 
Q 12.109375 9.234375 16.796875 8.0625 
Q 21.484375 6.890625 26.703125 6.890625 
Q 35.15625 6.890625 40.078125 11.328125 
Q 45.015625 15.765625 45.015625 23.390625 
Q 45.015625 31 40.078125 35.4375 
Q 35.15625 39.890625 26.703125 39.890625 
Q 22.75 39.890625 18.8125 39.015625 
Q 14.890625 38.140625 10.796875 36.28125 
z
" id="BitstreamVeraSans-Roman-35"/>
      </defs>
      <g transform="translate(341.458125 401.918125)scale(0.12 -0.12)">
       <use xlink:href="#BitstreamVeraSans-Roman-30"/>
       <use x="63.623046875" xlink:href="#BitstreamVeraSans-Roman-2e"/>
       <use x="95.41015625" xlink:href="#BitstreamVeraSans-Roman-35"/>
      </g>
     </g>
    </g>
    <g id="xtick_7">
     <g id="line2d_15">
      <g>
       <use style="stroke:#000000;stroke-width:0.5;" x="406.8" xlink:href="#m8bd755d0da" y="388.8"/>
      </g>
     </g>
     <g id="line2d_16">
      <g>
       <use style="stroke:#000000;stroke-width:0.5;" x="406.8" xlink:href="#m341af0adfe" y="43.2"/>
      </g>
     </g>
     <g id="text_7">
      <!-- 0.6 -->
      <defs>
       <path d="M 33.015625 40.375 
Q 26.375 40.375 22.484375 35.828125 
Q 18.609375 31.296875 18.609375 23.390625 
Q 18.609375 15.53125 22.484375 10.953125 
Q 26.375 6.390625 33.015625 6.390625 
Q 39.65625 6.390625 43.53125 10.953125 
Q 47.40625 15.53125 47.40625 23.390625 
Q 47.40625 31.296875 43.53125 35.828125 
Q 39.65625 40.375 33.015625 40.375 
M 52.59375 71.296875 
L 52.59375 62.3125 
Q 48.875 64.0625 45.09375 64.984375 
Q 41.3125 65.921875 37.59375 65.921875 
Q 27.828125 65.921875 22.671875 59.328125 
Q 17.53125 52.734375 16.796875 39.40625 
Q 19.671875 43.65625 24.015625 45.921875 
Q 28.375 48.1875 33.59375 48.1875 
Q 44.578125 48.1875 50.953125 41.515625 
Q 57.328125 34.859375 57.328125 23.390625 
Q 57.328125 12.15625 50.6875 5.359375 
Q 44.046875 -1.421875 33.015625 -1.421875 
Q 20.359375 -1.421875 13.671875 8.265625 
Q 6.984375 17.96875 6.984375 36.375 
Q 6.984375 53.65625 15.1875 63.9375 
Q 23.390625 74.21875 37.203125 74.21875 
Q 40.921875 74.21875 44.703125 73.484375 
Q 48.484375 72.75 52.59375 71.296875 
" id="BitstreamVeraSans-Roman-36"/>
      </defs>
      <g transform="translate(397.258125 401.918125)scale(0.12 -0.12)">
       <use xlink:href="#BitstreamVeraSans-Roman-30"/>
       <use x="63.623046875" xlink:href="#BitstreamVeraSans-Roman-2e"/>
       <use x="95.41015625" xlink:href="#BitstreamVeraSans-Roman-36"/>
      </g>
     </g>
    </g>
    <g id="xtick_8">
     <g id="line2d_17">
      <g>
       <use style="stroke:#000000;stroke-width:0.5;" x="462.6" xlink:href="#m8bd755d0da" y="388.8"/>
      </g>
     </g>
     <g id="line2d_18">
      <g>
       <use style="stroke:#000000;stroke-width:0.5;" x="462.6" xlink:href="#m341af0adfe" y="43.2"/>
      </g>
     </g>
     <g id="text_8">
      <!-- 0.7 -->
      <defs>
       <path d="M 8.203125 72.90625 
L 55.078125 72.90625 
L 55.078125 68.703125 
L 28.609375 0 
L 18.3125 0 
L 43.21875 64.59375 
L 8.203125 64.59375 
z
" id="BitstreamVeraSans-Roman-37"/>
      </defs>
      <g transform="translate(453.058125 401.918125)scale(0.12 -0.12)">
       <use xlink:href="#BitstreamVeraSans-Roman-30"/>
       <use x="63.623046875" xlink:href="#BitstreamVeraSans-Roman-2e"/>
       <use x="95.41015625" xlink:href="#BitstreamVeraSans-Roman-37"/>
      </g>
     </g>
    </g>
    <g id="xtick_9">
     <g id="line2d_19">
      <g>
       <use style="stroke:#000000;stroke-width:0.5;" x="518.4" xlink:href="#m8bd755d0da" y="388.8"/>
      </g>
     </g>
     <g id="line2d_20">
      <g>
       <use style="stroke:#000000;stroke-width:0.5;" x="518.4" xlink:href="#m341af0adfe" y="43.2"/>
      </g>
     </g>
     <g id="text_9">
      <!-- 0.8 -->
      <defs>
       <path d="M 31.78125 34.625 
Q 24.75 34.625 20.71875 30.859375 
Q 16.703125 27.09375 16.703125 20.515625 
Q 16.703125 13.921875 20.71875 10.15625 
Q 24.75 6.390625 31.78125 6.390625 
Q 38.8125 6.390625 42.859375 10.171875 
Q 46.921875 13.96875 46.921875 20.515625 
Q 46.921875 27.09375 42.890625 30.859375 
Q 38.875 34.625 31.78125 34.625 
M 21.921875 38.8125 
Q 15.578125 40.375 12.03125 44.71875 
Q 8.5 49.078125 8.5 55.328125 
Q 8.5 64.0625 14.71875 69.140625 
Q 20.953125 74.21875 31.78125 74.21875 
Q 42.671875 74.21875 48.875 69.140625 
Q 55.078125 64.0625 55.078125 55.328125 
Q 55.078125 49.078125 51.53125 44.71875 
Q 48 40.375 41.703125 38.8125 
Q 48.828125 37.15625 52.796875 32.3125 
Q 56.78125 27.484375 56.78125 20.515625 
Q 56.78125 9.90625 50.3125 4.234375 
Q 43.84375 -1.421875 31.78125 -1.421875 
Q 19.734375 -1.421875 13.25 4.234375 
Q 6.78125 9.90625 6.78125 20.515625 
Q 6.78125 27.484375 10.78125 32.3125 
Q 14.796875 37.15625 21.921875 38.8125 
M 18.3125 54.390625 
Q 18.3125 48.734375 21.84375 45.5625 
Q 25.390625 42.390625 31.78125 42.390625 
Q 38.140625 42.390625 41.71875 45.5625 
Q 45.3125 48.734375 45.3125 54.390625 
Q 45.3125 60.0625 41.71875 63.234375 
Q 38.140625 66.40625 31.78125 66.40625 
Q 25.390625 66.40625 21.84375 63.234375 
Q 18.3125 60.0625 18.3125 54.390625 
" id="BitstreamVeraSans-Roman-38"/>
      </defs>
      <g transform="translate(508.858125 401.918125)scale(0.12 -0.12)">
       <use xlink:href="#BitstreamVeraSans-Roman-30"/>
       <use x="63.623046875" xlink:href="#BitstreamVeraSans-Roman-2e"/>
       <use x="95.41015625" xlink:href="#BitstreamVeraSans-Roman-38"/>
      </g>
     </g>
    </g>
    <g id="text_10">
     <!-- t[s] -->
     <defs>
      <path d="M 8.59375 75.984375 
L 29.296875 75.984375 
L 29.296875 69 
L 17.578125 69 
L 17.578125 -6.203125 
L 29.296875 -6.203125 
L 29.296875 -13.1875 
L 8.59375 -13.1875 
z
" id="BitstreamVeraSans-Roman-5b"/>
      <path d="M 44.28125 53.078125 
L 44.28125 44.578125 
Q 40.484375 46.53125 36.375 47.5 
Q 32.28125 48.484375 27.875 48.484375 
Q 21.1875 48.484375 17.84375 46.4375 
Q 14.5 44.390625 14.5 40.28125 
Q 14.5 37.15625 16.890625 35.375 
Q 19.28125 33.59375 26.515625 31.984375 
L 29.59375 31.296875 
Q 39.15625 29.25 43.1875 25.515625 
Q 47.21875 21.78125 47.21875 15.09375 
Q 47.21875 7.46875 41.1875 3.015625 
Q 35.15625 -1.421875 24.609375 -1.421875 
Q 20.21875 -1.421875 15.453125 -0.5625 
Q 10.6875 0.296875 5.421875 2 
L 5.421875 11.28125 
Q 10.40625 8.6875 15.234375 7.390625 
Q 20.0625 6.109375 24.8125 6.109375 
Q 31.15625 6.109375 34.5625 8.28125 
Q 37.984375 10.453125 37.984375 14.40625 
Q 37.984375 18.0625 35.515625 20.015625 
Q 33.0625 21.96875 24.703125 23.78125 
L 21.578125 24.515625 
Q 13.234375 26.265625 9.515625 29.90625 
Q 5.8125 33.546875 5.8125 39.890625 
Q 5.8125 47.609375 11.28125 51.796875 
Q 16.75 56 26.8125 56 
Q 31.78125 56 36.171875 55.265625 
Q 40.578125 54.546875 44.28125 53.078125 
" id="BitstreamVeraSans-Roman-73"/>
      <path d="M 18.3125 70.21875 
L 18.3125 54.6875 
L 36.8125 54.6875 
L 36.8125 47.703125 
L 18.3125 47.703125 
L 18.3125 18.015625 
Q 18.3125 11.328125 20.140625 9.421875 
Q 21.96875 7.515625 27.59375 7.515625 
L 36.8125 7.515625 
L 36.8125 0 
L 27.59375 0 
Q 17.1875 0 13.234375 3.875 
Q 9.28125 7.765625 9.28125 18.015625 
L 9.28125 47.703125 
L 2.6875 47.703125 
L 2.6875 54.6875 
L 9.28125 54.6875 
L 9.28125 70.21875 
z
" id="BitstreamVeraSans-Roman-74"/>
      <path d="M 30.421875 75.984375 
L 30.421875 -13.1875 
L 9.71875 -13.1875 
L 9.71875 -6.203125 
L 21.390625 -6.203125 
L 21.390625 69 
L 9.71875 69 
L 9.71875 75.984375 
z
" id="BitstreamVeraSans-Roman-5d"/>
     </defs>
     <g transform="translate(285.0403125 418.531875)scale(0.12 -0.12)">
      <use xlink:href="#BitstreamVeraSans-Roman-74"/>
      <use x="39.208984375" xlink:href="#BitstreamVeraSans-Roman-5b"/>
      <use x="78.22265625" xlink:href="#BitstreamVeraSans-Roman-73"/>
      <use x="130.322265625" xlink:href="#BitstreamVeraSans-Roman-5d"/>
     </g>
    </g>
   </g>
   <g id="matplotlib.axis_2">
    <g id="ytick_1">
     <g id="line2d_21">
      <defs>
       <path d="M 0 0 
L 4 0 
" id="mb1519307b2" style="stroke:#000000;stroke-width:0.5;"/>
      </defs>
      <g>
       <use style="stroke:#000000;stroke-width:0.5;" x="72.0" xlink:href="#mb1519307b2" y="388.8"/>
      </g>
     </g>
     <g id="line2d_22">
      <defs>
       <path d="M 0 0 
L -4 0 
" id="mc15943ba60" style="stroke:#000000;stroke-width:0.5;"/>
      </defs>
      <g>
       <use style="stroke:#000000;stroke-width:0.5;" x="518.4" xlink:href="#mc15943ba60" y="388.8"/>
      </g>
     </g>
     <g id="text_11">
      <!-- 0.0 -->
      <g transform="translate(48.91625 392.11125)scale(0.12 -0.12)">
       <use xlink:href="#BitstreamVeraSans-Roman-30"/>
       <use x="63.623046875" xlink:href="#BitstreamVeraSans-Roman-2e"/>
       <use x="95.41015625" xlink:href="#BitstreamVeraSans-Roman-30"/>
      </g>
     </g>
    </g>
    <g id="ytick_2">
     <g id="line2d_23">
      <g>
       <use style="stroke:#000000;stroke-width:0.5;" x="72.0" xlink:href="#mb1519307b2" y="319.68"/>
      </g>
     </g>
     <g id="line2d_24">
      <g>
       <use style="stroke:#000000;stroke-width:0.5;" x="518.4" xlink:href="#mc15943ba60" y="319.68"/>
      </g>
     </g>
     <g id="text_12">
      <!-- 0.2 -->
      <g transform="translate(48.91625 322.99125)scale(0.12 -0.12)">
       <use xlink:href="#BitstreamVeraSans-Roman-30"/>
       <use x="63.623046875" xlink:href="#BitstreamVeraSans-Roman-2e"/>
       <use x="95.41015625" xlink:href="#BitstreamVeraSans-Roman-32"/>
      </g>
     </g>
    </g>
    <g id="ytick_3">
     <g id="line2d_25">
      <g>
       <use style="stroke:#000000;stroke-width:0.5;" x="72.0" xlink:href="#mb1519307b2" y="250.56"/>
      </g>
     </g>
     <g id="line2d_26">
      <g>
       <use style="stroke:#000000;stroke-width:0.5;" x="518.4" xlink:href="#mc15943ba60" y="250.56"/>
      </g>
     </g>
     <g id="text_13">
      <!-- 0.4 -->
      <g transform="translate(48.91625 253.87125)scale(0.12 -0.12)">
       <use xlink:href="#BitstreamVeraSans-Roman-30"/>
       <use x="63.623046875" xlink:href="#BitstreamVeraSans-Roman-2e"/>
       <use x="95.41015625" xlink:href="#BitstreamVeraSans-Roman-34"/>
      </g>
     </g>
    </g>
    <g id="ytick_4">
     <g id="line2d_27">
      <g>
       <use style="stroke:#000000;stroke-width:0.5;" x="72.0" xlink:href="#mb1519307b2" y="181.44"/>
      </g>
     </g>
     <g id="line2d_28">
      <g>
       <use style="stroke:#000000;stroke-width:0.5;" x="518.4" xlink:href="#mc15943ba60" y="181.44"/>
      </g>
     </g>
     <g id="text_14">
      <!-- 0.6 -->
      <g transform="translate(48.91625 184.75125)scale(0.12 -0.12)">
       <use xlink:href="#BitstreamVeraSans-Roman-30"/>
       <use x="63.623046875" xlink:href="#BitstreamVeraSans-Roman-2e"/>
       <use x="95.41015625" xlink:href="#BitstreamVeraSans-Roman-36"/>
      </g>
     </g>
    </g>
    <g id="ytick_5">
     <g id="line2d_29">
      <g>
       <use style="stroke:#000000;stroke-width:0.5;" x="72.0" xlink:href="#mb1519307b2" y="112.32"/>
      </g>
     </g>
     <g id="line2d_30">
      <g>
       <use style="stroke:#000000;stroke-width:0.5;" x="518.4" xlink:href="#mc15943ba60" y="112.32"/>
      </g>
     </g>
     <g id="text_15">
      <!-- 0.8 -->
      <g transform="translate(48.91625 115.63125)scale(0.12 -0.12)">
       <use xlink:href="#BitstreamVeraSans-Roman-30"/>
       <use x="63.623046875" xlink:href="#BitstreamVeraSans-Roman-2e"/>
       <use x="95.41015625" xlink:href="#BitstreamVeraSans-Roman-38"/>
      </g>
     </g>
    </g>
    <g id="ytick_6">
     <g id="line2d_31">
      <g>
       <use style="stroke:#000000;stroke-width:0.5;" x="72.0" xlink:href="#mb1519307b2" y="43.2"/>
      </g>
     </g>
     <g id="line2d_32">
      <g>
       <use style="stroke:#000000;stroke-width:0.5;" x="518.4" xlink:href="#mc15943ba60" y="43.2"/>
      </g>
     </g>
     <g id="text_16">
      <!-- 1.0 -->
      <g transform="translate(48.91625 46.51125)scale(0.12 -0.12)">
       <use xlink:href="#BitstreamVeraSans-Roman-31"/>
       <use x="63.623046875" xlink:href="#BitstreamVeraSans-Roman-2e"/>
       <use x="95.41015625" xlink:href="#BitstreamVeraSans-Roman-30"/>
      </g>
     </g>
    </g>
    <g id="text_17">
     <!-- U[V] -->
     <defs>
      <path d="M 8.6875 72.90625 
L 18.609375 72.90625 
L 18.609375 28.609375 
Q 18.609375 16.890625 22.84375 11.734375 
Q 27.09375 6.59375 36.625 6.59375 
Q 46.09375 6.59375 50.34375 11.734375 
Q 54.59375 16.890625 54.59375 28.609375 
L 54.59375 72.90625 
L 64.5 72.90625 
L 64.5 27.390625 
Q 64.5 13.140625 57.4375 5.859375 
Q 50.390625 -1.421875 36.625 -1.421875 
Q 22.796875 -1.421875 15.734375 5.859375 
Q 8.6875 13.140625 8.6875 27.390625 
z
" id="BitstreamVeraSans-Roman-55"/>
      <path d="M 28.609375 0 
L 0.78125 72.90625 
L 11.078125 72.90625 
L 34.1875 11.53125 
L 57.328125 72.90625 
L 67.578125 72.90625 
L 39.796875 0 
z
" id="BitstreamVeraSans-Roman-56"/>
     </defs>
     <g transform="translate(41.420625 229.1775)rotate(-90.0)scale(0.12 -0.12)">
      <use xlink:href="#BitstreamVeraSans-Roman-55"/>
      <use x="73.193359375" xlink:href="#BitstreamVeraSans-Roman-5b"/>
      <use x="112.20703125" xlink:href="#BitstreamVeraSans-Roman-56"/>
      <use x="180.615234375" xlink:href="#BitstreamVeraSans-Roman-5d"/>
     </g>
    </g>
   </g>
   <g id="text_18">
    <!-- log_12052016_2.txt -->
    <defs>
     <path d="M 50.984375 -16.609375 
L 50.984375 -23.578125 
L -0.984375 -23.578125 
L -0.984375 -16.609375 
z
" id="BitstreamVeraSans-Roman-5f"/>
     <path d="M 54.890625 54.6875 
L 35.109375 28.078125 
L 55.90625 0 
L 45.3125 0 
L 29.390625 21.484375 
L 13.484375 0 
L 2.875 0 
L 24.125 28.609375 
L 4.6875 54.6875 
L 15.28125 54.6875 
L 29.78125 35.203125 
L 44.28125 54.6875 
z
" id="BitstreamVeraSans-Roman-78"/>
     <path d="M 45.40625 27.984375 
Q 45.40625 37.75 41.375 43.109375 
Q 37.359375 48.484375 30.078125 48.484375 
Q 22.859375 48.484375 18.828125 43.109375 
Q 14.796875 37.75 14.796875 27.984375 
Q 14.796875 18.265625 18.828125 12.890625 
Q 22.859375 7.515625 30.078125 7.515625 
Q 37.359375 7.515625 41.375 12.890625 
Q 45.40625 18.265625 45.40625 27.984375 
M 54.390625 6.78125 
Q 54.390625 -7.171875 48.1875 -13.984375 
Q 42 -20.796875 29.203125 -20.796875 
Q 24.46875 -20.796875 20.265625 -20.09375 
Q 16.0625 -19.390625 12.109375 -17.921875 
L 12.109375 -9.1875 
Q 16.0625 -11.328125 19.921875 -12.34375 
Q 23.78125 -13.375 27.78125 -13.375 
Q 36.625 -13.375 41.015625 -8.765625 
Q 45.40625 -4.15625 45.40625 5.171875 
L 45.40625 9.625 
Q 42.625 4.78125 38.28125 2.390625 
Q 33.9375 0 27.875 0 
Q 17.828125 0 11.671875 7.65625 
Q 5.515625 15.328125 5.515625 27.984375 
Q 5.515625 40.671875 11.671875 48.328125 
Q 17.828125 56 27.875 56 
Q 33.9375 56 38.28125 53.609375 
Q 42.625 51.21875 45.40625 46.390625 
L 45.40625 54.6875 
L 54.390625 54.6875 
z
" id="BitstreamVeraSans-Roman-67"/>
     <path d="M 9.421875 75.984375 
L 18.40625 75.984375 
L 18.40625 0 
L 9.421875 0 
z
" id="BitstreamVeraSans-Roman-6c"/>
     <path d="M 30.609375 48.390625 
Q 23.390625 48.390625 19.1875 42.75 
Q 14.984375 37.109375 14.984375 27.296875 
Q 14.984375 17.484375 19.15625 11.84375 
Q 23.34375 6.203125 30.609375 6.203125 
Q 37.796875 6.203125 41.984375 11.859375 
Q 46.1875 17.53125 46.1875 27.296875 
Q 46.1875 37.015625 41.984375 42.703125 
Q 37.796875 48.390625 30.609375 48.390625 
M 30.609375 56 
Q 42.328125 56 49.015625 48.375 
Q 55.71875 40.765625 55.71875 27.296875 
Q 55.71875 13.875 49.015625 6.21875 
Q 42.328125 -1.421875 30.609375 -1.421875 
Q 18.84375 -1.421875 12.171875 6.21875 
Q 5.515625 13.875 5.515625 27.296875 
Q 5.515625 40.765625 12.171875 48.375 
Q 18.84375 56 30.609375 56 
" id="BitstreamVeraSans-Roman-6f"/>
    </defs>
    <g transform="translate(223.599375 38.2)scale(0.144 -0.144)">
     <use xlink:href="#BitstreamVeraSans-Roman-6c"/>
     <use x="27.783203125" xlink:href="#BitstreamVeraSans-Roman-6f"/>
     <use x="88.96484375" xlink:href="#BitstreamVeraSans-Roman-67"/>
     <use x="152.44140625" xlink:href="#BitstreamVeraSans-Roman-5f"/>
     <use x="202.44140625" xlink:href="#BitstreamVeraSans-Roman-31"/>
     <use x="266.064453125" xlink:href="#BitstreamVeraSans-Roman-32"/>
     <use x="329.6875" xlink:href="#BitstreamVeraSans-Roman-30"/>
     <use x="393.310546875" xlink:href="#BitstreamVeraSans-Roman-35"/>
     <use x="456.93359375" xlink:href="#BitstreamVeraSans-Roman-32"/>
     <use x="520.556640625" xlink:href="#BitstreamVeraSans-Roman-30"/>
     <use x="584.1796875" xlink:href="#BitstreamVeraSans-Roman-31"/>
     <use x="647.802734375" xlink:href="#BitstreamVeraSans-Roman-36"/>
     <use x="711.42578125" xlink:href="#BitstreamVeraSans-Roman-5f"/>
     <use x="761.42578125" xlink:href="#BitstreamVeraSans-Roman-32"/>
     <use x="825.048828125" xlink:href="#BitstreamVeraSans-Roman-2e"/>
     <use x="856.8359375" xlink:href="#BitstreamVeraSans-Roman-74"/>
     <use x="896.044921875" xlink:href="#BitstreamVeraSans-Roman-78"/>
     <use x="955.224609375" xlink:href="#BitstreamVeraSans-Roman-74"/>
    </g>
   </g>
  </g>
 </g>
 <defs>
  <clipPath id="p3cc50aeae1">
   <rect height="345.6" width="446.4" x="72.0" y="43.2"/>
  </clipPath>
 </defs>
</svg>
