<?xml version="1.0" encoding="utf-8" standalone="no"?>
<!DOCTYPE svg PUBLIC "-//W3C//DTD SVG 1.1//EN"
  "http://www.w3.org/Graphics/SVG/1.1/DTD/svg11.dtd">
<!-- Created with matplotlib (http://matplotlib.org/) -->
<svg height="432pt" version="1.1" viewBox="0 0 576 432" width="576pt" xmlns="http://www.w3.org/2000/svg" xmlns:xlink="http://www.w3.org/1999/xlink">
 <defs>
  <style type="text/css">
*{stroke-linecap:butt;stroke-linejoin:round;stroke-miterlimit:100000;}
  </style>
 </defs>
 <g id="figure_1">
  <g id="patch_1">
   <path d="M 0 432 
L 576 432 
L 576 0 
L 0 0 
z
" style="fill:#ffffff;"/>
  </g>
  <g id="axes_1">
   <g id="patch_2">
    <path d="M 72 388.8 
L 518.4 388.8 
L 518.4 43.2 
L 72 43.2 
z
" style="fill:#ffffff;"/>
   </g>
   <g id="line2d_1">
    <path clip-path="url(#p078f901c24)" d="M 444.000321 332.592891 
L 444.002325 328.092891 
L 444.003328 331.046016 
L 444.003328 331.046016 
L 444.005337 332.592891 
L 444.005337 332.592891 
L 444.005337 332.592891 
L 444.095893 328.163203 
L 444.116906 328.303828 
L 444.119931 332.592891 
L 444.119931 332.592891 
L 444.119931 332.592891 
L 444.131045 328.092891 
L 444.231948 328.233516 
L 444.244889 332.592891 
L 444.245887 330.835078 
L 444.245887 330.835078 
L 444.246884 328.022578 
L 444.247885 329.991328 
L 444.247885 329.991328 
L 444.250886 332.592891 
L 444.250886 332.592891 
L 444.250886 332.592891 
L 444.350295 327.952266 
L 444.361091 332.592891 
L 444.364049 332.592891 
L 444.421317 328.092891 
L 444.474934 332.592891 
L 444.475943 332.592891 
L 444.512022 328.092891 
L 444.587002 329.499141 
L 444.592963 332.592891 
L 444.593959 329.569453 
L 444.593959 329.569453 
L 444.594952 328.233516 
L 444.595945 329.077266 
L 444.595945 329.077266 
L 444.599936 332.592891 
L 444.600935 329.569453 
L 444.600935 329.569453 
L 444.601931 328.374141 
L 444.601931 328.374141 
L 444.601931 328.374141 
L 444.614966 332.592891 
L 444.614966 332.592891 
L 444.614966 332.592891 
L 444.677967 328.022578 
L 444.72608 330.764766 
L 444.728063 328.233516 
L 444.730045 330.272578 
L 444.730045 330.272578 
L 444.735008 332.592891 
L 444.736004 331.749141 
L 444.736004 331.749141 
L 444.737995 328.444453 
L 444.738993 330.764766 
L 444.738993 330.764766 
L 444.741985 332.592891 
L 444.742986 330.835078 
L 444.742986 330.835078 
L 444.743983 328.163203 
L 444.744979 329.077266 
L 444.744979 329.077266 
L 444.747984 332.592891 
L 444.747984 332.592891 
L 444.747984 332.592891 
L 444.849363 328.092891 
L 444.858198 332.592891 
L 444.861153 332.592891 
L 444.87799 327.952266 
L 444.972994 328.163203 
L 445.084081 332.592891 
L 445.085073 332.100703 
L 445.087057 328.374141 
L 445.090037 331.819453 
L 445.090037 331.819453 
L 445.094016 332.592891 
L 445.094016 332.592891 
L 445.094016 332.592891 
L 445.191101 328.092891 
L 445.205414 328.585078 
L 445.217208 332.592891 
L 445.221158 328.585078 
L 445.221158 328.585078 
L 445.223134 328.092891 
L 445.223134 328.092891 
L 445.223134 328.092891 
L 445.311044 332.592891 
L 445.312044 331.467891 
L 445.312044 331.467891 
L 445.313041 328.022578 
L 445.314036 328.233516 
L 445.314036 328.233516 
L 445.317037 332.592891 
L 445.318039 331.116328 
L 445.318039 331.116328 
L 445.319044 328.092891 
L 445.319044 328.092891 
L 445.319044 328.092891 
L 445.340207 332.592891 
L 445.340207 332.592891 
L 445.340207 332.592891 
L 445.413245 327.811641 
L 445.451065 332.592891 
L 445.459053 327.811641 
L 445.561461 332.592891 
L 445.57623 332.592891 
L 445.580187 328.092891 
L 445.687199 328.514766 
L 445.698329 332.592891 
L 445.698329 332.592891 
L 445.698329 332.592891 
L 445.734176 327.178828 
L 445.809185 332.592891 
L 445.810184 332.592891 
L 445.812179 328.725703 
L 445.825218 332.592891 
L 445.837336 60.694453 
L 445.936304 332.592891 
L 445.941263 332.592891 
L 445.966249 61.046016 
L 446.051373 332.592891 
L 446.087214 328.092891 
L 446.162231 332.592891 
L 446.164226 332.592891 
L 446.165227 327.952266 
L 446.274622 332.592891 
L 446.290384 332.592891 
L 446.387307 328.022578 
L 446.403419 329.006953 
L 446.405446 332.592891 
L 446.405446 332.592891 
L 446.405446 332.592891 
L 446.478483 328.163203 
L 446.517325 329.147578 
L 446.52132 332.592891 
L 446.52132 332.592891 
L 446.52132 332.592891 
L 446.52832 328.092891 
L 446.631617 332.592891 
L 446.64542 332.592891 
L 446.731343 327.952266 
L 446.75642 332.592891 
L 446.75743 332.592891 
L 446.851598 328.092891 
L 446.869418 329.569453 
L 446.873399 332.592891 
L 446.874398 331.397578 
L 446.874398 331.397578 
L 446.876392 328.514766 
L 446.876392 328.514766 
L 446.876392 328.514766 
L 446.885396 332.592891 
L 446.885396 332.592891 
L 446.885396 332.592891 
L 446.963443 328.092891 
L 446.995605 332.592891 
L 447.002522 332.592891 
L 447.112505 328.092891 
L 447.113512 330.342891 
L 447.115533 332.592891 
L 447.115533 332.592891 
L 447.115533 332.592891 
L 447.217459 328.163203 
L 447.227385 329.991328 
L 447.22838 328.092891 
L 447.22838 328.092891 
L 447.22838 328.092891 
L 447.340786 332.592891 
L 447.442486 328.092891 
L 447.451481 332.592891 
L 447.452483 332.592891 
L 447.55388 328.163203 
L 447.564697 329.639766 
L 447.567655 327.952266 
L 447.570622 329.006953 
L 447.570622 329.006953 
L 447.577567 332.592891 
L 447.578558 331.678828 
L 447.578558 331.678828 
L 447.580546 328.374141 
L 447.581538 328.936641 
L 447.581538 328.936641 
L 447.585525 332.592891 
L 447.586523 330.764766 
L 447.586523 330.764766 
L 447.587519 328.444453 
L 447.588515 328.936641 
L 447.588515 328.936641 
L 447.591511 332.592891 
L 447.592516 331.608516 
L 447.592516 331.608516 
L 447.593518 328.374141 
L 447.594518 330.483516 
L 447.594518 330.483516 
L 447.596522 332.592891 
L 447.597526 331.467891 
L 447.597526 331.467891 
L 447.598528 328.374141 
L 447.59953 330.694453 
L 447.59953 330.694453 
L 447.601544 332.592891 
L 447.601544 332.592891 
L 447.601544 332.592891 
L 447.708666 328.092891 
L 447.712617 329.780391 
L 447.719557 332.592891 
L 447.720551 330.975703 
L 447.720551 330.975703 
L 447.722538 328.514766 
L 447.723534 330.272578 
L 447.723534 330.272578 
L 447.727518 332.592891 
L 447.728512 331.608516 
L 447.728512 331.608516 
L 447.729511 328.163203 
L 447.730509 329.428828 
L 447.730509 329.428828 
L 447.733507 332.592891 
L 447.734509 330.624141 
L 447.734509 330.624141 
L 447.735507 328.163203 
L 447.736505 329.288203 
L 447.736505 329.288203 
L 447.73951 332.592891 
L 447.73951 332.592891 
L 447.73951 332.592891 
L 447.81854 328.022578 
L 447.850667 329.077266 
L 447.851652 329.077266 
L 447.860564 332.592891 
L 447.861559 330.694453 
L 447.861559 330.694453 
L 447.863545 328.233516 
L 447.86454 329.850703 
L 447.86454 329.850703 
L 447.868524 332.592891 
L 447.870513 329.850703 
L 447.870513 329.850703 
L 447.871511 328.444453 
L 447.871511 328.444453 
L 447.871511 328.444453 
L 447.874511 332.592891 
L 447.875513 331.678828 
L 447.875513 331.678828 
L 447.876511 328.233516 
L 447.877508 328.444453 
L 447.877508 328.444453 
L 447.896626 332.592891 
L 447.896626 332.592891 
L 447.896626 332.592891 
L 447.936551 327.881953 
L 448.008572 328.163203 
L 448.092563 332.592891 
L 448.092563 332.592891 
L 448.092563 332.592891 
L 448.159594 327.952266 
L 448.203777 330.624141 
L 448.204761 330.764766 
L 448.204761 330.764766 
L 448.204761 330.764766 
L 448.208709 328.233516 
L 448.211676 329.710078 
L 448.211676 329.710078 
L 448.21763 332.592891 
L 448.219616 329.780391 
L 448.219616 329.780391 
L 448.220611 328.163203 
L 448.221605 329.147578 
L 448.221605 329.147578 
L 448.225587 332.592891 
L 448.226589 331.046016 
L 448.226589 331.046016 
L 448.227587 328.163203 
L 448.228587 329.780391 
L 448.228587 329.780391 
L 448.231585 332.592891 
L 448.232582 331.538203 
L 448.232582 331.538203 
L 448.23358 328.163203 
L 448.234581 329.850703 
L 448.234581 329.850703 
L 448.236585 332.592891 
L 448.237591 331.678828 
L 448.237591 331.678828 
L 448.238595 328.374141 
L 448.239597 331.678828 
L 448.239597 331.678828 
L 448.241607 332.592891 
L 448.241607 332.592891 
L 448.241607 332.592891 
L 448.284664 327.881953 
L 448.352705 332.592891 
L 448.355676 332.592891 
L 448.46672 327.952266 
L 448.540768 332.592891 
L 448.540768 332.592891 
L 448.540768 332.592891 
L 448.541778 327.881953 
L 448.65167 332.592891 
L 448.653664 332.592891 
L 448.67775 328.163203 
L 448.764022 332.592891 
L 448.765 332.592891 
L 448.847808 328.022578 
L 448.875662 332.592891 
L 448.877667 332.592891 
L 448.924744 328.163203 
L 448.987874 332.592891 
L 448.988859 332.592891 
L 449.016703 327.952266 
L 449.100801 329.288203 
L 449.102817 332.592891 
L 449.102817 332.592891 
L 449.102817 332.592891 
L 449.206876 328.092891 
L 449.213819 332.592891 
L 449.21481 332.592891 
L 449.288813 328.092891 
L 449.324972 330.975703 
L 449.348905 332.592891 
L 449.349893 331.538203 
L 449.349893 331.538203 
L 449.35286 328.374141 
L 449.354851 331.538203 
L 449.354851 331.538203 
L 449.359813 332.592891 
L 449.359813 332.592891 
L 449.359813 332.592891 
L 449.436764 327.952266 
L 449.470195 332.592891 
L 449.491846 332.592891 
L 449.528813 328.092891 
L 449.602867 328.374141 
L 449.607922 332.592891 
L 449.609952 329.288203 
L 449.609952 329.288203 
L 449.612263 328.163203 
L 449.612263 328.163203 
L 449.612263 328.163203 
L 449.681999 332.592891 
L 449.683292 328.585078 
L 449.683292 328.585078 
L 449.684271 328.092891 
L 449.684271 328.092891 
L 449.684271 328.092891 
L 449.797842 332.592891 
L 449.90511 328.092891 
L 449.910031 328.444453 
L 449.911017 327.881953 
L 449.912989 328.163203 
L 449.912989 328.163203 
L 449.964994 332.592891 
L 449.968265 328.374141 
L 449.968265 328.374141 
L 449.969245 328.092891 
L 449.969245 328.092891 
L 449.969245 328.092891 
L 450.084785 332.592891 
L 450.133907 328.022578 
L 450.195051 332.592891 
L 450.199985 332.592891 
L 450.309921 328.163203 
L 450.310931 331.116328 
L 450.312945 332.592891 
L 450.312945 332.592891 
L 450.312945 332.592891 
L 450.384964 328.092891 
L 450.423924 332.592891 
L 450.425911 332.592891 
L 450.520914 328.092891 
L 450.536344 332.592891 
L 450.539278 332.592891 
L 450.625025 328.092891 
L 450.651867 328.796016 
L 450.654868 332.592891 
L 450.655871 330.272578 
L 450.655871 330.272578 
L 450.656875 328.514766 
L 450.656875 328.514766 
L 450.656875 328.514766 
L 450.658882 332.592891 
L 450.659888 331.749141 
L 450.659888 331.749141 
L 450.660896 328.303828 
L 450.660896 328.303828 
L 450.660896 328.303828 
L 450.680325 332.592891 
L 450.690138 328.303828 
L 450.690138 328.303828 
L 450.692109 328.233516 
L 450.692109 328.233516 
L 450.692109 328.233516 
L 450.704956 332.592891 
L 450.706939 330.764766 
L 450.706939 330.764766 
L 450.707933 327.881953 
L 450.709918 329.639766 
L 450.709918 329.639766 
L 450.713906 332.592891 
L 450.713906 332.592891 
L 450.713906 332.592891 
L 450.734943 327.952266 
L 450.824366 331.819453 
L 450.839122 332.592891 
L 450.839122 332.592891 
L 450.839122 332.592891 
L 450.853001 327.952266 
L 450.950062 330.694453 
L 450.952074 332.592891 
L 450.952074 332.592891 
L 450.952074 332.592891 
L 451.017035 327.811641 
L 451.063048 332.592891 
L 451.065033 332.592891 
L 451.080002 328.092891 
L 451.175189 332.592891 
L 451.18234 332.592891 
L 451.283021 328.092891 
L 451.295016 329.499141 
L 451.297026 332.592891 
L 451.298028 331.467891 
L 451.298028 331.467891 
L 451.299033 328.725703 
L 451.299033 328.725703 
L 451.299033 328.725703 
L 451.302046 332.592891 
L 451.302046 332.592891 
L 451.302046 332.592891 
L 451.310118 328.022578 
L 451.412197 332.592891 
L 451.416161 332.592891 
L 451.497117 327.952266 
L 451.527252 328.444453 
L 451.52928 332.592891 
L 451.52928 332.592891 
L 451.52928 332.592891 
L 451.600317 328.022578 
L 451.64015 332.592891 
L 451.642143 332.592891 
L 451.701194 327.881953 
L 451.756383 328.796016 
L 451.75737 329.006953 
L 451.75737 329.006953 
L 451.75737 329.006953 
L 451.758351 328.585078 
L 451.758351 328.585078 
L 451.758351 328.585078 
L 451.770212 332.592891 
L 451.772192 330.835078 
L 451.772192 330.835078 
L 451.773184 327.881953 
L 451.775168 329.077266 
L 451.775168 329.077266 
L 451.780143 332.592891 
L 451.781136 330.342891 
L 451.781136 330.342891 
L 451.782135 328.374141 
L 451.782135 328.374141 
L 451.782135 328.374141 
L 451.786125 332.592891 
L 451.787123 331.538203 
L 451.787123 331.538203 
L 451.788121 327.952266 
L 451.789122 329.850703 
L 451.789122 329.850703 
L 451.792124 332.592891 
L 451.792124 332.592891 
L 451.792124 332.592891 
L 451.872188 328.163203 
L 451.902376 332.592891 
L 451.908295 332.592891 
L 451.997204 327.952266 
L 452.020277 328.514766 
L 452.029383 332.592891 
L 452.032631 328.725703 
L 452.032631 328.725703 
L 452.033611 328.303828 
L 452.035569 328.444453 
L 452.035569 328.444453 
L 452.039491 331.819453 
L 452.047371 329.217891 
L 452.047371 329.217891 
L 452.049346 328.092891 
L 452.050332 328.374141 
L 452.050332 328.374141 
L 452.059254 332.592891 
L 452.06025 328.585078 
L 452.06025 328.585078 
L 452.061241 328.303828 
L 452.061241 328.303828 
L 452.061241 328.303828 
L 452.066223 332.592891 
L 452.067221 330.342891 
L 452.067221 330.342891 
L 452.068216 328.233516 
L 452.069213 329.499141 
L 452.069213 329.499141 
L 452.072216 332.592891 
L 452.072216 332.592891 
L 452.072216 332.592891 
L 452.094336 320.006953 
L 452.184489 325.421016 
L 452.195357 332.592891 
L 452.197339 325.983516 
L 452.197339 325.983516 
L 452.19932 323.803828 
L 452.200314 325.491328 
L 452.200314 325.491328 
L 452.205286 332.592891 
L 452.206283 325.983516 
L 452.206283 325.983516 
L 452.207277 324.366328 
L 452.20827 325.421016 
L 452.20827 325.421016 
L 452.320614 332.592891 
L 452.322572 332.592891 
L 452.419315 327.881953 
L 452.433299 332.592891 
L 452.434304 332.592891 
L 452.511333 328.022578 
L 452.547457 328.303828 
L 452.548441 328.585078 
L 452.548441 328.585078 
L 452.548441 328.585078 
L 452.549431 328.022578 
L 452.550422 328.585078 
L 452.550422 328.585078 
L 452.557367 332.592891 
L 452.558361 330.553828 
L 452.558361 330.553828 
L 452.559357 328.303828 
L 452.560349 329.077266 
L 452.560349 329.077266 
L 452.56434 332.592891 
L 452.565338 329.991328 
L 452.565338 329.991328 
L 452.566333 328.233516 
L 452.567329 329.569453 
L 452.567329 329.569453 
L 452.570323 332.592891 
L 452.571324 331.116328 
L 452.571324 331.116328 
L 452.572326 328.233516 
L 452.573325 330.905391 
L 452.573325 330.905391 
L 452.575333 332.592891 
L 452.575333 332.592891 
L 452.575333 332.592891 
L 452.595479 327.811641 
L 452.686538 330.483516 
L 452.695442 332.592891 
L 452.69643 331.327266 
L 452.69643 331.327266 
L 452.698413 328.233516 
L 452.700398 330.624141 
L 452.700398 330.624141 
L 452.705368 332.592891 
L 452.705368 332.592891 
L 452.705368 332.592891 
L 452.815739 327.881953 
L 452.816718 328.444453 
L 452.826541 332.592891 
L 452.832457 328.514766 
L 452.832457 328.514766 
L 452.833443 328.233516 
L 452.833443 328.233516 
L 452.833443 328.233516 
L 452.834433 328.725703 
L 452.834433 328.725703 
L 452.834433 328.725703 
L 452.83542 328.022578 
L 452.83542 328.022578 
L 452.83542 328.022578 
L 452.947432 332.592891 
L 452.948441 331.608516 
L 452.953501 332.592891 
L 452.956778 331.960078 
L 452.956778 331.960078 
L 452.957753 331.046016 
L 452.958732 331.327266 
L 452.958732 331.327266 
L 453.03074 332.592891 
L 453.033682 331.608516 
L 453.033682 331.608516 
L 453.034661 331.116328 
L 453.035644 331.186641 
L 453.035644 331.186641 
L 453.054414 332.592891 
L 453.055406 331.186641 
L 453.055406 331.186641 
L 453.056397 330.835078 
L 453.056397 330.835078 
L 453.056397 330.835078 
L 453.098806 332.592891 
L 453.10076 331.186641 
L 453.10076 331.186641 
L 453.102718 329.710078 
L 453.105661 330.975703 
L 453.105661 330.975703 
L 453.107626 331.678828 
L 453.10861 331.327266 
L 453.10861 331.327266 
L 453.109596 330.694453 
L 453.110579 330.835078 
L 453.110579 330.835078 
L 453.111561 331.397578 
L 453.111561 331.397578 
L 453.111561 331.397578 
L 453.113538 329.006953 
L 453.117485 331.116328 
L 453.117485 331.116328 
L 453.125413 332.592891 
L 453.125413 332.592891 
L 453.125413 332.592891 
L 453.154409 328.514766 
L 453.162497 332.592891 
L 133.61794 332.592891 
L 133.618971 332.592891 
L 133.626373 328.163203 
L 133.729022 330.272578 
L 133.730334 332.592891 
L 133.731343 331.046016 
L 133.731343 331.046016 
L 133.732346 328.444453 
L 133.732346 328.444453 
L 133.732346 328.444453 
L 133.759752 332.592891 
L 133.759752 332.592891 
L 133.759752 332.592891 
L 133.8545 327.811641 
L 133.870839 332.592891 
L 133.938747 328.022578 
L 133.982934 329.850703 
L 133.989125 332.592891 
L 133.989125 332.592891 
L 133.989125 332.592891 
L 134.093992 328.022578 
L 134.101234 328.444453 
L 134.108812 332.592891 
L 134.108812 332.592891 
L 134.108812 332.592891 
L 134.134139 328.022578 
L 134.219831 330.272578 
L 134.221843 332.592891 
L 134.221843 332.592891 
L 134.221843 332.592891 
L 134.291539 326.475703 
L 134.332875 332.241328 
L 134.333886 332.592891 
L 134.333886 332.592891 
L 134.333886 332.592891 
L 134.437842 328.022578 
L 134.444904 328.163203 
L 134.446934 332.592891 
L 134.446934 332.592891 
L 134.446934 332.592891 
L 134.450987 328.022578 
L 134.557988 332.592891 
L 134.669016 327.741328 
L 134.697759 332.592891 
L 134.697759 332.592891 
L 134.697759 332.592891 
L 134.698794 326.756953 
L 134.80885 332.592891 
L 134.878923 325.983516 
L 134.919963 329.428828 
L 134.923331 332.592891 
L 134.923331 332.592891 
L 134.923331 332.592891 
L 134.986935 326.897578 
L 135.034318 332.592891 
L 135.096939 325.702266 
L 135.145365 332.592891 
L 135.146376 332.592891 
L 135.239755 324.928828 
L 135.257395 327.389766 
L 135.258408 332.592891 
L 135.259423 329.850703 
L 135.259423 329.850703 
L 135.260434 325.983516 
L 135.260434 325.983516 
L 135.260434 325.983516 
L 135.269592 332.592891 
L 135.269592 332.592891 
L 135.269592 332.592891 
L 135.311926 324.717891 
L 135.380606 329.991328 
L 135.384703 332.592891 
L 135.384703 332.592891 
L 135.384703 332.592891 
L 135.460924 322.116328 
L 135.495823 330.061641 
L 135.496851 332.592891 
L 135.496851 332.592891 
L 135.496851 332.592891 
L 135.507156 326.124141 
L 135.608942 328.374141 
L 135.620322 332.592891 
L 135.620322 332.592891 
L 135.620322 332.592891 
L 135.697459 325.350703 
L 135.731394 332.592891 
L 135.829031 325.491328 
L 135.842794 328.303828 
L 135.864048 332.592891 
L 135.864048 332.592891 
L 135.864048 332.592891 
L 135.962893 324.999141 
L 135.975095 331.960078 
L 135.976118 332.592891 
L 135.976118 332.592891 
L 135.976118 332.592891 
L 136.039818 325.561641 
L 136.088193 327.671016 
L 136.199238 332.592891 
L 136.302131 327.952266 
L 136.310332 332.592891 
L 136.420372 328.022578 
L 136.422434 329.217891 
L 136.430691 332.592891 
L 136.430691 332.592891 
L 136.430691 332.592891 
L 136.520174 328.022578 
L 136.541811 329.921016 
L 136.542846 332.592891 
L 136.542846 332.592891 
L 136.542846 332.592891 
L 136.643599 327.811641 
L 136.653953 331.889766 
L 136.656266 332.592891 
L 136.656266 332.592891 
L 136.656266 332.592891 
L 136.696005 327.952266 
L 136.767295 329.077266 
L 136.769308 332.592891 
L 136.769308 332.592891 
L 136.769308 332.592891 
L 136.873269 323.100703 
L 136.880323 326.264766 
L 136.913016 332.592891 
L 136.913016 332.592891 
L 136.913016 332.592891 
L 136.944991 319.936641 
L 137.024114 332.592891 
L 137.114649 322.046016 
L 137.136281 323.944453 
L 137.140442 332.592891 
L 137.140442 332.592891 
L 137.140442 332.592891 
L 137.18664 322.046016 
L 137.250813 332.592891 
L 137.251818 332.592891 
L 137.252824 324.225703 
L 137.362842 329.147578 
L 137.364854 332.592891 
L 137.364854 332.592891 
L 137.364854 332.592891 
L 137.396451 327.741328 
L 137.475863 330.624141 
L 137.476874 329.358516 
L 137.476874 329.358516 
L 137.476874 329.358516 
L 137.487018 332.592891 
L 137.487018 332.592891 
L 137.487018 332.592891 
L 137.599119 327.952266 
L 137.666948 332.592891 
L 137.666948 332.592891 
L 137.666948 332.592891 
L 137.667979 327.811641 
L 137.778049 332.592891 
L 137.850345 328.233516 
L 137.89016 330.483516 
L 137.89429 332.592891 
L 137.89429 332.592891 
L 137.89429 332.592891 
L 138.00122 328.163203 
L 138.006415 328.374141 
L 138.011826 332.592891 
L 138.012833 331.608516 
L 138.012833 331.608516 
L 138.013838 328.303828 
L 138.013838 328.303828 
L 138.013838 328.303828 
L 138.051611 332.592891 
L 138.051611 332.592891 
L 138.051611 332.592891 
L 138.104072 328.092891 
L 138.162684 332.592891 
L 138.168913 328.092891 
L 138.27381 329.710078 
L 138.274848 332.592891 
L 138.274848 332.592891 
L 138.274848 332.592891 
L 138.34894 328.233516 
L 138.385939 332.592891 
L 138.38933 332.592891 
L 138.490774 328.163203 
L 138.500311 332.592891 
L 138.554813 328.092891 
L 138.611339 328.725703 
L 138.613356 332.592891 
L 138.613356 332.592891 
L 138.613356 332.592891 
L 138.614367 328.163203 
L 138.724391 330.905391 
L 138.725401 332.592891 
L 138.725401 332.592891 
L 138.725401 332.592891 
L 138.792066 327.952266 
L 138.83741 328.233516 
L 138.891928 332.592891 
L 138.891928 332.592891 
L 138.891928 332.592891 
L 138.933276 328.092891 
L 139.002974 332.592891 
L 139.003988 332.592891 
L 139.098804 328.163203 
L 139.116061 328.233516 
L 139.228156 332.592891 
L 139.325946 328.163203 
L 139.340249 328.303828 
L 139.359873 332.592891 
L 139.359873 332.592891 
L 139.359873 332.592891 
L 139.368332 328.022578 
L 139.471279 330.342891 
L 139.473291 332.592891 
L 139.473291 332.592891 
L 139.473291 332.592891 
L 139.571685 328.092891 
L 139.584295 328.233516 
L 139.601519 332.592891 
L 139.601519 332.592891 
L 139.601519 332.592891 
L 139.652973 328.163203 
L 139.712582 332.592891 
L 139.753838 328.022578 
L 139.82362 332.592891 
L 139.899777 328.092891 
L 139.934657 328.444453 
L 139.93568 332.592891 
L 139.93568 332.592891 
L 139.93568 332.592891 
L 140.003597 328.092891 
L 140.046781 328.796016 
L 140.047809 332.592891 
L 140.047809 332.592891 
L 140.047809 332.592891 
L 140.147559 328.233516 
L 140.158849 330.975703 
L 140.159876 332.592891 
L 140.159876 332.592891 
L 140.159876 332.592891 
L 140.225805 328.163203 
L 140.270968 328.866328 
L 140.280294 332.592891 
L 140.280294 332.592891 
L 140.280294 332.592891 
L 140.303954 328.092891 
L 140.391423 330.202266 
L 140.392728 332.592891 
L 140.392728 332.592891 
L 140.392728 332.592891 
L 140.468485 328.092891 
L 140.50375 332.592891 
L 140.504754 332.592891 
L 140.590806 328.022578 
L 140.615762 328.725703 
L 140.617781 332.592891 
L 140.617781 332.592891 
L 140.617781 332.592891 
L 140.694707 328.163203 
L 140.728806 332.592891 
L 140.729816 332.592891 
L 140.77223 328.163203 
L 140.841891 328.444453 
L 140.867499 332.592891 
L 140.867499 332.592891 
L 140.867499 332.592891 
L 140.963128 328.163203 
L 140.97858 332.592891 
L 140.979616 332.592891 
L 141.032072 328.163203 
L 141.0907 332.592891 
L 141.091739 332.592891 
L 141.141066 328.022578 
L 141.20287 330.624141 
L 141.20622 332.592891 
L 141.207221 330.694453 
L 141.207221 330.694453 
L 141.208227 329.077266 
L 141.208227 329.077266 
L 141.208227 329.077266 
L 141.210244 332.592891 
L 141.210244 332.592891 
L 141.210244 332.592891 
L 141.295311 328.022578 
L 141.32128 332.592891 
L 141.416732 328.092891 
L 141.432292 328.233516 
L 141.434315 332.592891 
L 141.434315 332.592891 
L 141.434315 332.592891 
L 141.543342 328.092891 
L 141.546384 328.303828 
L 141.550456 332.592891 
L 141.550456 332.592891 
L 141.550456 332.592891 
L 141.612099 328.163203 
L 141.661496 332.592891 
L 141.702769 328.022578 
L 141.772515 328.444453 
L 141.789984 332.592891 
L 141.789984 332.592891 
L 141.789984 332.592891 
L 141.861207 328.022578 
L 141.901074 330.342891 
L 141.902112 332.592891 
L 141.902112 332.592891 
L 141.902112 332.592891 
L 141.906269 328.163203 
L 142.013228 330.413203 
L 142.015309 332.592891 
L 142.015309 332.592891 
L 142.015309 332.592891 
L 142.127672 311.569453 
L 142.173665 332.592891 
L 142.173665 332.592891 
L 142.173665 332.592891 
L 142.175744 293.991328 
L 142.283765 311.077266 
L 142.392817 332.592891 
L 142.394899 314.171016 
L 142.419537 332.592891 
L 142.419537 332.592891 
L 142.419537 332.592891 
L 142.530628 310.796016 
L 142.548103 332.592891 
L 142.548103 332.592891 
L 142.548103 332.592891 
L 142.656158 298.491328 
L 142.658223 302.077266 
L 142.662363 332.592891 
L 142.662363 332.592891 
L 142.662363 332.592891 
L 142.729393 207.506953 
L 142.774521 284.921016 
L 142.776867 278.522578 
L 142.776867 278.522578 
L 142.776867 278.522578 
L 142.80838 329.921016 
L 142.841481 296.663203 
L 142.841481 296.663203 
L 142.842495 272.897578 
L 142.845541 280.210078 
L 142.845541 280.210078 
L 142.953588 332.592891 
L 142.957654 325.913203 
L 142.963777 332.592891 
L 142.963777 332.592891 
L 142.963777 332.592891 
L 142.964801 324.858516 
L 143.074856 327.530391 
L 143.186954 332.592891 
L 143.212997 327.600703 
L 143.298041 329.358516 
L 143.304231 332.592891 
L 143.304231 332.592891 
L 143.304231 332.592891 
L 143.410142 327.952266 
L 143.415308 332.592891 
L 143.41634 332.592891 
L 143.495617 327.952266 
L 143.52741 332.592891 
L 143.590478 328.022578 
L 143.639552 330.342891 
L 143.640593 332.592891 
L 143.640593 332.592891 
L 143.640593 332.592891 
L 143.643944 327.671016 
L 143.752942 329.217891 
L 143.758986 332.592891 
L 143.758986 332.592891 
L 143.758986 332.592891 
L 143.771162 327.881953 
L 143.870028 332.592891 
L 143.95418 327.881953 
L 143.981041 332.592891 
L 143.982056 332.592891 
L 144.050834 328.022578 
L 144.093107 330.131953 
L 144.095135 332.592891 
L 144.095135 332.592891 
L 144.095135 332.592891 
L 144.192984 327.811641 
L 144.207198 328.022578 
L 144.319268 332.592891 
L 144.400937 327.881953 
L 144.430373 331.889766 
L 144.431399 332.592891 
L 144.431399 332.592891 
L 144.431399 332.592891 
L 144.451011 212.569453 
L 144.554877 268.256953 
L 144.555913 315.225703 
L 144.555913 315.225703 
L 144.555913 315.225703 
L 144.578661 251.944453 
L 144.588866 252.928828 
L 144.588866 252.928828 
L 144.693864 318.038203 
L 144.699997 257.147578 
L 144.701022 316.069453 
L 144.701022 316.069453 
L 144.701022 316.069453 
L 144.702049 253.210078 
L 144.702049 253.210078 
L 144.702049 253.210078 
L 144.703074 317.686641 
L 144.703074 317.686641 
L 144.703074 317.686641 
L 144.704099 252.225703 
L 144.708213 252.858516 
L 144.708213 252.858516 
L 144.716484 319.092891 
L 144.774139 309.319453 
L 144.774139 309.319453 
L 144.775174 251.874141 
L 144.775174 251.874141 
L 144.775174 251.874141 
L 144.779331 317.827266 
L 144.779331 317.827266 
L 144.779331 317.827266 
L 144.780637 250.186641 
L 144.799867 265.585078 
L 144.799867 265.585078 
L 144.800882 318.741328 
L 144.800882 318.741328 
L 144.800882 318.741328 
L 144.801903 254.686641 
L 144.807015 259.819453 
L 144.807015 259.819453 
L 144.808035 318.952266 
L 144.808035 318.952266 
L 144.808035 318.952266 
L 144.809061 251.874141 
L 144.809061 251.874141 
L 144.809061 251.874141 
L 144.810087 319.092891 
L 144.810087 319.092891 
L 144.810087 319.092891 
L 144.813171 250.608516 
L 144.813171 250.608516 
L 144.813171 250.608516 
L 144.8142 319.444453 
L 144.8142 319.444453 
L 144.8142 319.444453 
L 144.815229 250.046016 
L 144.824518 258.553828 
L 144.824518 258.553828 
L 144.825554 319.796016 
L 144.825554 319.796016 
L 144.825554 319.796016 
L 144.829709 252.928828 
L 144.868771 302.499141 
L 144.868771 302.499141 
L 144.979871 332.592891 
L 144.980898 328.725703 
L 144.981926 332.592891 
L 144.981926 332.592891 
L 144.981926 332.592891 
L 145.089961 327.741328 
L 145.092023 328.092891 
L 145.098221 332.592891 
L 145.098221 332.592891 
L 145.098221 332.592891 
L 145.152718 327.881953 
L 145.20929 332.592891 
L 145.21033 332.592891 
L 145.307923 327.952266 
L 145.320367 330.624141 
L 145.322729 332.592891 
L 145.322729 332.592891 
L 145.322729 332.592891 
L 145.398485 327.741328 
L 145.433715 328.374141 
L 145.460134 332.592891 
L 145.460134 332.592891 
L 145.460134 332.592891 
L 145.513633 327.600703 
L 145.571224 330.342891 
L 145.572248 332.592891 
L 145.572248 332.592891 
L 145.572248 332.592891 
L 145.656763 328.022578 
L 145.683295 332.030391 
L 145.684327 332.592891 
L 145.684327 332.592891 
L 145.684327 332.592891 
L 145.770834 328.092891 
L 145.796418 329.850703 
L 145.800554 332.592891 
L 145.800554 332.592891 
L 145.800554 332.592891 
L 145.903414 327.952266 
L 145.910644 330.413203 
L 145.911677 332.592891 
L 145.911677 332.592891 
L 145.911677 332.592891 
L 145.982802 327.881953 
L 146.021754 332.592891 
L 146.02279 332.592891 
L 146.130759 328.163203 
L 146.132842 332.592891 
L 146.1352 332.592891 
L 146.15239 328.022578 
L 146.246224 332.592891 
L 146.34057 328.022578 
L 146.357305 329.147578 
L 146.359321 332.592891 
L 146.359321 332.592891 
L 146.359321 332.592891 
L 146.395105 328.022578 
L 146.470365 331.256953 
L 146.471379 329.921016 
L 146.471379 329.921016 
L 146.471379 329.921016 
L 146.478479 332.592891 
L 146.478479 332.592891 
L 146.478479 332.592891 
L 146.544223 328.163203 
L 146.589523 332.592891 
L 146.697537 327.952266 
L 146.700595 331.046016 
L 146.701614 332.592891 
L 146.701614 332.592891 
L 146.701614 332.592891 
L 146.712912 327.952266 
L 146.812692 330.131953 
L 146.813717 332.592891 
L 146.813717 332.592891 
L 146.813717 332.592891 
L 146.882671 328.163203 
L 146.92477 328.585078 
L 146.931968 332.592891 
L 146.931968 332.592891 
L 146.931968 332.592891 
L 147.02767 328.022578 
L 147.042052 329.921016 
L 147.043086 332.592891 
L 147.043086 332.592891 
L 147.043086 332.592891 
L 147.125469 328.092891 
L 147.154182 331.397578 
L 147.155219 331.256953 
L 147.155219 331.256953 
L 147.155219 331.256953 
L 147.156256 332.592891 
L 147.156256 332.592891 
L 147.156256 332.592891 
L 147.17392 328.022578 
L 147.267348 329.780391 
L 147.269426 332.592891 
L 147.269426 332.592891 
L 147.269426 332.592891 
L 147.357795 328.092891 
L 147.379506 331.116328 
L 147.381819 332.592891 
L 147.381819 332.592891 
L 147.381819 332.592891 
L 147.426723 328.022578 
L 147.492867 328.374141 
L 147.498926 332.592891 
L 147.498926 332.592891 
L 147.498926 332.592891 
L 147.595492 328.092891 
L 147.609965 330.342891 
L 147.610976 329.991328 
L 147.610976 329.991328 
L 147.610976 329.991328 
L 147.611995 332.592891 
L 147.611995 332.592891 
L 147.611995 332.592891 
L 147.658427 328.092891 
L 147.723041 331.327266 
L 147.724056 329.780391 
L 147.724056 329.780391 
L 147.724056 329.780391 
L 147.72507 332.592891 
L 147.72507 332.592891 
L 147.72507 332.592891 
L 147.80941 328.092891 
L 147.836152 329.850703 
L 147.837173 332.592891 
L 147.837173 332.592891 
L 147.837173 332.592891 
L 147.920521 327.952266 
L 147.948231 328.163203 
L 148.04099 332.592891 
L 148.04099 332.592891 
L 148.04099 332.592891 
L 148.053179 328.022578 
L 148.152058 329.217891 
L 148.156118 332.592891 
L 148.156118 332.592891 
L 148.156118 332.592891 
L 148.233122 328.092891 
L 148.268169 328.303828 
L 148.30345 332.592891 
L 148.30345 332.592891 
L 148.30345 332.592891 
L 148.415478 328.022578 
L 148.527552 332.592891 
L 148.572984 328.163203 
L 148.638607 328.866328 
L 148.645712 332.592891 
L 148.645712 332.592891 
L 148.645712 332.592891 
L 148.684002 327.881953 
L 148.756773 328.303828 
L 148.769058 332.592891 
L 148.769058 332.592891 
L 148.769058 332.592891 
L 148.770087 328.022578 
L 148.820484 332.311641 
" style="fill:none;opacity:0.6;stroke:#0000ff;stroke-linecap:square;stroke-width:2.0;"/>
   </g>
   <g id="line2d_2">
    <path clip-path="url(#p078f901c24)" d="M 444 328.596328 
L 444.001002 330.846328 
L 444.004012 330.916641 
L 444.004012 330.916641 
L 444.005017 328.877578 
L 444.005017 328.877578 
L 444.005017 328.877578 
L 444.007025 332.815078 
L 444.008031 332.533828 
L 444.008031 332.533828 
L 444.009037 328.526016 
L 444.058687 329.580703 
L 444.058687 329.580703 
L 444.059701 332.815078 
L 444.060716 331.549453 
L 444.060716 331.549453 
L 444.061732 329.440078 
L 444.061732 329.440078 
L 444.061732 329.440078 
L 444.066936 332.815078 
L 444.070852 329.440078 
L 444.070852 329.440078 
L 444.072815 328.666641 
L 444.072815 328.666641 
L 444.072815 328.666641 
L 444.088617 332.815078 
L 444.0906 329.932266 
L 444.0906 329.932266 
L 444.091595 328.315078 
L 444.092585 328.807266 
L 444.092585 328.807266 
L 444.097563 332.815078 
L 444.098553 331.549453 
L 444.098553 331.549453 
L 444.099552 328.244766 
L 444.100552 329.158828 
L 444.100552 329.158828 
L 444.10355 332.815078 
L 444.104552 331.690078 
L 444.104552 331.690078 
L 444.105545 328.385391 
L 444.106549 330.635391 
L 444.106549 330.635391 
L 444.109551 332.815078 
L 444.109551 332.815078 
L 444.109551 332.815078 
L 444.206008 328.244766 
L 444.220743 331.971328 
L 444.221729 332.604141 
L 444.221729 332.604141 
L 444.221729 332.604141 
L 444.226672 328.315078 
L 444.229644 331.619766 
L 444.229644 331.619766 
L 444.234606 332.815078 
L 444.234606 332.815078 
L 444.234606 332.815078 
L 444.236594 328.174453 
L 444.344746 328.385391 
L 444.388556 332.815078 
L 444.388556 332.815078 
L 444.388556 332.815078 
L 444.389557 328.104141 
L 444.499862 328.385391 
L 444.525604 332.815078 
L 444.525604 332.815078 
L 444.525604 332.815078 
L 444.526602 328.104141 
L 444.636999 328.526016 
L 444.637981 328.666641 
L 444.637981 328.666641 
L 444.637981 328.666641 
L 444.639944 328.385391 
L 444.639944 328.385391 
L 444.639944 328.385391 
L 444.64093 328.807266 
L 444.64093 328.807266 
L 444.64093 328.807266 
L 444.644862 328.174453 
L 444.646838 328.596328 
L 444.646838 328.596328 
L 444.659692 332.815078 
L 444.660688 330.986953 
L 444.660688 330.986953 
L 444.661679 328.385391 
L 444.663667 330.916641 
L 444.663667 330.916641 
L 444.667658 332.815078 
L 444.667658 332.815078 
L 444.667658 332.815078 
L 444.770816 328.174453 
L 444.778033 332.815078 
L 444.796745 332.815078 
L 444.814654 328.174453 
L 444.90774 332.815078 
L 444.974688 328.385391 
L 445.018674 332.815078 
L 445.019661 332.815078 
L 445.120782 328.244766 
L 445.131148 331.197891 
L 445.151811 332.815078 
L 445.152794 331.690078 
L 445.152794 331.690078 
L 445.15478 328.244766 
L 445.157757 331.057266 
L 445.157757 331.057266 
L 445.16272 332.815078 
L 445.16272 332.815078 
L 445.16272 332.815078 
L 445.176698 328.244766 
L 445.274141 330.565078 
L 445.287901 328.244766 
L 445.292838 330.354141 
L 445.292838 330.354141 
L 445.300763 332.815078 
L 445.377742 60.916641 
L 445.411908 61.197891 
L 445.419092 332.815078 
L 445.419092 332.815078 
L 445.419092 332.815078 
L 445.420067 61.127578 
L 445.529742 329.440078 
L 445.532745 332.815078 
L 445.53375 329.440078 
L 445.53375 329.440078 
L 445.534747 329.018203 
L 445.534747 329.018203 
L 445.534747 329.018203 
L 445.53676 332.815078 
L 445.537766 331.690078 
L 445.537766 331.690078 
L 445.538765 328.455703 
L 445.538765 328.455703 
L 445.538765 328.455703 
L 445.551892 332.815078 
L 445.551892 332.815078 
L 445.551892 332.815078 
L 445.640037 328.104141 
L 445.662808 332.815078 
L 445.663806 332.815078 
L 445.775222 328.104141 
L 445.776205 329.440078 
L 445.782094 332.815078 
L 445.785056 330.213516 
L 445.785056 330.213516 
L 445.788018 328.244766 
L 445.791975 329.651016 
L 445.791975 329.651016 
L 445.798909 332.815078 
L 445.800896 330.002578 
L 445.800896 330.002578 
L 445.80189 328.244766 
L 445.802883 329.791641 
L 445.802883 329.791641 
L 445.806869 332.815078 
L 445.807869 331.830703 
L 445.807869 331.830703 
L 445.80886 328.526016 
L 445.80986 329.229141 
L 445.80986 329.229141 
L 445.812854 332.815078 
L 445.813856 332.674453 
L 445.813856 332.674453 
L 445.814859 328.455703 
L 445.815854 328.947891 
L 445.815854 328.947891 
L 445.818868 332.815078 
L 445.818868 332.815078 
L 445.818868 332.815078 
L 445.841345 327.752578 
L 445.929055 332.815078 
L 445.935979 332.815078 
L 445.939949 327.822891 
L 446.048011 328.526016 
L 446.095862 332.815078 
L 446.096864 330.354141 
L 446.096864 330.354141 
L 446.097858 328.385391 
L 446.097858 328.385391 
L 446.097858 328.385391 
L 446.109902 332.815078 
L 446.109902 332.815078 
L 446.109902 332.815078 
L 446.154938 328.315078 
L 446.220036 332.815078 
L 446.223006 332.815078 
L 446.225984 328.174453 
L 446.334091 332.252578 
L 446.335103 332.815078 
L 446.335103 332.815078 
L 446.335103 332.815078 
L 446.37898 328.174453 
L 446.446999 329.651016 
L 446.450991 332.815078 
L 446.450991 332.815078 
L 446.450991 332.815078 
L 446.487335 328.104141 
L 446.561284 332.815078 
L 446.574104 332.815078 
L 446.627373 328.244766 
L 446.686077 330.635391 
L 446.687093 332.815078 
L 446.688107 331.408828 
L 446.688107 331.408828 
L 446.689116 329.018203 
L 446.689116 329.018203 
L 446.689116 329.018203 
L 446.69317 332.815078 
L 446.694488 329.791641 
L 446.694488 329.791641 
L 446.696439 328.455703 
L 446.696439 328.455703 
L 446.696439 328.455703 
L 446.733016 332.815078 
L 446.734014 330.354141 
L 446.734014 330.354141 
L 446.735011 328.385391 
L 446.735011 328.385391 
L 446.735011 328.385391 
L 446.784199 332.815078 
L 446.788147 328.807266 
L 446.788147 328.807266 
L 446.78914 328.244766 
L 446.790133 328.807266 
L 446.790133 328.807266 
L 446.797078 332.815078 
L 446.798075 330.565078 
L 446.798075 330.565078 
L 446.799072 328.244766 
L 446.800068 329.229141 
L 446.800068 329.229141 
L 446.804049 332.815078 
L 446.805049 331.619766 
L 446.805049 331.619766 
L 446.806049 328.526016 
L 446.807047 329.088516 
L 446.807047 329.088516 
L 446.810052 332.815078 
L 446.811047 331.127578 
L 446.811047 331.127578 
L 446.812051 328.877578 
L 446.812051 328.877578 
L 446.812051 328.877578 
L 446.827135 332.815078 
L 446.827135 332.815078 
L 446.827135 332.815078 
L 446.937133 327.963516 
L 446.938128 328.385391 
L 446.978276 332.815078 
L 446.983484 328.526016 
L 446.983484 328.526016 
L 446.984461 328.315078 
L 446.984461 328.315078 
L 446.984461 328.315078 
L 447.097088 332.815078 
L 447.187215 328.174453 
L 447.210213 328.385391 
L 447.262241 332.815078 
L 447.266483 328.455703 
L 447.266483 328.455703 
L 447.267465 328.244766 
L 447.267465 328.244766 
L 447.267465 328.244766 
L 447.295101 332.815078 
L 447.296094 331.057266 
L 447.296094 331.057266 
L 447.297088 328.033828 
L 447.298085 329.440078 
L 447.298085 329.440078 
L 447.302079 332.815078 
L 447.30307 331.127578 
L 447.30307 331.127578 
L 447.304071 328.596328 
L 447.304071 328.596328 
L 447.304071 328.596328 
L 447.308074 332.815078 
L 447.308074 332.815078 
L 447.308074 332.815078 
L 447.374125 328.104141 
L 447.418399 332.815078 
L 447.419377 332.815078 
L 447.501265 328.244766 
L 447.530198 332.815078 
L 447.531202 332.815078 
L 447.624558 327.893203 
L 447.642293 331.268203 
L 447.648242 332.815078 
L 447.649239 332.111953 
L 447.649239 332.111953 
L 447.651223 328.666641 
L 447.653215 332.041641 
L 447.653215 332.041641 
L 447.657195 332.815078 
L 447.657195 332.815078 
L 447.657195 332.815078 
L 447.726194 328.174453 
L 447.768504 331.901016 
L 447.778346 332.815078 
L 447.778346 332.815078 
L 447.778346 332.815078 
L 447.807173 327.963516 
L 447.889235 331.127578 
L 447.891254 332.815078 
L 447.891254 332.815078 
L 447.891254 332.815078 
L 447.932256 328.174453 
L 448.002279 332.815078 
L 448.063414 328.174453 
L 448.114401 329.861953 
L 448.116434 332.815078 
L 448.116434 332.815078 
L 448.116434 332.815078 
L 448.216307 328.174453 
L 448.227264 332.815078 
L 448.229262 332.815078 
L 448.30327 328.244766 
L 448.339558 332.815078 
L 448.348433 332.815078 
L 448.42735 328.174453 
L 448.459329 332.815078 
L 448.460339 332.815078 
L 448.50035 328.315078 
L 448.572367 328.526016 
L 448.590323 332.815078 
L 448.590323 332.815078 
L 448.590323 332.815078 
L 448.600378 328.174453 
L 448.701549 328.385391 
L 448.702529 328.385391 
L 448.71342 332.815078 
L 448.715404 329.580703 
L 448.715404 329.580703 
L 448.7164 328.315078 
L 448.717386 328.807266 
L 448.717386 328.807266 
L 448.722368 332.815078 
L 448.723365 330.424453 
L 448.723365 330.424453 
L 448.72436 328.315078 
L 448.72436 328.315078 
L 448.72436 328.315078 
L 448.738374 332.815078 
L 448.738374 332.815078 
L 448.738374 332.815078 
L 448.758804 327.963516 
L 448.849459 332.815078 
L 448.85342 332.815078 
L 448.952378 328.104141 
L 448.964479 330.776016 
L 448.965487 332.815078 
L 448.9665 330.916641 
L 448.9665 330.916641 
L 448.967516 330.635391 
L 448.967516 330.635391 
L 448.967516 330.635391 
L 448.97379 332.815078 
L 448.976728 330.776016 
L 448.976728 330.776016 
L 448.984594 328.385391 
L 448.988534 329.791641 
L 448.988534 329.791641 
L 448.997444 332.815078 
L 448.998437 330.916641 
L 448.998437 330.916641 
L 448.99943 328.455703 
L 449.001417 330.143203 
L 449.001417 330.143203 
L 449.006386 332.815078 
L 449.007385 330.143203 
L 449.007385 330.143203 
L 449.008384 328.174453 
L 449.008384 328.174453 
L 449.008384 328.174453 
L 449.118792 332.815078 
L 449.120751 331.408828 
L 449.122715 329.932266 
L 449.125671 331.268203 
L 449.125671 331.268203 
L 449.126658 332.041641 
L 449.126658 332.041641 
L 449.126658 332.041641 
L 449.127645 331.197891 
L 449.127645 331.197891 
L 449.127645 331.197891 
L 449.138511 332.815078 
L 449.139499 331.760391 
L 449.139499 331.760391 
L 449.142474 328.455703 
L 449.143473 331.408828 
L 449.143473 331.408828 
L 449.148438 332.815078 
L 449.148438 332.815078 
L 449.148438 332.815078 
L 449.180571 328.244766 
L 449.259847 330.986953 
L 449.266722 328.174453 
L 449.27559 330.635391 
L 449.27559 330.635391 
L 449.283517 332.815078 
L 449.283517 332.815078 
L 449.283517 332.815078 
L 449.345614 327.893203 
L 449.394617 332.111953 
L 449.395631 330.213516 
L 449.395631 330.213516 
L 449.395631 330.213516 
L 449.423503 332.815078 
L 449.424491 331.479141 
L 449.424491 331.479141 
L 449.42549 328.174453 
L 449.427473 329.861953 
L 449.427473 329.861953 
L 449.432449 332.815078 
L 449.433447 330.002578 
L 449.433447 330.002578 
L 449.434441 328.385391 
L 449.434441 328.385391 
L 449.434441 328.385391 
L 449.438434 332.815078 
L 449.439434 331.268203 
L 449.439434 331.268203 
L 449.440434 328.244766 
L 449.440434 328.244766 
L 449.440434 328.244766 
L 449.466605 332.815078 
L 449.470849 328.807266 
L 449.470849 328.807266 
L 449.471829 328.174453 
L 449.472805 328.385391 
L 449.472805 328.385391 
L 449.482628 332.815078 
L 449.487562 328.455703 
L 449.487562 328.455703 
L 449.488553 328.244766 
L 449.488553 328.244766 
L 449.488553 328.244766 
L 449.539927 332.815078 
L 449.5458 328.385391 
L 449.5458 328.385391 
L 449.546784 328.174453 
L 449.547762 328.315078 
L 449.547762 328.315078 
L 449.551697 330.213516 
L 449.554646 329.791641 
L 449.554646 329.791641 
L 449.555638 328.244766 
L 449.560569 329.299453 
L 449.560569 329.299453 
L 449.568496 332.815078 
L 449.569487 331.619766 
L 449.569487 331.619766 
L 449.570483 328.244766 
L 449.57247 330.072891 
L 449.57247 330.072891 
L 449.576455 332.815078 
L 449.577454 331.338516 
L 449.577454 331.338516 
L 449.578452 328.455703 
L 449.579448 330.143203 
L 449.579448 330.143203 
L 449.582444 332.815078 
L 449.583447 330.354141 
L 449.583447 330.354141 
L 449.584449 328.455703 
L 449.584449 328.455703 
L 449.584449 328.455703 
L 449.592476 332.815078 
L 449.592476 332.815078 
L 449.592476 332.815078 
L 449.641509 328.174453 
L 449.702632 332.815078 
L 449.70857 332.815078 
L 449.719509 327.963516 
L 449.820672 328.315078 
L 449.888625 332.815078 
L 449.888625 332.815078 
L 449.888625 332.815078 
L 449.979706 328.174453 
L 449.999497 332.815078 
L 450.002481 332.815078 
L 450.01047 328.244766 
L 450.114846 330.424453 
L 450.11779 332.674453 
L 450.123695 330.565078 
L 450.123695 330.565078 
L 450.126656 328.104141 
L 450.130615 330.143203 
L 450.130615 330.143203 
L 450.137547 332.815078 
L 450.138542 330.565078 
L 450.138542 330.565078 
L 450.139542 328.666641 
L 450.140536 329.229141 
L 450.140536 329.229141 
L 450.144514 332.815078 
L 450.145514 331.971328 
L 450.145514 331.971328 
L 450.146513 328.526016 
L 450.148505 331.830703 
L 450.148505 331.830703 
L 450.150509 332.815078 
L 450.150509 332.815078 
L 450.150509 332.815078 
L 450.210554 327.893203 
L 450.264763 328.455703 
L 450.278601 332.815078 
L 450.279589 330.986953 
L 450.279589 330.986953 
L 450.280588 328.385391 
L 450.281584 329.018203 
L 450.281584 329.018203 
L 450.286555 332.815078 
L 450.287553 330.283828 
L 450.287553 330.283828 
L 450.288553 328.455703 
L 450.289543 329.721328 
L 450.289543 329.721328 
L 450.29254 332.815078 
L 450.293537 331.830703 
L 450.293537 331.830703 
L 450.29454 328.244766 
L 450.295542 330.072891 
L 450.295542 330.072891 
L 450.298541 332.815078 
L 450.298541 332.815078 
L 450.298541 332.815078 
L 450.403838 328.174453 
L 450.410724 328.315078 
L 450.44558 332.815078 
L 450.44558 332.815078 
L 450.44558 332.815078 
L 450.484687 328.033828 
L 450.556663 332.815078 
L 450.642552 328.315078 
L 450.667623 332.815078 
L 450.668634 332.815078 
L 450.712584 328.033828 
L 450.780642 328.244766 
L 450.821103 332.815078 
L 450.828945 328.807266 
L 450.828945 328.807266 
L 450.829928 327.963516 
L 450.834855 328.666641 
L 450.834855 328.666641 
L 450.846716 332.815078 
L 450.848704 329.791641 
L 450.848704 329.791641 
L 450.849693 328.315078 
L 450.849693 328.315078 
L 450.849693 328.315078 
L 450.953771 332.815078 
L 450.953771 332.815078 
L 450.953771 332.815078 
L 451.043957 328.174453 
L 451.064709 328.877578 
L 451.069688 332.815078 
L 451.070682 329.932266 
L 451.070682 329.932266 
L 451.071682 328.526016 
L 451.071682 328.526016 
L 451.071682 328.526016 
L 451.085696 332.815078 
L 451.085696 332.815078 
L 451.085696 332.815078 
L 451.121848 328.244766 
L 451.196792 328.455703 
L 451.24585 332.815078 
L 451.248141 328.877578 
L 451.248141 328.877578 
L 451.249121 328.104141 
L 451.250095 328.877578 
L 451.250095 328.877578 
L 451.262872 332.815078 
L 451.265835 329.932266 
L 451.265835 329.932266 
L 451.267814 328.455703 
L 451.27078 329.932266 
L 451.27078 329.932266 
L 451.276723 332.815078 
L 451.277722 331.479141 
L 451.277722 331.479141 
L 451.278719 328.385391 
L 451.280706 330.846328 
L 451.280706 330.846328 
L 451.284694 332.815078 
L 451.284694 332.815078 
L 451.284694 332.815078 
L 451.360736 328.385391 
L 451.395128 332.815078 
L 451.410882 332.815078 
L 451.518849 328.385391 
L 451.522881 329.721328 
L 451.524907 332.815078 
L 451.524907 332.815078 
L 451.524907 332.815078 
L 451.549972 328.244766 
L 451.635836 329.861953 
L 451.639829 332.815078 
L 451.64082 329.861953 
L 451.64082 329.861953 
L 451.641819 328.807266 
L 451.641819 328.807266 
L 451.641819 328.807266 
L 451.650821 332.815078 
L 451.650821 332.815078 
L 451.650821 332.815078 
L 451.694929 328.315078 
L 451.760986 332.815078 
L 451.763949 332.815078 
L 451.848846 328.244766 
L 451.874887 331.690078 
L 451.876907 332.815078 
L 451.876907 332.815078 
L 451.876907 332.815078 
L 451.892222 328.315078 
L 451.98792 330.354141 
L 451.992887 332.815078 
L 451.993885 330.494766 
L 451.993885 330.494766 
L 451.994886 328.666641 
L 451.994886 328.666641 
L 451.994886 328.666641 
L 451.99888 332.815078 
L 451.999872 331.549453 
L 451.999872 331.549453 
L 452.000874 328.526016 
L 452.001876 330.072891 
L 452.001876 330.072891 
L 452.004876 332.815078 
L 452.004876 332.815078 
L 452.004876 332.815078 
L 452.010888 328.174453 
L 452.115126 332.815078 
L 452.120057 332.815078 
L 452.158976 319.947891 
L 452.231003 332.815078 
L 452.232017 332.815078 
L 452.260121 327.401016 
L 452.342987 332.815078 
L 452.344977 332.815078 
L 452.446046 327.260391 
L 452.456168 328.736953 
L 452.482062 332.815078 
L 452.483056 330.354141 
L 452.483056 330.354141 
L 452.485035 327.330703 
L 452.487026 329.229141 
L 452.487026 329.229141 
L 452.491991 332.815078 
L 452.49299 329.861953 
L 452.49299 329.861953 
L 452.493983 327.401016 
L 452.493983 327.401016 
L 452.493983 327.401016 
L 452.60634 332.815078 
L 452.62112 332.815078 
L 452.732123 326.979141 
L 452.844027 332.815078 
L 452.846015 332.815078 
L 452.868048 327.330703 
L 452.95645 332.815078 
L 452.959388 332.815078 
L 453.067032 327.752578 
L 453.070025 332.815078 
L 453.071028 332.815078 
L 453.132046 328.244766 
L 453.163187 330.143203 
L 133.618645 332.815078 
L 133.619683 332.815078 
L 133.620724 328.315078 
L 133.730004 330.846328 
L 133.737053 332.815078 
L 133.737053 332.815078 
L 133.737053 332.815078 
L 133.750226 329.088516 
L 133.848091 332.815078 
L 133.849105 332.815078 
L 133.926039 328.385391 
L 133.960125 330.705703 
L 133.964195 332.815078 
L 133.964195 332.815078 
L 133.964195 332.815078 
L 133.965213 328.104141 
L 134.075214 329.721328 
L 134.076234 332.815078 
L 134.076234 332.815078 
L 134.076234 332.815078 
L 134.164002 327.963516 
L 134.188332 328.596328 
L 134.205805 332.815078 
L 134.205805 332.815078 
L 134.205805 332.815078 
L 134.24896 328.315078 
L 134.316886 332.815078 
L 134.344708 332.815078 
L 134.446602 329.651016 
L 134.45575 332.815078 
L 134.45677 332.815078 
L 134.548552 329.088516 
L 134.568862 330.143203 
L 134.569886 332.815078 
L 134.569886 332.815078 
L 134.569886 332.815078 
L 134.667668 328.385391 
L 134.680944 332.815078 
L 134.740559 328.174453 
L 134.792 332.322891 
L 134.796119 332.815078 
L 134.796119 332.815078 
L 134.796119 332.815078 
L 134.888748 328.104141 
L 134.908243 328.736953 
L 134.929049 332.815078 
L 134.929049 332.815078 
L 134.929049 332.815078 
L 135.037018 327.190078 
L 135.040053 327.401016 
L 135.045121 332.815078 
L 135.045121 332.815078 
L 135.045121 332.815078 
L 135.046137 327.330703 
L 135.156186 332.815078 
L 135.177689 328.104141 
L 135.267221 328.736953 
L 135.268242 332.815078 
L 135.268242 332.815078 
L 135.268242 332.815078 
L 135.310583 328.315078 
L 135.379262 330.916641 
L 135.3813 332.815078 
L 135.3813 332.815078 
L 135.3813 332.815078 
L 135.462986 327.682266 
L 135.492409 328.877578 
L 135.506828 332.815078 
L 135.506828 332.815078 
L 135.506828 332.815078 
L 135.519503 327.682266 
L 135.617917 332.815078 
L 135.724834 327.682266 
L 135.730025 329.158828 
L 135.732107 332.815078 
L 135.732107 332.815078 
L 135.732107 332.815078 
L 135.786633 327.471328 
L 135.842466 332.815078 
L 135.843471 332.815078 
L 135.897969 327.682266 
L 135.955498 331.479141 
L 135.957508 332.815078 
L 135.957508 332.815078 
L 135.957508 332.815078 
L 135.992235 327.611953 
L 136.068527 328.244766 
L 136.070544 332.815078 
L 136.070544 332.815078 
L 136.070544 332.815078 
L 136.181569 327.611953 
L 136.195843 332.815078 
L 136.195843 332.815078 
L 136.195843 332.815078 
L 136.214383 326.768203 
L 136.306923 332.815078 
L 136.405696 328.104141 
L 136.419013 328.596328 
L 136.420043 332.815078 
L 136.420043 332.815078 
L 136.420043 332.815078 
L 136.421075 327.822891 
L 136.531144 332.815078 
L 136.537348 328.033828 
L 136.642236 331.549453 
L 136.643271 332.815078 
L 136.643271 332.815078 
L 136.643271 332.815078 
L 136.74402 328.244766 
L 136.755383 328.666641 
L 136.763948 332.815078 
L 136.763948 332.815078 
L 136.763948 332.815078 
L 136.801631 327.893203 
L 136.874954 329.580703 
L 136.875954 329.440078 
L 136.875954 329.440078 
L 136.875954 329.440078 
L 136.877974 332.815078 
L 136.877974 332.815078 
L 136.877974 332.815078 
L 136.96207 327.682266 
L 136.989006 331.408828 
L 136.990019 332.815078 
L 136.991032 331.479141 
L 136.991032 331.479141 
L 136.992047 329.580703 
L 136.992047 329.580703 
L 136.992047 329.580703 
L 136.994065 332.815078 
L 136.994065 332.815078 
L 136.994065 332.815078 
L 137.032094 327.401016 
L 137.106158 328.385391 
L 137.110227 332.815078 
L 137.110227 332.815078 
L 137.110227 332.815078 
L 137.173939 326.276016 
L 137.221287 332.815078 
L 137.258547 326.838516 
L 137.333409 328.526016 
L 137.334434 332.815078 
L 137.334434 332.815078 
L 137.334434 332.815078 
L 137.345747 327.541641 
L 137.446539 327.893203 
L 137.447565 332.815078 
L 137.447565 332.815078 
L 137.447565 332.815078 
L 137.448594 327.541641 
L 137.558632 332.815078 
L 137.592676 327.893203 
L 137.670748 328.315078 
L 137.682141 332.815078 
L 137.682141 332.815078 
L 137.682141 332.815078 
L 137.685507 328.104141 
L 137.792479 328.807266 
L 137.795496 332.815078 
L 137.795496 332.815078 
L 137.795496 332.815078 
L 137.830132 328.104141 
L 137.906523 330.846328 
L 137.908544 332.815078 
L 137.908544 332.815078 
L 137.908544 332.815078 
L 137.988515 328.244766 
L 138.01957 330.213516 
L 138.020583 332.815078 
L 138.021598 332.111953 
L 138.021598 332.111953 
L 138.022613 329.580703 
L 138.022613 329.580703 
L 138.022613 329.580703 
L 138.026675 332.815078 
L 138.026675 332.815078 
L 138.026675 332.815078 
L 138.027694 328.244766 
L 138.137703 328.666641 
L 138.158214 332.815078 
L 138.158214 332.815078 
L 138.158214 332.815078 
L 138.243678 328.315078 
L 138.269325 331.619766 
L 138.270361 332.815078 
L 138.270361 332.815078 
L 138.270361 332.815078 
L 138.271398 328.244766 
L 138.381455 332.815078 
L 138.491485 328.244766 
L 138.494607 330.635391 
L 138.498975 332.815078 
L 138.498975 332.815078 
L 138.498975 332.815078 
L 138.589145 328.315078 
L 138.610006 330.494766 
L 138.612016 332.815078 
L 138.612016 332.815078 
L 138.612016 332.815078 
L 138.622143 328.315078 
L 138.723055 332.815078 
L 138.724067 332.815078 
L 138.821935 328.104141 
L 138.836069 328.596328 
L 138.854446 332.815078 
L 138.854446 332.815078 
L 138.854446 332.815078 
L 138.945083 328.315078 
L 138.965527 332.815078 
L 138.975842 328.455703 
L 139.076621 328.736953 
L 139.092426 332.815078 
L 139.092426 332.815078 
L 139.092426 332.815078 
L 139.19806 328.244766 
L 139.203466 332.815078 
L 139.204474 332.815078 
L 139.301889 328.244766 
L 139.315495 330.354141 
L 139.317518 332.815078 
L 139.317518 332.815078 
L 139.317518 332.815078 
L 139.42145 328.244766 
L 139.428528 330.213516 
L 139.429542 332.815078 
L 139.430556 331.690078 
L 139.430556 331.690078 
L 139.431564 329.932266 
L 139.431564 329.932266 
L 139.431564 329.932266 
L 139.435631 332.815078 
L 139.435631 332.815078 
L 139.435631 332.815078 
L 139.533503 328.174453 
L 139.547711 328.666641 
L 139.551802 332.815078 
L 139.551802 332.815078 
L 139.551802 332.815078 
L 139.554866 328.174453 
L 139.663874 328.244766 
L 139.77492 332.815078 
L 139.86964 328.455703 
L 139.886014 328.666641 
L 139.894264 332.815078 
L 139.894264 332.815078 
L 139.894264 332.815078 
L 139.992953 328.244766 
L 140.005342 332.815078 
L 140.10401 328.244766 
L 140.116433 329.932266 
L 140.117471 332.815078 
L 140.117471 332.815078 
L 140.117471 332.815078 
L 140.196647 328.315078 
L 140.227558 332.815078 
L 140.2286 332.815078 
L 140.337934 328.244766 
L 140.338936 330.635391 
L 140.340938 332.815078 
L 140.340938 332.815078 
L 140.340938 332.815078 
L 140.425918 328.385391 
L 140.451936 328.736953 
L 140.466121 332.815078 
L 140.466121 332.815078 
L 140.466121 332.815078 
L 140.467141 328.315078 
L 140.577156 332.815078 
L 140.668955 328.385391 
L 140.68926 329.369766 
L 140.690284 332.815078 
L 140.690284 332.815078 
L 140.690284 332.815078 
L 140.703647 328.174453 
L 140.802359 328.596328 
L 140.807502 332.815078 
L 140.807502 332.815078 
L 140.807502 332.815078 
L 140.915469 328.315078 
L 140.919592 328.666641 
L 140.938417 332.815078 
L 140.938417 332.815078 
L 140.938417 332.815078 
L 141.034844 328.385391 
L 141.049429 329.440078 
L 141.051442 332.815078 
L 141.051442 332.815078 
L 141.051442 332.815078 
L 141.096894 328.315078 
L 141.163515 328.526016 
L 141.202542 332.815078 
L 141.204891 331.338516 
L 141.204891 331.338516 
L 141.205896 328.455703 
L 141.205896 328.455703 
L 141.205896 328.455703 
L 141.208907 332.815078 
L 141.208907 332.815078 
L 141.208907 332.815078 
L 141.28985 328.385391 
L 141.31994 332.815078 
L 141.389635 328.315078 
L 141.430951 328.736953 
L 141.432972 332.815078 
L 141.432972 332.815078 
L 141.432972 332.815078 
L 141.528581 328.385391 
L 141.545045 328.526016 
L 141.549108 332.815078 
L 141.549108 332.815078 
L 141.549108 332.815078 
L 141.627206 328.315078 
L 141.660154 332.815078 
L 141.668339 328.315078 
L 141.771161 328.736953 
L 141.790691 332.815078 
L 141.790691 332.815078 
L 141.790691 332.815078 
L 141.85584 328.385391 
L 141.901783 331.057266 
L 141.902821 332.815078 
L 141.902821 332.815078 
L 141.902821 332.815078 
L 141.939802 328.315078 
L 142.013939 331.408828 
L 142.01498 331.197891 
L 142.01498 331.197891 
L 142.01498 331.197891 
L 142.016021 332.815078 
L 142.016021 332.815078 
L 142.016021 332.815078 
L 142.125335 328.174453 
L 142.126337 332.815078 
L 142.12835 332.815078 
L 142.221632 323.815078 
L 142.240408 325.151016 
L 142.242429 332.815078 
L 142.242429 332.815078 
L 142.242429 332.815078 
L 142.249521 322.901016 
L 142.353512 328.315078 
L 142.35554 332.815078 
L 142.35554 332.815078 
L 142.35554 332.815078 
L 142.371844 319.947891 
L 142.46663 331.760391 
L 142.467648 332.815078 
L 142.467648 332.815078 
L 142.467648 332.815078 
L 142.513012 327.963516 
L 142.578708 332.815078 
L 142.63631 327.260391 
L 142.689762 330.424453 
L 142.691805 332.815078 
L 142.691805 332.815078 
L 142.691805 332.815078 
L 142.78562 308.276016 
L 142.801907 321.705703 
L 142.802932 332.815078 
L 142.802932 332.815078 
L 142.802932 332.815078 
L 142.881196 306.799453 
L 142.914043 332.815078 
L 142.925368 325.572891 
L 143.026149 329.861953 
L 143.027174 332.815078 
L 143.027174 332.815078 
L 143.027174 332.815078 
L 143.071455 326.979141 
L 143.137262 328.455703 
L 143.138289 332.815078 
L 143.138289 332.815078 
L 143.138289 332.815078 
L 143.202091 326.979141 
L 143.249363 332.815078 
L 143.250397 332.815078 
L 143.33888 327.330703 
L 143.361476 332.815078 
L 143.362518 332.815078 
L 143.464324 325.502578 
L 143.473638 330.494766 
L 143.474677 330.424453 
L 143.474677 330.424453 
L 143.474677 330.424453 
L 143.475717 332.815078 
L 143.475717 332.815078 
L 143.475717 332.815078 
L 143.571253 325.432266 
L 143.5868 326.135391 
L 143.588149 325.361953 
L 143.588149 325.361953 
L 143.588149 325.361953 
L 143.614482 332.815078 
L 143.614482 332.815078 
L 143.614482 332.815078 
L 143.615506 324.729141 
L 143.725508 332.815078 
L 143.726524 332.815078 
L 143.746136 326.838516 
L 143.837607 329.580703 
L 143.849975 332.815078 
L 143.849975 332.815078 
L 143.849975 332.815078 
L 143.959011 327.752578 
L 143.961083 331.479141 
L 143.962121 331.197891 
L 143.962121 331.197891 
L 143.962121 331.197891 
L 143.96316 332.815078 
L 143.96316 332.815078 
L 143.96316 332.815078 
L 144.042335 328.033828 
L 144.074253 328.526016 
L 144.098893 332.815078 
L 144.098893 332.815078 
L 144.098893 332.815078 
L 144.128788 328.033828 
L 144.210952 328.526016 
L 144.211977 332.815078 
L 144.211977 332.815078 
L 144.211977 332.815078 
L 144.213006 327.822891 
L 144.323039 332.815078 
L 144.358196 327.752578 
L 144.433124 328.807266 
L 144.436212 332.815078 
L 144.436212 332.815078 
L 144.436212 332.815078 
L 144.536017 304.549453 
L 144.54629 311.510391 
L 144.547323 332.815078 
L 144.547323 332.815078 
L 144.547323 332.815078 
L 144.560786 308.627578 
L 144.657451 332.111953 
L 144.65952 332.815078 
L 144.65952 332.815078 
L 144.65952 332.815078 
L 144.698643 314.252578 
L 144.770714 317.979141 
L 144.785338 332.815078 
L 144.785338 332.815078 
L 144.785338 332.815078 
L 144.83042 315.658828 
L 144.896482 317.979141 
L 144.904589 332.815078 
L 144.904589 332.815078 
L 144.904589 332.815078 
L 144.908655 308.627578 
L 145.015643 332.815078 
L 145.078332 304.127578 
L 145.126687 327.611953 
L 145.128729 332.815078 
L 145.128729 332.815078 
L 145.128729 332.815078 
L 145.129748 315.588516 
L 145.239771 332.815078 
L 145.26349 322.057266 
L 145.350815 330.072891 
L 145.352867 332.815078 
L 145.352867 332.815078 
L 145.352867 332.815078 
L 145.435403 323.041641 
L 145.46391 325.994766 
L 145.464939 332.815078 
L 145.464939 332.815078 
L 145.464939 332.815078 
L 145.531862 322.619766 
L 145.576039 326.697891 
L 145.582239 332.815078 
L 145.582239 332.815078 
L 145.582239 332.815078 
L 145.69225 311.721328 
L 145.694322 323.955703 
L 145.696399 332.815078 
L 145.696399 332.815078 
L 145.696399 332.815078 
L 145.802298 307.502578 
L 145.807496 315.307266 
L 145.809857 332.815078 
L 145.810863 328.736953 
L 145.810863 328.736953 
L 145.811875 312.705703 
L 145.811875 312.705703 
L 145.811875 312.705703 
L 145.813886 332.815078 
L 145.813886 332.815078 
L 145.813886 332.815078 
L 145.879541 304.971328 
L 145.924901 332.815078 
L 145.925907 332.815078 
L 145.959639 304.760391 
L 146.036968 308.486953 
L 146.054275 332.815078 
L 146.054275 332.815078 
L 146.054275 332.815078 
L 146.141929 306.588516 
L 146.165338 312.213516 
L 146.168428 332.815078 
L 146.168428 332.815078 
L 146.168428 332.815078 
L 146.180816 307.221328 
L 146.279516 307.994766 
L 146.28777 332.815078 
L 146.28777 332.815078 
L 146.28777 332.815078 
L 146.33404 307.010391 
L 146.397878 307.291641 
L 146.500717 332.815078 
L 146.500717 332.815078 
L 146.500717 332.815078 
L 146.540822 305.674453 
L 146.611789 321.143203 
L 146.612821 332.815078 
L 146.612821 332.815078 
L 146.612821 332.815078 
L 146.673572 307.010391 
L 146.722928 312.916641 
L 146.725006 332.815078 
L 146.725006 332.815078 
L 146.725006 332.815078 
L 146.776382 307.291641 
L 146.83611 322.901016 
L 146.838501 313.549453 
L 146.839505 318.682266 
L 146.839505 318.682266 
L 146.841513 332.815078 
L 146.841513 332.815078 
L 146.841513 332.815078 
L 146.919316 306.940078 
L 146.952484 310.033828 
L 146.954511 332.815078 
L 146.954511 332.815078 
L 146.954511 332.815078 
L 147.044828 306.166641 
L 147.065561 312.705703 
L 147.073667 332.815078 
L 147.073667 332.815078 
L 147.073667 332.815078 
L 147.152817 306.869766 
L 147.18476 332.815078 
L 147.185781 332.815078 
L 147.242297 303.424453 
L 147.296822 307.854141 
L 147.314298 332.815078 
L 147.314298 332.815078 
L 147.314298 332.815078 
L 147.329013 306.729141 
L 147.425366 318.963516 
L 147.426398 332.815078 
L 147.426398 332.815078 
L 147.426398 332.815078 
L 147.485088 304.690078 
L 147.537548 319.104141 
L 147.538587 332.815078 
L 147.538587 332.815078 
L 147.538587 332.815078 
L 147.605587 306.447891 
L 147.648672 308.276016 
L 147.673319 332.815078 
L 147.673319 332.815078 
L 147.673319 332.815078 
L 147.70553 306.729141 
L 147.784356 326.979141 
L 147.786404 332.815078 
L 147.786404 332.815078 
L 147.786404 332.815078 
L 147.810124 307.291641 
L 147.897488 332.815078 
L 147.898511 332.815078 
L 147.921238 307.432266 
L 148.010631 308.768203 
L 148.027193 332.815078 
L 148.027193 332.815078 
L 148.027193 332.815078 
L 148.111455 307.010391 
L 148.13727 332.815078 
L 148.178319 305.463516 
L 148.247605 308.065078 
L 148.272944 332.815078 
L 148.272944 332.815078 
L 148.272944 332.815078 
L 148.295605 307.010391 
L 148.384019 314.393203 
L 148.385044 332.815078 
L 148.385044 332.815078 
L 148.385044 332.815078 
L 148.406717 307.010391 
L 148.496153 332.815078 
L 148.501286 307.080703 
L 148.607228 313.127578 
L 148.613415 332.815078 
L 148.613415 332.815078 
L 148.613415 332.815078 
L 148.722438 307.010391 
L 148.724508 317.979141 
L 148.726581 332.815078 
L 148.726581 332.815078 
L 148.726581 332.815078 
L 148.727618 306.869766 
L 148.820155 319.033828 
" style="fill:none;opacity:0.6;stroke:#ff0000;stroke-linecap:square;stroke-width:2.0;"/>
   </g>
   <g id="patch_3">
    <path d="M 72 388.8 
L 72 43.2 
" style="fill:none;stroke:#000000;stroke-linecap:square;stroke-linejoin:miter;"/>
   </g>
   <g id="patch_4">
    <path d="M 72 388.8 
L 518.4 388.8 
" style="fill:none;stroke:#000000;stroke-linecap:square;stroke-linejoin:miter;"/>
   </g>
   <g id="patch_5">
    <path d="M 518.4 388.8 
L 518.4 43.2 
" style="fill:none;stroke:#000000;stroke-linecap:square;stroke-linejoin:miter;"/>
   </g>
   <g id="patch_6">
    <path d="M 72 43.2 
L 518.4 43.2 
" style="fill:none;stroke:#000000;stroke-linecap:square;stroke-linejoin:miter;"/>
   </g>
   <g id="matplotlib.axis_1">
    <g id="xtick_1">
     <g id="line2d_3">
      <defs>
       <path d="M 0 0 
L 0 -4 
" id="m8b486fc3dd" style="stroke:#000000;stroke-width:0.5;"/>
      </defs>
      <g>
       <use style="stroke:#000000;stroke-width:0.5;" x="72.0" xlink:href="#m8b486fc3dd" y="388.8"/>
      </g>
     </g>
     <g id="line2d_4">
      <defs>
       <path d="M 0 0 
L 0 4 
" id="m9644233738" style="stroke:#000000;stroke-width:0.5;"/>
      </defs>
      <g>
       <use style="stroke:#000000;stroke-width:0.5;" x="72.0" xlink:href="#m9644233738" y="43.2"/>
      </g>
     </g>
     <g id="text_1">
      <!-- 2.5 -->
      <defs>
       <path d="M 19.1875 8.296875 
L 53.609375 8.296875 
L 53.609375 0 
L 7.328125 0 
L 7.328125 8.296875 
Q 12.9375 14.109375 22.625 23.890625 
Q 32.328125 33.6875 34.8125 36.53125 
Q 39.546875 41.84375 41.421875 45.53125 
Q 43.3125 49.21875 43.3125 52.78125 
Q 43.3125 58.59375 39.234375 62.25 
Q 35.15625 65.921875 28.609375 65.921875 
Q 23.96875 65.921875 18.8125 64.3125 
Q 13.671875 62.703125 7.8125 59.421875 
L 7.8125 69.390625 
Q 13.765625 71.78125 18.9375 73 
Q 24.125 74.21875 28.421875 74.21875 
Q 39.75 74.21875 46.484375 68.546875 
Q 53.21875 62.890625 53.21875 53.421875 
Q 53.21875 48.921875 51.53125 44.890625 
Q 49.859375 40.875 45.40625 35.40625 
Q 44.1875 33.984375 37.640625 27.21875 
Q 31.109375 20.453125 19.1875 8.296875 
" id="BitstreamVeraSans-Roman-32"/>
       <path d="M 10.59375 35.5 
L 73.1875 35.5 
L 73.1875 27.203125 
L 10.59375 27.203125 
z
" id="BitstreamVeraSans-Roman-2212"/>
       <path d="M 10.796875 72.90625 
L 49.515625 72.90625 
L 49.515625 64.59375 
L 19.828125 64.59375 
L 19.828125 46.734375 
Q 21.96875 47.46875 24.109375 47.828125 
Q 26.265625 48.1875 28.421875 48.1875 
Q 40.625 48.1875 47.75 41.5 
Q 54.890625 34.8125 54.890625 23.390625 
Q 54.890625 11.625 47.5625 5.09375 
Q 40.234375 -1.421875 26.90625 -1.421875 
Q 22.3125 -1.421875 17.546875 -0.640625 
Q 12.796875 0.140625 7.71875 1.703125 
L 7.71875 11.625 
Q 12.109375 9.234375 16.796875 8.0625 
Q 21.484375 6.890625 26.703125 6.890625 
Q 35.15625 6.890625 40.078125 11.328125 
Q 45.015625 15.765625 45.015625 23.390625 
Q 45.015625 31 40.078125 35.4375 
Q 35.15625 39.890625 26.703125 39.890625 
Q 22.75 39.890625 18.8125 39.015625 
Q 14.890625 38.140625 10.796875 36.28125 
z
" id="BitstreamVeraSans-Roman-35"/>
       <path d="M 10.6875 12.40625 
L 21 12.40625 
L 21 0 
L 10.6875 0 
z
" id="BitstreamVeraSans-Roman-2e"/>
      </defs>
      <g transform="translate(57.4303125 401.918125)scale(0.12 -0.12)">
       <use xlink:href="#BitstreamVeraSans-Roman-2212"/>
       <use x="83.7890625" xlink:href="#BitstreamVeraSans-Roman-32"/>
       <use x="147.412109375" xlink:href="#BitstreamVeraSans-Roman-2e"/>
       <use x="179.19921875" xlink:href="#BitstreamVeraSans-Roman-35"/>
      </g>
     </g>
    </g>
    <g id="xtick_2">
     <g id="line2d_5">
      <g>
       <use style="stroke:#000000;stroke-width:0.5;" x="146.4" xlink:href="#m8b486fc3dd" y="388.8"/>
      </g>
     </g>
     <g id="line2d_6">
      <g>
       <use style="stroke:#000000;stroke-width:0.5;" x="146.4" xlink:href="#m9644233738" y="43.2"/>
      </g>
     </g>
     <g id="text_2">
      <!-- 2.0 -->
      <defs>
       <path d="M 31.78125 66.40625 
Q 24.171875 66.40625 20.328125 58.90625 
Q 16.5 51.421875 16.5 36.375 
Q 16.5 21.390625 20.328125 13.890625 
Q 24.171875 6.390625 31.78125 6.390625 
Q 39.453125 6.390625 43.28125 13.890625 
Q 47.125 21.390625 47.125 36.375 
Q 47.125 51.421875 43.28125 58.90625 
Q 39.453125 66.40625 31.78125 66.40625 
M 31.78125 74.21875 
Q 44.046875 74.21875 50.515625 64.515625 
Q 56.984375 54.828125 56.984375 36.375 
Q 56.984375 17.96875 50.515625 8.265625 
Q 44.046875 -1.421875 31.78125 -1.421875 
Q 19.53125 -1.421875 13.0625 8.265625 
Q 6.59375 17.96875 6.59375 36.375 
Q 6.59375 54.828125 13.0625 64.515625 
Q 19.53125 74.21875 31.78125 74.21875 
" id="BitstreamVeraSans-Roman-30"/>
      </defs>
      <g transform="translate(131.8303125 401.918125)scale(0.12 -0.12)">
       <use xlink:href="#BitstreamVeraSans-Roman-2212"/>
       <use x="83.7890625" xlink:href="#BitstreamVeraSans-Roman-32"/>
       <use x="147.412109375" xlink:href="#BitstreamVeraSans-Roman-2e"/>
       <use x="179.19921875" xlink:href="#BitstreamVeraSans-Roman-30"/>
      </g>
     </g>
    </g>
    <g id="xtick_3">
     <g id="line2d_7">
      <g>
       <use style="stroke:#000000;stroke-width:0.5;" x="220.8" xlink:href="#m8b486fc3dd" y="388.8"/>
      </g>
     </g>
     <g id="line2d_8">
      <g>
       <use style="stroke:#000000;stroke-width:0.5;" x="220.8" xlink:href="#m9644233738" y="43.2"/>
      </g>
     </g>
     <g id="text_3">
      <!-- 1.5 -->
      <defs>
       <path d="M 12.40625 8.296875 
L 28.515625 8.296875 
L 28.515625 63.921875 
L 10.984375 60.40625 
L 10.984375 69.390625 
L 28.421875 72.90625 
L 38.28125 72.90625 
L 38.28125 8.296875 
L 54.390625 8.296875 
L 54.390625 0 
L 12.40625 0 
z
" id="BitstreamVeraSans-Roman-31"/>
      </defs>
      <g transform="translate(206.2303125 401.918125)scale(0.12 -0.12)">
       <use xlink:href="#BitstreamVeraSans-Roman-2212"/>
       <use x="83.7890625" xlink:href="#BitstreamVeraSans-Roman-31"/>
       <use x="147.412109375" xlink:href="#BitstreamVeraSans-Roman-2e"/>
       <use x="179.19921875" xlink:href="#BitstreamVeraSans-Roman-35"/>
      </g>
     </g>
    </g>
    <g id="xtick_4">
     <g id="line2d_9">
      <g>
       <use style="stroke:#000000;stroke-width:0.5;" x="295.2" xlink:href="#m8b486fc3dd" y="388.8"/>
      </g>
     </g>
     <g id="line2d_10">
      <g>
       <use style="stroke:#000000;stroke-width:0.5;" x="295.2" xlink:href="#m9644233738" y="43.2"/>
      </g>
     </g>
     <g id="text_4">
      <!-- 1.0 -->
      <g transform="translate(280.6303125 401.918125)scale(0.12 -0.12)">
       <use xlink:href="#BitstreamVeraSans-Roman-2212"/>
       <use x="83.7890625" xlink:href="#BitstreamVeraSans-Roman-31"/>
       <use x="147.412109375" xlink:href="#BitstreamVeraSans-Roman-2e"/>
       <use x="179.19921875" xlink:href="#BitstreamVeraSans-Roman-30"/>
      </g>
     </g>
    </g>
    <g id="xtick_5">
     <g id="line2d_11">
      <g>
       <use style="stroke:#000000;stroke-width:0.5;" x="369.6" xlink:href="#m8b486fc3dd" y="388.8"/>
      </g>
     </g>
     <g id="line2d_12">
      <g>
       <use style="stroke:#000000;stroke-width:0.5;" x="369.6" xlink:href="#m9644233738" y="43.2"/>
      </g>
     </g>
     <g id="text_5">
      <!-- 0.5 -->
      <g transform="translate(355.0303125 401.918125)scale(0.12 -0.12)">
       <use xlink:href="#BitstreamVeraSans-Roman-2212"/>
       <use x="83.7890625" xlink:href="#BitstreamVeraSans-Roman-30"/>
       <use x="147.412109375" xlink:href="#BitstreamVeraSans-Roman-2e"/>
       <use x="179.19921875" xlink:href="#BitstreamVeraSans-Roman-35"/>
      </g>
     </g>
    </g>
    <g id="xtick_6">
     <g id="line2d_13">
      <g>
       <use style="stroke:#000000;stroke-width:0.5;" x="444.0" xlink:href="#m8b486fc3dd" y="388.8"/>
      </g>
     </g>
     <g id="line2d_14">
      <g>
       <use style="stroke:#000000;stroke-width:0.5;" x="444.0" xlink:href="#m9644233738" y="43.2"/>
      </g>
     </g>
     <g id="text_6">
      <!-- 0.0 -->
      <g transform="translate(434.458125 401.918125)scale(0.12 -0.12)">
       <use xlink:href="#BitstreamVeraSans-Roman-30"/>
       <use x="63.623046875" xlink:href="#BitstreamVeraSans-Roman-2e"/>
       <use x="95.41015625" xlink:href="#BitstreamVeraSans-Roman-30"/>
      </g>
     </g>
    </g>
    <g id="xtick_7">
     <g id="line2d_15">
      <g>
       <use style="stroke:#000000;stroke-width:0.5;" x="518.4" xlink:href="#m8b486fc3dd" y="388.8"/>
      </g>
     </g>
     <g id="line2d_16">
      <g>
       <use style="stroke:#000000;stroke-width:0.5;" x="518.4" xlink:href="#m9644233738" y="43.2"/>
      </g>
     </g>
     <g id="text_7">
      <!-- 0.5 -->
      <g transform="translate(508.858125 401.918125)scale(0.12 -0.12)">
       <use xlink:href="#BitstreamVeraSans-Roman-30"/>
       <use x="63.623046875" xlink:href="#BitstreamVeraSans-Roman-2e"/>
       <use x="95.41015625" xlink:href="#BitstreamVeraSans-Roman-35"/>
      </g>
     </g>
    </g>
    <g id="text_8">
     <!-- t[s] -->
     <defs>
      <path d="M 30.421875 75.984375 
L 30.421875 -13.1875 
L 9.71875 -13.1875 
L 9.71875 -6.203125 
L 21.390625 -6.203125 
L 21.390625 69 
L 9.71875 69 
L 9.71875 75.984375 
z
" id="BitstreamVeraSans-Roman-5d"/>
      <path d="M 8.59375 75.984375 
L 29.296875 75.984375 
L 29.296875 69 
L 17.578125 69 
L 17.578125 -6.203125 
L 29.296875 -6.203125 
L 29.296875 -13.1875 
L 8.59375 -13.1875 
z
" id="BitstreamVeraSans-Roman-5b"/>
      <path d="M 18.3125 70.21875 
L 18.3125 54.6875 
L 36.8125 54.6875 
L 36.8125 47.703125 
L 18.3125 47.703125 
L 18.3125 18.015625 
Q 18.3125 11.328125 20.140625 9.421875 
Q 21.96875 7.515625 27.59375 7.515625 
L 36.8125 7.515625 
L 36.8125 0 
L 27.59375 0 
Q 17.1875 0 13.234375 3.875 
Q 9.28125 7.765625 9.28125 18.015625 
L 9.28125 47.703125 
L 2.6875 47.703125 
L 2.6875 54.6875 
L 9.28125 54.6875 
L 9.28125 70.21875 
z
" id="BitstreamVeraSans-Roman-74"/>
      <path d="M 44.28125 53.078125 
L 44.28125 44.578125 
Q 40.484375 46.53125 36.375 47.5 
Q 32.28125 48.484375 27.875 48.484375 
Q 21.1875 48.484375 17.84375 46.4375 
Q 14.5 44.390625 14.5 40.28125 
Q 14.5 37.15625 16.890625 35.375 
Q 19.28125 33.59375 26.515625 31.984375 
L 29.59375 31.296875 
Q 39.15625 29.25 43.1875 25.515625 
Q 47.21875 21.78125 47.21875 15.09375 
Q 47.21875 7.46875 41.1875 3.015625 
Q 35.15625 -1.421875 24.609375 -1.421875 
Q 20.21875 -1.421875 15.453125 -0.5625 
Q 10.6875 0.296875 5.421875 2 
L 5.421875 11.28125 
Q 10.40625 8.6875 15.234375 7.390625 
Q 20.0625 6.109375 24.8125 6.109375 
Q 31.15625 6.109375 34.5625 8.28125 
Q 37.984375 10.453125 37.984375 14.40625 
Q 37.984375 18.0625 35.515625 20.015625 
Q 33.0625 21.96875 24.703125 23.78125 
L 21.578125 24.515625 
Q 13.234375 26.265625 9.515625 29.90625 
Q 5.8125 33.546875 5.8125 39.890625 
Q 5.8125 47.609375 11.28125 51.796875 
Q 16.75 56 26.8125 56 
Q 31.78125 56 36.171875 55.265625 
Q 40.578125 54.546875 44.28125 53.078125 
" id="BitstreamVeraSans-Roman-73"/>
     </defs>
     <g transform="translate(285.0403125 418.531875)scale(0.12 -0.12)">
      <use xlink:href="#BitstreamVeraSans-Roman-74"/>
      <use x="39.208984375" xlink:href="#BitstreamVeraSans-Roman-5b"/>
      <use x="78.22265625" xlink:href="#BitstreamVeraSans-Roman-73"/>
      <use x="130.322265625" xlink:href="#BitstreamVeraSans-Roman-5d"/>
     </g>
    </g>
    <g id="text_9">
     <!-- 1e9 -->
     <defs>
      <path d="M 56.203125 29.59375 
L 56.203125 25.203125 
L 14.890625 25.203125 
Q 15.484375 15.921875 20.484375 11.0625 
Q 25.484375 6.203125 34.421875 6.203125 
Q 39.59375 6.203125 44.453125 7.46875 
Q 49.3125 8.734375 54.109375 11.28125 
L 54.109375 2.78125 
Q 49.265625 0.734375 44.1875 -0.34375 
Q 39.109375 -1.421875 33.890625 -1.421875 
Q 20.796875 -1.421875 13.15625 6.1875 
Q 5.515625 13.8125 5.515625 26.8125 
Q 5.515625 40.234375 12.765625 48.109375 
Q 20.015625 56 32.328125 56 
Q 43.359375 56 49.78125 48.890625 
Q 56.203125 41.796875 56.203125 29.59375 
M 47.21875 32.234375 
Q 47.125 39.59375 43.09375 43.984375 
Q 39.0625 48.390625 32.421875 48.390625 
Q 24.90625 48.390625 20.390625 44.140625 
Q 15.875 39.890625 15.1875 32.171875 
z
" id="BitstreamVeraSans-Roman-65"/>
      <path d="M 10.984375 1.515625 
L 10.984375 10.5 
Q 14.703125 8.734375 18.5 7.8125 
Q 22.3125 6.890625 25.984375 6.890625 
Q 35.75 6.890625 40.890625 13.453125 
Q 46.046875 20.015625 46.78125 33.40625 
Q 43.953125 29.203125 39.59375 26.953125 
Q 35.25 24.703125 29.984375 24.703125 
Q 19.046875 24.703125 12.671875 31.3125 
Q 6.296875 37.9375 6.296875 49.421875 
Q 6.296875 60.640625 12.9375 67.421875 
Q 19.578125 74.21875 30.609375 74.21875 
Q 43.265625 74.21875 49.921875 64.515625 
Q 56.59375 54.828125 56.59375 36.375 
Q 56.59375 19.140625 48.40625 8.859375 
Q 40.234375 -1.421875 26.421875 -1.421875 
Q 22.703125 -1.421875 18.890625 -0.6875 
Q 15.09375 0.046875 10.984375 1.515625 
M 30.609375 32.421875 
Q 37.25 32.421875 41.125 36.953125 
Q 45.015625 41.5 45.015625 49.421875 
Q 45.015625 57.28125 41.125 61.84375 
Q 37.25 66.40625 30.609375 66.40625 
Q 23.96875 66.40625 20.09375 61.84375 
Q 16.21875 57.28125 16.21875 49.421875 
Q 16.21875 41.5 20.09375 36.953125 
Q 23.96875 32.421875 30.609375 32.421875 
" id="BitstreamVeraSans-Roman-39"/>
     </defs>
     <g transform="translate(495.74625 416.531875)scale(0.12 -0.12)">
      <use xlink:href="#BitstreamVeraSans-Roman-31"/>
      <use x="63.623046875" xlink:href="#BitstreamVeraSans-Roman-65"/>
      <use x="125.146484375" xlink:href="#BitstreamVeraSans-Roman-39"/>
     </g>
    </g>
   </g>
   <g id="matplotlib.axis_2">
    <g id="ytick_1">
     <g id="line2d_17">
      <defs>
       <path d="M 0 0 
L 4 0 
" id="maad79a2e47" style="stroke:#000000;stroke-width:0.5;"/>
      </defs>
      <g>
       <use style="stroke:#000000;stroke-width:0.5;" x="72.0" xlink:href="#maad79a2e47" y="388.8"/>
      </g>
     </g>
     <g id="line2d_18">
      <defs>
       <path d="M 0 0 
L -4 0 
" id="mdefe656701" style="stroke:#000000;stroke-width:0.5;"/>
      </defs>
      <g>
       <use style="stroke:#000000;stroke-width:0.5;" x="518.4" xlink:href="#mdefe656701" y="388.8"/>
      </g>
     </g>
     <g id="text_10">
      <!-- 0.2 -->
      <g transform="translate(38.860625 392.11125)scale(0.12 -0.12)">
       <use xlink:href="#BitstreamVeraSans-Roman-2212"/>
       <use x="83.7890625" xlink:href="#BitstreamVeraSans-Roman-30"/>
       <use x="147.412109375" xlink:href="#BitstreamVeraSans-Roman-2e"/>
       <use x="179.19921875" xlink:href="#BitstreamVeraSans-Roman-32"/>
      </g>
     </g>
    </g>
    <g id="ytick_2">
     <g id="line2d_19">
      <g>
       <use style="stroke:#000000;stroke-width:0.5;" x="72.0" xlink:href="#maad79a2e47" y="331.2"/>
      </g>
     </g>
     <g id="line2d_20">
      <g>
       <use style="stroke:#000000;stroke-width:0.5;" x="518.4" xlink:href="#mdefe656701" y="331.2"/>
      </g>
     </g>
     <g id="text_11">
      <!-- 0.0 -->
      <g transform="translate(48.91625 334.51125)scale(0.12 -0.12)">
       <use xlink:href="#BitstreamVeraSans-Roman-30"/>
       <use x="63.623046875" xlink:href="#BitstreamVeraSans-Roman-2e"/>
       <use x="95.41015625" xlink:href="#BitstreamVeraSans-Roman-30"/>
      </g>
     </g>
    </g>
    <g id="ytick_3">
     <g id="line2d_21">
      <g>
       <use style="stroke:#000000;stroke-width:0.5;" x="72.0" xlink:href="#maad79a2e47" y="273.6"/>
      </g>
     </g>
     <g id="line2d_22">
      <g>
       <use style="stroke:#000000;stroke-width:0.5;" x="518.4" xlink:href="#mdefe656701" y="273.6"/>
      </g>
     </g>
     <g id="text_12">
      <!-- 0.2 -->
      <g transform="translate(48.91625 276.91125)scale(0.12 -0.12)">
       <use xlink:href="#BitstreamVeraSans-Roman-30"/>
       <use x="63.623046875" xlink:href="#BitstreamVeraSans-Roman-2e"/>
       <use x="95.41015625" xlink:href="#BitstreamVeraSans-Roman-32"/>
      </g>
     </g>
    </g>
    <g id="ytick_4">
     <g id="line2d_23">
      <g>
       <use style="stroke:#000000;stroke-width:0.5;" x="72.0" xlink:href="#maad79a2e47" y="216.0"/>
      </g>
     </g>
     <g id="line2d_24">
      <g>
       <use style="stroke:#000000;stroke-width:0.5;" x="518.4" xlink:href="#mdefe656701" y="216.0"/>
      </g>
     </g>
     <g id="text_13">
      <!-- 0.4 -->
      <defs>
       <path d="M 37.796875 64.3125 
L 12.890625 25.390625 
L 37.796875 25.390625 
z
M 35.203125 72.90625 
L 47.609375 72.90625 
L 47.609375 25.390625 
L 58.015625 25.390625 
L 58.015625 17.1875 
L 47.609375 17.1875 
L 47.609375 0 
L 37.796875 0 
L 37.796875 17.1875 
L 4.890625 17.1875 
L 4.890625 26.703125 
z
" id="BitstreamVeraSans-Roman-34"/>
      </defs>
      <g transform="translate(48.91625 219.31125)scale(0.12 -0.12)">
       <use xlink:href="#BitstreamVeraSans-Roman-30"/>
       <use x="63.623046875" xlink:href="#BitstreamVeraSans-Roman-2e"/>
       <use x="95.41015625" xlink:href="#BitstreamVeraSans-Roman-34"/>
      </g>
     </g>
    </g>
    <g id="ytick_5">
     <g id="line2d_25">
      <g>
       <use style="stroke:#000000;stroke-width:0.5;" x="72.0" xlink:href="#maad79a2e47" y="158.4"/>
      </g>
     </g>
     <g id="line2d_26">
      <g>
       <use style="stroke:#000000;stroke-width:0.5;" x="518.4" xlink:href="#mdefe656701" y="158.4"/>
      </g>
     </g>
     <g id="text_14">
      <!-- 0.6 -->
      <defs>
       <path d="M 33.015625 40.375 
Q 26.375 40.375 22.484375 35.828125 
Q 18.609375 31.296875 18.609375 23.390625 
Q 18.609375 15.53125 22.484375 10.953125 
Q 26.375 6.390625 33.015625 6.390625 
Q 39.65625 6.390625 43.53125 10.953125 
Q 47.40625 15.53125 47.40625 23.390625 
Q 47.40625 31.296875 43.53125 35.828125 
Q 39.65625 40.375 33.015625 40.375 
M 52.59375 71.296875 
L 52.59375 62.3125 
Q 48.875 64.0625 45.09375 64.984375 
Q 41.3125 65.921875 37.59375 65.921875 
Q 27.828125 65.921875 22.671875 59.328125 
Q 17.53125 52.734375 16.796875 39.40625 
Q 19.671875 43.65625 24.015625 45.921875 
Q 28.375 48.1875 33.59375 48.1875 
Q 44.578125 48.1875 50.953125 41.515625 
Q 57.328125 34.859375 57.328125 23.390625 
Q 57.328125 12.15625 50.6875 5.359375 
Q 44.046875 -1.421875 33.015625 -1.421875 
Q 20.359375 -1.421875 13.671875 8.265625 
Q 6.984375 17.96875 6.984375 36.375 
Q 6.984375 53.65625 15.1875 63.9375 
Q 23.390625 74.21875 37.203125 74.21875 
Q 40.921875 74.21875 44.703125 73.484375 
Q 48.484375 72.75 52.59375 71.296875 
" id="BitstreamVeraSans-Roman-36"/>
      </defs>
      <g transform="translate(48.91625 161.71125)scale(0.12 -0.12)">
       <use xlink:href="#BitstreamVeraSans-Roman-30"/>
       <use x="63.623046875" xlink:href="#BitstreamVeraSans-Roman-2e"/>
       <use x="95.41015625" xlink:href="#BitstreamVeraSans-Roman-36"/>
      </g>
     </g>
    </g>
    <g id="ytick_6">
     <g id="line2d_27">
      <g>
       <use style="stroke:#000000;stroke-width:0.5;" x="72.0" xlink:href="#maad79a2e47" y="100.8"/>
      </g>
     </g>
     <g id="line2d_28">
      <g>
       <use style="stroke:#000000;stroke-width:0.5;" x="518.4" xlink:href="#mdefe656701" y="100.8"/>
      </g>
     </g>
     <g id="text_15">
      <!-- 0.8 -->
      <defs>
       <path d="M 31.78125 34.625 
Q 24.75 34.625 20.71875 30.859375 
Q 16.703125 27.09375 16.703125 20.515625 
Q 16.703125 13.921875 20.71875 10.15625 
Q 24.75 6.390625 31.78125 6.390625 
Q 38.8125 6.390625 42.859375 10.171875 
Q 46.921875 13.96875 46.921875 20.515625 
Q 46.921875 27.09375 42.890625 30.859375 
Q 38.875 34.625 31.78125 34.625 
M 21.921875 38.8125 
Q 15.578125 40.375 12.03125 44.71875 
Q 8.5 49.078125 8.5 55.328125 
Q 8.5 64.0625 14.71875 69.140625 
Q 20.953125 74.21875 31.78125 74.21875 
Q 42.671875 74.21875 48.875 69.140625 
Q 55.078125 64.0625 55.078125 55.328125 
Q 55.078125 49.078125 51.53125 44.71875 
Q 48 40.375 41.703125 38.8125 
Q 48.828125 37.15625 52.796875 32.3125 
Q 56.78125 27.484375 56.78125 20.515625 
Q 56.78125 9.90625 50.3125 4.234375 
Q 43.84375 -1.421875 31.78125 -1.421875 
Q 19.734375 -1.421875 13.25 4.234375 
Q 6.78125 9.90625 6.78125 20.515625 
Q 6.78125 27.484375 10.78125 32.3125 
Q 14.796875 37.15625 21.921875 38.8125 
M 18.3125 54.390625 
Q 18.3125 48.734375 21.84375 45.5625 
Q 25.390625 42.390625 31.78125 42.390625 
Q 38.140625 42.390625 41.71875 45.5625 
Q 45.3125 48.734375 45.3125 54.390625 
Q 45.3125 60.0625 41.71875 63.234375 
Q 38.140625 66.40625 31.78125 66.40625 
Q 25.390625 66.40625 21.84375 63.234375 
Q 18.3125 60.0625 18.3125 54.390625 
" id="BitstreamVeraSans-Roman-38"/>
      </defs>
      <g transform="translate(48.91625 104.11125)scale(0.12 -0.12)">
       <use xlink:href="#BitstreamVeraSans-Roman-30"/>
       <use x="63.623046875" xlink:href="#BitstreamVeraSans-Roman-2e"/>
       <use x="95.41015625" xlink:href="#BitstreamVeraSans-Roman-38"/>
      </g>
     </g>
    </g>
    <g id="ytick_7">
     <g id="line2d_29">
      <g>
       <use style="stroke:#000000;stroke-width:0.5;" x="72.0" xlink:href="#maad79a2e47" y="43.2"/>
      </g>
     </g>
     <g id="line2d_30">
      <g>
       <use style="stroke:#000000;stroke-width:0.5;" x="518.4" xlink:href="#mdefe656701" y="43.2"/>
      </g>
     </g>
     <g id="text_16">
      <!-- 1.0 -->
      <g transform="translate(48.91625 46.51125)scale(0.12 -0.12)">
       <use xlink:href="#BitstreamVeraSans-Roman-31"/>
       <use x="63.623046875" xlink:href="#BitstreamVeraSans-Roman-2e"/>
       <use x="95.41015625" xlink:href="#BitstreamVeraSans-Roman-30"/>
      </g>
     </g>
    </g>
    <g id="text_17">
     <!-- U[V] -->
     <defs>
      <path d="M 28.609375 0 
L 0.78125 72.90625 
L 11.078125 72.90625 
L 34.1875 11.53125 
L 57.328125 72.90625 
L 67.578125 72.90625 
L 39.796875 0 
z
" id="BitstreamVeraSans-Roman-56"/>
      <path d="M 8.6875 72.90625 
L 18.609375 72.90625 
L 18.609375 28.609375 
Q 18.609375 16.890625 22.84375 11.734375 
Q 27.09375 6.59375 36.625 6.59375 
Q 46.09375 6.59375 50.34375 11.734375 
Q 54.59375 16.890625 54.59375 28.609375 
L 54.59375 72.90625 
L 64.5 72.90625 
L 64.5 27.390625 
Q 64.5 13.140625 57.4375 5.859375 
Q 50.390625 -1.421875 36.625 -1.421875 
Q 22.796875 -1.421875 15.734375 5.859375 
Q 8.6875 13.140625 8.6875 27.390625 
z
" id="BitstreamVeraSans-Roman-55"/>
     </defs>
     <g transform="translate(31.365 229.1775)rotate(-90.0)scale(0.12 -0.12)">
      <use xlink:href="#BitstreamVeraSans-Roman-55"/>
      <use x="73.193359375" xlink:href="#BitstreamVeraSans-Roman-5b"/>
      <use x="112.20703125" xlink:href="#BitstreamVeraSans-Roman-56"/>
      <use x="180.615234375" xlink:href="#BitstreamVeraSans-Roman-5d"/>
     </g>
    </g>
   </g>
   <g id="text_18">
    <!-- log_14052016_1.txt -->
    <defs>
     <path d="M 30.609375 48.390625 
Q 23.390625 48.390625 19.1875 42.75 
Q 14.984375 37.109375 14.984375 27.296875 
Q 14.984375 17.484375 19.15625 11.84375 
Q 23.34375 6.203125 30.609375 6.203125 
Q 37.796875 6.203125 41.984375 11.859375 
Q 46.1875 17.53125 46.1875 27.296875 
Q 46.1875 37.015625 41.984375 42.703125 
Q 37.796875 48.390625 30.609375 48.390625 
M 30.609375 56 
Q 42.328125 56 49.015625 48.375 
Q 55.71875 40.765625 55.71875 27.296875 
Q 55.71875 13.875 49.015625 6.21875 
Q 42.328125 -1.421875 30.609375 -1.421875 
Q 18.84375 -1.421875 12.171875 6.21875 
Q 5.515625 13.875 5.515625 27.296875 
Q 5.515625 40.765625 12.171875 48.375 
Q 18.84375 56 30.609375 56 
" id="BitstreamVeraSans-Roman-6f"/>
     <path d="M 9.421875 75.984375 
L 18.40625 75.984375 
L 18.40625 0 
L 9.421875 0 
z
" id="BitstreamVeraSans-Roman-6c"/>
     <path d="M 45.40625 27.984375 
Q 45.40625 37.75 41.375 43.109375 
Q 37.359375 48.484375 30.078125 48.484375 
Q 22.859375 48.484375 18.828125 43.109375 
Q 14.796875 37.75 14.796875 27.984375 
Q 14.796875 18.265625 18.828125 12.890625 
Q 22.859375 7.515625 30.078125 7.515625 
Q 37.359375 7.515625 41.375 12.890625 
Q 45.40625 18.265625 45.40625 27.984375 
M 54.390625 6.78125 
Q 54.390625 -7.171875 48.1875 -13.984375 
Q 42 -20.796875 29.203125 -20.796875 
Q 24.46875 -20.796875 20.265625 -20.09375 
Q 16.0625 -19.390625 12.109375 -17.921875 
L 12.109375 -9.1875 
Q 16.0625 -11.328125 19.921875 -12.34375 
Q 23.78125 -13.375 27.78125 -13.375 
Q 36.625 -13.375 41.015625 -8.765625 
Q 45.40625 -4.15625 45.40625 5.171875 
L 45.40625 9.625 
Q 42.625 4.78125 38.28125 2.390625 
Q 33.9375 0 27.875 0 
Q 17.828125 0 11.671875 7.65625 
Q 5.515625 15.328125 5.515625 27.984375 
Q 5.515625 40.671875 11.671875 48.328125 
Q 17.828125 56 27.875 56 
Q 33.9375 56 38.28125 53.609375 
Q 42.625 51.21875 45.40625 46.390625 
L 45.40625 54.6875 
L 54.390625 54.6875 
z
" id="BitstreamVeraSans-Roman-67"/>
     <path d="M 54.890625 54.6875 
L 35.109375 28.078125 
L 55.90625 0 
L 45.3125 0 
L 29.390625 21.484375 
L 13.484375 0 
L 2.875 0 
L 24.125 28.609375 
L 4.6875 54.6875 
L 15.28125 54.6875 
L 29.78125 35.203125 
L 44.28125 54.6875 
z
" id="BitstreamVeraSans-Roman-78"/>
     <path d="M 50.984375 -16.609375 
L 50.984375 -23.578125 
L -0.984375 -23.578125 
L -0.984375 -16.609375 
z
" id="BitstreamVeraSans-Roman-5f"/>
    </defs>
    <g transform="translate(223.599375 38.2)scale(0.144 -0.144)">
     <use xlink:href="#BitstreamVeraSans-Roman-6c"/>
     <use x="27.783203125" xlink:href="#BitstreamVeraSans-Roman-6f"/>
     <use x="88.96484375" xlink:href="#BitstreamVeraSans-Roman-67"/>
     <use x="152.44140625" xlink:href="#BitstreamVeraSans-Roman-5f"/>
     <use x="202.44140625" xlink:href="#BitstreamVeraSans-Roman-31"/>
     <use x="266.064453125" xlink:href="#BitstreamVeraSans-Roman-34"/>
     <use x="329.6875" xlink:href="#BitstreamVeraSans-Roman-30"/>
     <use x="393.310546875" xlink:href="#BitstreamVeraSans-Roman-35"/>
     <use x="456.93359375" xlink:href="#BitstreamVeraSans-Roman-32"/>
     <use x="520.556640625" xlink:href="#BitstreamVeraSans-Roman-30"/>
     <use x="584.1796875" xlink:href="#BitstreamVeraSans-Roman-31"/>
     <use x="647.802734375" xlink:href="#BitstreamVeraSans-Roman-36"/>
     <use x="711.42578125" xlink:href="#BitstreamVeraSans-Roman-5f"/>
     <use x="761.42578125" xlink:href="#BitstreamVeraSans-Roman-31"/>
     <use x="825.048828125" xlink:href="#BitstreamVeraSans-Roman-2e"/>
     <use x="856.8359375" xlink:href="#BitstreamVeraSans-Roman-74"/>
     <use x="896.044921875" xlink:href="#BitstreamVeraSans-Roman-78"/>
     <use x="955.224609375" xlink:href="#BitstreamVeraSans-Roman-74"/>
    </g>
   </g>
  </g>
 </g>
 <defs>
  <clipPath id="p078f901c24">
   <rect height="345.6" width="446.4" x="72.0" y="43.2"/>
  </clipPath>
 </defs>
</svg>
